<svg width="96" height="96" viewBox="0 0 96 96" fill="none" xmlns="http://www.w3.org/2000/svg">
<mask id="mask0_372_70613" style="mask-type:alpha" maskUnits="userSpaceOnUse" x="0" y="0" width="96" height="96">
<path d="M48 64C56.8366 64 64 56.8366 64 48C64 39.1634 56.8366 32 48 32C39.1634 32 32 39.1634 32 48C32 56.8366 39.1634 64 48 64Z" stroke="#F5F5F5" stroke-width="6" stroke-linecap="round" stroke-linejoin="round"/>
<path d="M64 32V52C64 55.1826 65.2643 58.2349 67.5147 60.4853C69.7652 62.7358 72.8174 64 76 64C79.1826 64 82.2348 62.7358 84.4853 60.4853C86.7357 58.2349 88 55.1826 88 52V48C88 38.9893 84.9576 30.2424 79.3656 23.1767C73.7737 16.111 65.9599 11.1403 57.1901 9.07007C48.4204 6.99982 39.2085 7.95126 31.0471 11.7702C22.8856 15.5892 16.2527 22.052 12.2229 30.1115C8.19317 38.171 7.00271 47.355 8.8444 56.1756C10.6861 64.9961 15.4521 72.9365 22.3701 78.7101C29.2881 84.4837 37.953 87.7524 46.9607 87.9865C55.9685 88.2206 64.7914 85.4065 72 80" stroke="#F5F5F5" stroke-width="6" stroke-linecap="round" stroke-linejoin="round"/>
</mask>
<g mask="url(#mask0_372_70613)">
<rect width="96" height="96" fill="url(#paint0_radial_372_70613)"/>
</g>
<defs>
<radialGradient id="paint0_radial_372_70613" cx="0" cy="0" r="1" gradientUnits="userSpaceOnUse" gradientTransform="translate(47.6245 48) rotate(-90) scale(48)">
<stop stop-color="white"/>
<stop offset="1" stop-color="white" stop-opacity="0.75"/>
</radialGradient>
</defs>
</svg>
