<svg width="160" height="160" viewBox="0 0 160 160" fill="none" xmlns="http://www.w3.org/2000/svg">
<mask id="mask0_372_70460" style="mask-type:alpha" maskUnits="userSpaceOnUse" x="0" y="0" width="160" height="160">
<path d="M20 73.3333H40C43.5362 73.3333 46.9276 74.7381 49.4281 77.2386C51.9286 79.7391 53.3333 83.1304 53.3333 86.6667V106.667C53.3333 110.203 51.9286 113.594 49.4281 116.095C46.9276 118.595 43.5362 120 40 120H33.3333C29.7971 120 26.4057 118.595 23.9052 116.095C21.4048 113.594 20 110.203 20 106.667V73.3333ZM20 73.3333C20 65.454 21.5519 57.6519 24.5672 50.3723C27.5825 43.0928 32.0021 36.4784 37.5736 30.9069C43.1451 25.3354 49.7595 20.9158 57.039 17.9006C64.3185 14.8853 72.1207 13.3333 80 13.3333C87.8793 13.3333 95.6815 14.8853 102.961 17.9006C110.241 20.9158 116.855 25.3354 122.426 30.9069C127.998 36.4784 132.417 43.0928 135.433 50.3723C138.448 57.6519 140 65.454 140 73.3333M140 73.3333V106.667C140 110.203 138.595 113.594 136.095 116.095C133.594 118.595 130.203 120 126.667 120H120C116.464 120 113.072 118.595 110.572 116.095C108.071 113.594 106.667 110.203 106.667 106.667V86.6667C106.667 83.1304 108.071 79.7391 110.572 77.2386C113.072 74.7381 116.464 73.3333 120 73.3333H140Z" stroke="black" stroke-width="12" stroke-linecap="round" stroke-linejoin="round"/>
<path d="M140 106.667V120C140 127.072 137.19 133.855 132.19 138.856C127.189 143.857 120.406 146.667 113.333 146.667H80" stroke="black" stroke-width="12" stroke-linecap="round" stroke-linejoin="round"/>
</mask>
<g mask="url(#mask0_372_70460)">
<rect width="160" height="160" fill="#F5F5F5"/>
</g>
</svg>
