<svg width="96" height="96" viewBox="0 0 96 96" fill="none" xmlns="http://www.w3.org/2000/svg">
<mask id="mask0_372_70639" style="mask-type:alpha" maskUnits="userSpaceOnUse" x="0" y="0" width="96" height="96">
<path d="M88 67.68V79.68C88.0045 80.794 87.7763 81.8967 87.33 82.9174C86.8837 83.9381 86.2292 84.8544 85.4083 85.6075C84.5874 86.3606 83.6183 86.934 82.563 87.2908C81.5077 87.6477 80.3895 87.7803 79.28 87.68C66.9713 86.3426 55.148 82.1366 44.76 75.4C35.0953 69.2587 26.9013 61.0647 20.76 51.4C13.9999 40.9648 9.79295 29.084 8.47998 16.72C8.38002 15.6139 8.51148 14.4991 8.86598 13.4465C9.22048 12.394 9.79026 11.4268 10.539 10.6065C11.2878 9.78623 12.1992 9.13086 13.2151 8.68211C14.2311 8.23336 15.3293 8.00107 16.44 8.00002H28.44C30.3812 7.98092 32.2631 8.66834 33.735 9.93415C35.2069 11.2 36.1683 12.9578 36.44 14.88C36.9465 18.7203 37.8858 22.4909 39.24 26.12C39.7782 27.5517 39.8946 29.1077 39.5756 30.6035C39.2566 32.0994 38.5154 33.4725 37.44 34.56L32.36 39.64C38.0542 49.6542 46.3458 57.9458 56.36 63.64L61.44 58.56C62.5275 57.4846 63.9006 56.7434 65.3965 56.4244C66.8923 56.1054 68.4483 56.2218 69.88 56.76C73.5091 58.1142 77.2797 59.0535 81.12 59.56C83.063 59.8341 84.8376 60.8128 86.1061 62.31C87.3746 63.8072 88.0487 65.7183 88 67.68Z" stroke="#F5F5F5" stroke-width="6" stroke-linecap="round" stroke-linejoin="round"/>
<path d="M56.2 8C64.3531 8.85908 71.9687 12.4752 77.7875 18.2503C83.6062 24.0254 87.2796 31.6136 88.2 39.76" stroke="#F5F5F5" stroke-width="6" stroke-linecap="round" stroke-linejoin="round"/>
<path d="M56.2 24C60.1341 24.7757 63.7441 26.7161 66.5615 29.5692C69.379 32.4224 71.2738 36.0565 72 40" stroke="#F5F5F5" stroke-width="6" stroke-linecap="round" stroke-linejoin="round"/>
</mask>
<g mask="url(#mask0_372_70639)">
<rect width="96" height="96" fill="url(#paint0_radial_372_70639)"/>
</g>
<defs>
<radialGradient id="paint0_radial_372_70639" cx="0" cy="0" r="1" gradientUnits="userSpaceOnUse" gradientTransform="translate(47.6245 48) rotate(-90) scale(48)">
<stop stop-color="white"/>
<stop offset="1" stop-color="white" stop-opacity="0.75"/>
</radialGradient>
</defs>
</svg>
