<svg width="412" height="209" viewBox="0 0 412 209" fill="none" xmlns="http://www.w3.org/2000/svg">
<mask id="mask0_374_49324" style="mask-type:luminance" maskUnits="userSpaceOnUse" x="7" y="0" width="24" height="209">
<path d="M7.92969 208.982H30.1673V0.245749H7.92969V208.982Z" fill="white"/>
</mask>
<g mask="url(#mask0_374_49324)">
<path d="M10.2636 208.901L8.09058 206.724H10.0851V95.9243L29.6636 76.2999V-9.76639H30.0212V76.4484L10.4427 96.0729V206.724H12.4352L10.2636 208.901Z" fill="#F5F5F5"/>
</g>
<mask id="mask1_374_49324" style="mask-type:luminance" maskUnits="userSpaceOnUse" x="29" y="0" width="17" height="173">
<path d="M29.8226 172.336H45.682V0.245735H29.8226V172.336Z" fill="white"/>
</mask>
<g mask="url(#mask1_374_49324)">
<path d="M30.1014 169.825C30.1014 171.035 31.0926 172.019 32.3127 172.019C33.5322 172.019 34.5248 171.035 34.5248 169.825C34.5248 168.7 33.6676 167.772 32.5693 167.646V168.426C33.2386 168.546 33.7463 169.126 33.7463 169.825C33.7463 170.611 33.1039 171.249 32.3127 171.249C31.5208 171.249 30.8784 170.611 30.8784 169.825C30.8784 169.073 31.4676 168.464 32.211 168.411V167.635C31.0387 167.688 30.1014 168.648 30.1014 169.825ZM45.5763 55.3345V113.815L32.5693 126.851V167.405C33.7995 167.532 34.7625 168.568 34.7625 169.825C34.7625 171.166 33.6628 172.259 32.3127 172.259C30.9619 172.259 29.8636 171.166 29.8636 169.825C29.8636 168.517 30.9081 167.449 32.211 167.397V126.703L45.2187 113.666V55.481L39.5866 49.8376V-4.57059H39.9441V49.689L45.5763 55.3345Z" fill="#F5F5F5"/>
</g>
<mask id="mask2_374_49324" style="mask-type:luminance" maskUnits="userSpaceOnUse" x="110" y="0" width="12" height="103">
<path d="M110.499 102.503H121.014V0.245681H110.499V102.503Z" fill="white"/>
</mask>
<g mask="url(#mask2_374_49324)">
<path d="M113.043 28.2719C114.262 28.2719 115.253 27.2868 115.253 26.0768C115.253 25.3199 114.866 24.6508 114.278 24.2564L113.712 24.8256C114.165 25.064 114.476 25.5306 114.476 26.0768C114.476 26.8634 113.835 27.5015 113.043 27.5015C112.992 27.5015 112.944 27.4907 112.895 27.486V28.2638C112.944 28.2672 112.993 28.2719 113.043 28.2719ZM113.043 23.8817C111.823 23.8817 110.831 24.8668 110.831 26.0768C110.831 27.1139 111.561 27.9836 112.537 28.2118V27.4043C111.996 27.2004 111.608 26.6852 111.608 26.0768C111.608 25.2902 112.251 24.6528 113.043 24.6528C113.147 24.6528 113.247 24.6649 113.345 24.6852L113.951 24.0789C113.674 23.9526 113.367 23.8817 113.043 23.8817ZM120.941 -11.7386V17.5792L114.448 24.0876C115.078 24.5265 115.493 25.2544 115.493 26.0768C115.493 27.4164 114.394 28.511 113.043 28.511C112.993 28.511 112.944 28.5056 112.895 28.5035V100.273H114.889L112.716 102.45L110.545 100.273H112.537V28.4569C111.429 28.224 110.594 27.2456 110.594 26.0768C110.594 24.7338 111.692 23.6433 113.043 23.6433C113.433 23.6433 113.802 23.7365 114.13 23.8992L120.583 17.4307V-11.7386" fill="#F5F5F5"/>
</g>
<mask id="mask3_374_49324" style="mask-type:luminance" maskUnits="userSpaceOnUse" x="46" y="0" width="27" height="177">
<path d="M46.5439 176.139H72.7465V0.245765H46.5439V176.139Z" fill="white"/>
</mask>
<g mask="url(#mask3_374_49324)">
<path d="M51.0293 176.105L46.6847 171.752H50.8502V91.0858L62.8451 79.0623L52.4596 68.6545V-1.99996H52.8172V68.506L63.0983 78.8098L72.3054 69.5809V-0.447638H72.663V69.7295L63.3508 79.0623L68.6422 84.3654V152.988H68.284V84.514L63.0983 79.3162L51.2078 91.2344V171.752H55.3733L51.0293 176.105Z" fill="#F5F5F5"/>
</g>
<path d="M28.3357 192.232C28.3357 189.693 26.3392 187.621 23.8531 187.529V189.184C25.4402 189.276 26.7001 190.604 26.7001 192.232C26.7001 193.921 25.3473 195.288 23.6793 195.288C22.0107 195.288 20.6592 193.921 20.6592 192.232C20.6592 190.609 21.9131 189.282 23.4955 189.186V187.529C21.0134 187.627 19.0243 189.696 19.0243 192.232C19.0243 194.832 21.1117 196.946 23.6793 196.946C26.2469 196.946 28.3357 194.832 28.3357 192.232ZM18.5172 192.232C18.5172 189.416 20.7346 187.121 23.4955 187.022V116.354L31.5404 108.29V88.4605C30.8831 88.3721 30.3754 87.8137 30.3754 87.131C30.3754 86.3863 30.9767 85.7826 31.7195 85.7826C32.4615 85.7826 33.0635 86.3863 33.0635 87.131C33.0635 87.8137 32.5551 88.3721 31.8979 88.4605V108.439L23.8531 116.501V187.02C26.618 187.113 28.8408 189.413 28.8408 192.232C28.8408 195.11 26.525 197.452 23.6793 197.452C20.833 197.452 18.5172 195.11 18.5172 192.232Z" fill="#F5F5F5"/>
<path d="M10.228 97.046C10.7222 97.046 11.1222 96.6449 11.1222 96.1507C11.1222 95.6544 10.7222 95.2553 10.228 95.2553C9.73507 95.2553 9.33374 95.6544 9.33374 96.1507C9.33374 96.6449 9.73507 97.046 10.228 97.046Z" fill="#F5F5F5"/>
<path d="M45.4544 114.25C45.9473 114.25 46.348 113.849 46.348 113.355C46.348 112.859 45.9473 112.46 45.4544 112.46C44.9595 112.46 44.5602 112.859 44.5602 113.355C44.5602 113.849 44.9595 114.25 45.4544 114.25Z" fill="#F5F5F5"/>
<path d="M52.6064 69.2662C53.0993 69.2662 53.5007 68.8651 53.5007 68.3709C53.5007 67.8766 53.0993 67.4755 52.6064 67.4755C52.1121 67.4755 51.7122 67.8766 51.7122 68.3709C51.7122 68.8651 52.1121 69.2662 52.6064 69.2662Z" fill="#F5F5F5"/>
<path d="M68.3413 85.5768C68.8342 85.5768 69.2355 85.1743 69.2355 84.6801C69.2355 84.1858 68.8342 83.7827 68.3413 83.7827C67.8463 83.7827 67.447 84.1858 67.447 84.6801C67.447 85.1743 67.8463 85.5768 68.3413 85.5768Z" fill="#F5F5F5"/>
<mask id="mask4_374_49324" style="mask-type:luminance" maskUnits="userSpaceOnUse" x="77" y="0" width="16" height="136">
<path d="M77.056 135.864H92.5707V0.245747H77.056V135.864Z" fill="white"/>
</mask>
<g mask="url(#mask4_374_49324)">
<path d="M90.3203 135.783L88.1493 133.606H90.1418V122.281L78.4345 110.547C78.3045 110.62 78.1571 110.667 77.9968 110.667C77.5025 110.667 77.1025 110.266 77.1025 109.77C77.1025 109.294 77.4722 108.911 77.9389 108.88V67.1609L88.9345 56.14V-2.7171H89.292V56.2886L78.2964 67.3094V108.93C78.6412 109.054 78.891 109.381 78.891 109.77C78.891 109.976 78.819 110.161 78.7045 110.313L90.4994 122.133V133.606H92.4933L90.3203 135.783Z" fill="#F5F5F5"/>
</g>
<mask id="mask5_374_49324" style="mask-type:luminance" maskUnits="userSpaceOnUse" x="86" y="0" width="23" height="100">
<path d="M86.882 99.3916H108.775V0.245735H86.882V99.3916Z" fill="white"/>
</mask>
<g mask="url(#mask5_374_49324)">
<path d="M89.1135 99.2241L86.9406 97.0479H88.9344V83.0223L99.4499 72.4829C99.3408 72.3364 99.2742 72.1534 99.2742 71.9542C99.2742 71.46 99.6755 71.0589 100.168 71.0589C100.179 71.0589 100.189 71.0623 100.199 71.0623V30.336L108.244 22.2705V-4.92846H108.603V22.4211L100.557 30.4845V71.1521C100.855 71.2972 101.063 71.5997 101.063 71.9542C101.063 72.4505 100.663 72.8516 100.168 72.8516C100.002 72.8516 99.8492 72.803 99.7145 72.7233L89.292 83.1709V97.0479H91.2852L89.1135 99.2241Z" fill="#F5F5F5"/>
</g>
<path d="M54.0615 105.18C54.5511 105.18 54.9484 104.781 54.9484 104.292C54.9484 103.801 54.5511 103.402 54.0615 103.402C53.572 103.402 53.1747 103.801 53.1747 104.292C53.1747 104.781 53.572 105.18 54.0615 105.18Z" fill="#F5F5F5"/>
<path d="M54.0615 107.64C54.5511 107.64 54.9484 107.243 54.9484 106.752C54.9484 106.261 54.5511 105.864 54.0615 105.864C53.572 105.864 53.1747 106.261 53.1747 106.752C53.1747 107.243 53.572 107.64 54.0615 107.64Z" fill="#F5F5F5"/>
<path d="M54.0615 110.1C54.5511 110.1 54.9484 109.702 54.9484 109.211C54.9484 108.72 54.5511 108.323 54.0615 108.323C53.572 108.323 53.1747 108.72 53.1747 109.211C53.1747 109.702 53.572 110.1 54.0615 110.1Z" fill="#F5F5F5"/>
<path d="M5.97223 144.965C6.46177 144.965 6.85907 144.566 6.85907 144.076C6.85907 143.586 6.46177 143.188 5.97223 143.188C5.48268 143.188 5.08606 143.586 5.08606 144.076C5.08606 144.566 5.48268 144.965 5.97223 144.965Z" fill="#F5F5F5"/>
<path d="M5.97223 147.424C6.46177 147.424 6.85907 147.026 6.85907 146.536C6.85907 146.045 6.46177 145.647 5.97223 145.647C5.48268 145.647 5.08606 146.045 5.08606 146.536C5.08606 147.026 5.48268 147.424 5.97223 147.424Z" fill="#F5F5F5"/>
<path d="M5.97223 149.885C6.46177 149.885 6.85907 149.486 6.85907 148.996C6.85907 148.506 6.46177 148.106 5.97223 148.106C5.48268 148.106 5.08606 148.506 5.08606 148.996C5.08606 149.486 5.48268 149.885 5.97223 149.885Z" fill="#F5F5F5"/>
<path d="M49.5917 41.3333C50.0812 41.3333 50.4778 40.9355 50.4778 40.4446C50.4778 39.9538 50.0812 39.556 49.5917 39.556C49.1015 39.556 48.7048 39.9538 48.7048 40.4446C48.7048 40.9355 49.1015 41.3333 49.5917 41.3333Z" fill="#F5F5F5"/>
<path d="M49.5917 43.7931C50.0812 43.7931 50.4778 43.3954 50.4778 42.9045C50.4778 42.4136 50.0812 42.0159 49.5917 42.0159C49.1015 42.0159 48.7048 42.4136 48.7048 42.9045C48.7048 43.3954 49.1015 43.7931 49.5917 43.7931Z" fill="#F5F5F5"/>
<path d="M49.5917 46.2522C50.0812 46.2522 50.4778 45.8552 50.4778 45.3643C50.4778 44.8734 50.0812 44.4757 49.5917 44.4757C49.1015 44.4757 48.7048 44.8734 48.7048 45.3643C48.7048 45.8552 49.1015 46.2522 49.5917 46.2522Z" fill="#F5F5F5"/>
<path d="M111.101 75.8853V81.0157H105.983V75.8853H111.101ZM111.371 81.2871V75.6152H105.714V81.2871H111.371Z" fill="#F5F5F5"/>
<path d="M109.165 82.0217V84.3776H106.815V82.0217H109.165ZM109.29 84.5018V81.8968H106.691V84.5018H109.29Z" fill="#F5F5F5"/>
<path d="M109.165 85.1568V87.5133H106.815V85.1568H109.165ZM109.29 87.6376V85.0312H106.691V87.6376H109.29Z" fill="#F5F5F5"/>
<path d="M109.165 88.291V90.649H106.815V88.291H109.165ZM109.29 90.7732V88.1661H106.691V90.7732H109.29Z" fill="#F5F5F5"/>
<path d="M21.8545 167.818V172.95H16.7355V167.818H21.8545ZM22.1245 173.22V167.548H16.4655V173.22H22.1245Z" fill="#F5F5F5"/>
<path d="M19.9186 173.954V176.312H17.5665V173.954H19.9186ZM20.0425 176.435V173.83H17.4432V176.435H20.0425Z" fill="#F5F5F5"/>
<path d="M19.9186 177.09V179.446H17.5665V177.09H19.9186ZM20.0425 179.571V176.967H17.4432V179.571H20.0425Z" fill="#F5F5F5"/>
<path d="M19.9186 180.224V182.581H17.5665V180.224H19.9186ZM20.0425 182.706V180.101H17.4432V182.706H20.0425Z" fill="#F5F5F5"/>
<path d="M66.317 38.5446V33.4142H71.436V38.5446H66.317ZM66.0483 33.1428V38.8147H71.7061V33.1428H66.0483Z" fill="#F5F5F5"/>
<path d="M69.088 32.4083V30.0511H71.4401V32.4083H69.088ZM68.9641 29.9282V32.5332H71.5634V29.9282H68.9641Z" fill="#F5F5F5"/>
<path d="M69.088 29.2733V26.9168H71.4401V29.2733H69.088ZM68.9641 26.7925V29.3976H71.5634V26.7925H68.9641Z" fill="#F5F5F5"/>
<path d="M69.088 26.1376V23.781H71.4401V26.1376H69.088ZM68.9641 23.6568V26.2618H71.5634V23.6568H68.9641Z" fill="#F5F5F5"/>
<path d="M70.0799 165.818L68.579 167.322L67.078 165.818V167.093L68.579 168.599L70.0799 167.093V165.818Z" fill="#F5F5F5"/>
<path d="M70.0799 162.808L68.579 164.313L67.078 162.808V164.085L68.579 165.59L70.0799 164.085V162.808Z" fill="#F5F5F5"/>
<path d="M69.9008 160.231V161.002L68.5789 162.326L67.2571 161.002V160.231L68.5789 161.558L69.9008 160.231ZM70.2583 161.149V159.366L68.5789 161.051L66.8995 159.366V161.149L68.5789 162.833L70.2583 161.149Z" fill="#F5F5F5"/>
<path d="M70.0799 153.781L68.579 155.285L67.078 153.781V155.058L68.579 156.562L70.0799 155.058V153.781Z" fill="#F5F5F5"/>
<path d="M22.9212 36.3218L21.4202 37.8276L19.9186 36.3218V37.5993L21.4202 39.1051L22.9212 37.5993V36.3218Z" fill="#F5F5F5"/>
<path d="M22.9212 33.3144L21.4202 34.8181L19.9186 33.3144V34.5899L21.4202 36.0936L22.9212 34.5899V33.3144Z" fill="#F5F5F5"/>
<path d="M22.9212 30.3049L21.4202 31.8086L19.9186 30.3049V31.5791L21.4202 33.0862L22.9212 31.5791V30.3049Z" fill="#F5F5F5"/>
<path d="M84.1016 52.8801L82.6006 54.3851L81.099 52.8801V54.1556L82.6006 55.6593L84.1016 54.1556V52.8801Z" fill="#F5F5F5"/>
<path d="M83.9231 50.3041V51.0732L82.6006 52.3973L81.2781 51.0732V50.3028L82.6006 51.6282L83.9231 50.3041ZM84.2807 51.2217V49.4364L82.6006 51.1218L80.9205 49.4364V51.2217L82.6006 52.9058L84.2807 51.2217Z" fill="#F5F5F5"/>
<path d="M83.9231 47.2933V48.0637L82.6006 49.3879L81.2781 48.0637V47.2933L82.6006 48.6188L83.9231 47.2933ZM84.2807 48.213V46.429L82.6006 48.1124L80.9205 46.429V48.213L82.6006 49.8943L84.2807 48.213Z" fill="#F5F5F5"/>
<path d="M84.1016 40.8437L82.6006 42.3475L81.099 40.8437V42.1199L82.6006 43.6237L84.1016 42.1199V40.8437Z" fill="#F5F5F5"/>
<path d="M44.0942 79.4113L42.5919 80.915L41.0909 79.4113V80.6868L42.5919 82.1906L44.0942 80.6868V79.4113Z" fill="#F5F5F5"/>
<path d="M43.9151 76.834V77.6051L42.5919 78.9292L41.27 77.6051V76.834L42.5919 78.1602L43.9151 76.834ZM44.2726 77.7537V75.9697L42.5919 77.6531L40.9125 75.9697V77.7537L42.5919 79.437L44.2726 77.7537Z" fill="#F5F5F5"/>
<path d="M44.0942 73.3924L42.5919 74.8962L41.0909 73.3924V74.6679L42.5919 76.1737L44.0942 74.6679V73.3924Z" fill="#F5F5F5"/>
<path d="M44.0942 67.3735L42.5919 68.8793L41.0909 67.3735V68.649L42.5919 70.1548L44.0942 68.649V67.3735Z" fill="#F5F5F5"/>
<path d="M104.454 16.2295L102.952 17.7352L101.451 16.2295V17.507L102.952 19.0107L104.454 17.507V16.2295Z" fill="#F5F5F5"/>
<path d="M104.454 13.22L102.952 14.7257L101.451 13.22V14.4975L102.952 16.0012L104.454 14.4975V13.22Z" fill="#F5F5F5"/>
<path d="M104.454 10.2105L102.952 11.7163L101.451 10.2105V11.4881L102.952 12.9932L104.454 11.4881V10.2105Z" fill="#F5F5F5"/>
<path d="M104.454 4.19163L102.952 5.69739L101.451 4.19163V5.46714L102.952 6.9729L104.454 5.46714V4.19163Z" fill="#F5F5F5"/>
<path d="M16.5921 115.903L15.0918 117.408L13.5895 115.903V117.178L15.0918 118.684L16.5921 117.178V115.903Z" fill="#F5F5F5"/>
<path d="M16.5921 112.893L15.0918 114.399L13.5895 112.893V114.171L15.0918 115.674L16.5921 114.171V112.893Z" fill="#F5F5F5"/>
<path d="M16.5921 109.884L15.0918 111.388L13.5895 109.884V111.161L15.0918 112.665L16.5921 111.161V109.884Z" fill="#F5F5F5"/>
<path d="M16.5921 103.867L15.0918 105.371L13.5895 103.867V105.142L15.0918 106.646L16.5921 105.142V103.867Z" fill="#F5F5F5"/>
<path d="M117.971 58.7949L116.471 60.3007L114.969 58.7949V60.0704L116.471 61.5762L117.971 60.0704V58.7949Z" fill="#F5F5F5"/>
<path d="M117.971 55.7855L116.471 57.2892L114.969 55.7855V57.061L116.471 58.5668L117.971 57.061V55.7855Z" fill="#F5F5F5"/>
<path d="M117.971 52.7741L116.471 54.2798L114.969 52.7741V54.0516L116.471 55.5574L117.971 54.0516V52.7741Z" fill="#F5F5F5"/>
<path d="M117.971 46.7572L116.471 48.2609L114.969 46.7572V48.0327L116.471 49.5385L117.971 48.0327V46.7572Z" fill="#F5F5F5"/>
<mask id="mask6_374_49324" style="mask-type:luminance" maskUnits="userSpaceOnUse" x="381" y="0" width="24" height="209">
<path d="M381.833 208.982H404.07V0.245749H381.833V208.982Z" fill="white"/>
</mask>
<g mask="url(#mask6_374_49324)">
<path d="M401.736 208.901L403.91 206.724H401.915V95.9243L382.336 76.2999V-9.76639H381.979V76.4484L401.557 96.0729V206.724H399.564L401.736 208.901Z" fill="#F5F5F5"/>
</g>
<mask id="mask7_374_49324" style="mask-type:luminance" maskUnits="userSpaceOnUse" x="366" y="0" width="17" height="173">
<path d="M366.318 172.336H382.177V0.245735H366.318V172.336Z" fill="white"/>
</mask>
<g mask="url(#mask7_374_49324)">
<path d="M379.788 167.635V168.411C380.533 168.464 381.121 169.073 381.121 169.825C381.121 170.611 380.479 171.249 379.688 171.249C378.897 171.249 378.254 170.611 378.254 169.825C378.254 169.126 378.761 168.546 379.431 168.426V167.646C378.333 167.772 377.474 168.7 377.474 169.825C377.474 171.035 378.468 172.019 379.688 172.019C380.907 172.019 381.898 171.035 381.898 169.825C381.898 168.648 380.961 167.688 379.788 167.635ZM372.056 49.689V-4.57059H372.413V49.8376L366.782 55.481V113.666L379.788 126.703V167.397C381.091 167.449 382.136 168.517 382.136 169.825C382.136 171.166 381.038 172.259 379.688 172.259C378.338 172.259 377.237 171.166 377.237 169.825C377.237 168.568 378.2 167.532 379.431 167.405V126.851L366.423 113.815V55.3345L372.056 49.689Z" fill="#F5F5F5"/>
</g>
<mask id="mask8_374_49324" style="mask-type:luminance" maskUnits="userSpaceOnUse" x="290" y="0" width="12" height="103">
<path d="M290.986 102.503H301.501V0.245681H290.986V102.503Z" fill="white"/>
</mask>
<g mask="url(#mask8_374_49324)">
<path d="M299.105 28.2637V27.4859C299.055 27.4906 299.008 27.5014 298.957 27.5014C298.165 27.5014 297.523 26.8633 297.523 26.0767C297.523 25.5304 297.835 25.0639 298.288 24.8255L297.722 24.2563C297.133 24.6506 296.747 25.3198 296.747 26.0767C296.747 27.2867 297.739 28.2718 298.957 28.2718C299.007 28.2718 299.055 28.2671 299.105 28.2637ZM298.048 24.0787L298.655 24.6851C298.753 24.6648 298.854 24.6527 298.957 24.6527C299.75 24.6527 300.391 25.2901 300.391 26.0767C300.391 26.6851 300.005 27.2003 299.464 27.4042V28.2117C300.437 27.9835 301.169 27.1138 301.169 26.0767C301.169 24.8667 300.177 23.8816 298.957 23.8816C298.633 23.8816 298.326 23.9525 298.048 24.0787ZM291.417 -11.7387V17.4306L297.869 23.8991C298.198 23.7364 298.567 23.6432 298.957 23.6432C300.308 23.6432 301.406 24.7337 301.406 26.0767C301.406 27.2455 300.572 28.2239 299.464 28.4568V100.273H301.455L299.285 102.45L297.111 100.273H299.105V28.5034C299.055 28.5054 299.007 28.5108 298.957 28.5108C297.605 28.5108 296.508 27.4163 296.508 26.0767C296.508 25.2543 296.921 24.5264 297.552 24.0875L291.06 17.5791V-11.7387" fill="#F5F5F5"/>
</g>
<mask id="mask9_374_49324" style="mask-type:luminance" maskUnits="userSpaceOnUse" x="339" y="0" width="27" height="177">
<path d="M339.254 176.139H365.456V0.245765H339.254V176.139Z" fill="white"/>
</mask>
<g mask="url(#mask9_374_49324)">
<path d="M360.971 176.105L365.315 171.752H361.15V91.0858L349.156 79.0623L359.54 68.6545V-1.99996H359.183V68.506L348.902 78.8098L339.695 69.5809V-0.447638H339.336V69.7295L348.648 79.0623L343.358 84.3654V152.988H343.717V84.514L348.902 79.3162L360.791 91.2344V171.752H356.627L360.971 176.105Z" fill="#F5F5F5"/>
</g>
<mask id="mask10_374_49324" style="mask-type:luminance" maskUnits="userSpaceOnUse" x="193" y="0" width="27" height="81">
<path d="M193.071 80.7233H219.274V0.245751H193.071V80.7233Z" fill="white"/>
</mask>
<g mask="url(#mask10_374_49324)">
<path d="M214.869 80.6281L219.213 76.2756H215.047V-4.39028L203.052 -16.4145L213.438 -26.8223V-97.4768H213.08V-26.9708L202.801 -16.6664L193.592 -25.8952V-95.9244H193.235V-25.7467L202.547 -16.4145L197.257 -11.1114V73.2196L197.614 57.5107V-10.9622L202.801 -16.16L214.69 -4.24174V76.2756H210.523L214.869 80.6281Z" fill="#F5F5F5"/>
</g>
<path d="M388.321 196.946C390.888 196.946 392.976 194.832 392.976 192.232C392.976 189.696 390.987 187.627 388.504 187.529V189.186C390.086 189.282 391.341 190.609 391.341 192.232C391.341 193.921 389.99 195.288 388.321 195.288C386.653 195.288 385.299 193.921 385.299 192.232C385.299 190.604 386.56 189.276 388.147 189.184V187.529C385.661 187.621 383.665 189.693 383.665 192.232C383.665 194.832 385.754 196.946 388.321 196.946ZM388.321 197.452C385.475 197.452 383.159 195.11 383.159 192.232C383.159 189.413 385.382 187.113 388.147 187.02V116.501L380.102 108.439V88.4605C379.445 88.3721 378.936 87.8137 378.936 87.131C378.936 86.3863 379.538 85.7826 380.281 85.7826C381.023 85.7826 381.624 86.3863 381.624 87.131C381.624 87.8137 381.118 88.3721 380.459 88.4605V108.29L388.504 116.354V187.022C391.265 187.121 393.482 189.416 393.482 192.232C393.482 195.11 391.167 197.452 388.321 197.452Z" fill="#F5F5F5"/>
<path d="M401.773 97.046C401.278 97.046 400.878 96.6449 400.878 96.1507C400.878 95.6544 401.278 95.2553 401.773 95.2553C402.266 95.2553 402.666 95.6544 402.666 96.1507C402.666 96.6449 402.266 97.046 401.773 97.046Z" fill="#F5F5F5"/>
<path d="M366.545 114.25C366.053 114.25 365.653 113.849 365.653 113.355C365.653 112.859 366.053 112.46 366.545 112.46C367.04 112.46 367.44 112.859 367.44 113.355C367.44 113.849 367.04 114.25 366.545 114.25Z" fill="#F5F5F5"/>
<path d="M359.393 69.2662C358.9 69.2662 358.499 68.8651 358.499 68.3709C358.499 67.8766 358.9 67.4755 359.393 67.4755C359.888 67.4755 360.288 67.8766 360.288 68.3709C360.288 68.8651 359.888 69.2662 359.393 69.2662Z" fill="#F5F5F5"/>
<path d="M343.66 85.5768C343.165 85.5768 342.765 85.1743 342.765 84.6801C342.765 84.1858 343.165 83.7827 343.66 83.7827C344.153 83.7827 344.552 84.1858 344.552 84.6801C344.552 85.1743 344.153 85.5768 343.66 85.5768Z" fill="#F5F5F5"/>
<mask id="mask11_374_49324" style="mask-type:luminance" maskUnits="userSpaceOnUse" x="319" y="0" width="16" height="136">
<path d="M319.429 135.864H334.944V0.245747H319.429V135.864Z" fill="white"/>
</mask>
<g mask="url(#mask11_374_49324)">
<path d="M321.679 135.783L323.851 133.606H321.858V122.281L333.565 110.547C333.696 110.62 333.842 110.667 334.003 110.667C334.497 110.667 334.897 110.266 334.897 109.77C334.897 109.294 334.526 108.911 334.061 108.88V67.1609L323.065 56.14V-2.7171H322.708V56.2886L333.703 67.3094V108.93C333.358 109.054 333.11 109.381 333.11 109.77C333.11 109.976 333.18 110.161 333.296 110.313L321.501 122.133V133.606H319.507L321.679 135.783Z" fill="#F5F5F5"/>
</g>
<mask id="mask12_374_49324" style="mask-type:luminance" maskUnits="userSpaceOnUse" x="303" y="0" width="23" height="100">
<path d="M303.225 99.3916H325.118V0.245735H303.225V99.3916Z" fill="white"/>
</mask>
<g mask="url(#mask12_374_49324)">
<path d="M322.887 99.2241L325.059 97.0479H323.065V83.0223L312.551 72.4829C312.658 72.3364 312.725 72.1534 312.725 71.9542C312.725 71.46 312.325 71.0589 311.832 71.0589C311.82 71.0589 311.811 71.0623 311.801 71.0623V30.336L303.756 22.2705V-4.92846H303.396V22.4211L311.443 30.4845V71.1521C311.145 71.2972 310.937 71.5997 310.937 71.9542C310.937 72.4505 311.337 72.8516 311.832 72.8516C311.998 72.8516 312.151 72.803 312.285 72.7233L322.708 83.1709V97.0479H320.715L322.887 99.2241Z" fill="#F5F5F5"/>
</g>
<path d="M357.939 105.18C357.449 105.18 357.052 104.781 357.052 104.292C357.052 103.801 357.449 103.402 357.939 103.402C358.428 103.402 358.825 103.801 358.825 104.292C358.825 104.781 358.428 105.18 357.939 105.18Z" fill="#F5F5F5"/>
<path d="M357.939 107.64C357.449 107.64 357.052 107.243 357.052 106.752C357.052 106.261 357.449 105.864 357.939 105.864C358.428 105.864 358.825 106.261 358.825 106.752C358.825 107.243 358.428 107.64 357.939 107.64Z" fill="#F5F5F5"/>
<path d="M357.939 110.1C357.449 110.1 357.052 109.702 357.052 109.211C357.052 108.72 357.449 108.323 357.939 108.323C358.428 108.323 358.825 108.72 358.825 109.211C358.825 109.702 358.428 110.1 357.939 110.1Z" fill="#F5F5F5"/>
<path d="M406.027 144.965C405.539 144.965 405.141 144.566 405.141 144.076C405.141 143.586 405.539 143.188 406.027 143.188C406.517 143.188 406.915 143.586 406.915 144.076C406.915 144.566 406.517 144.965 406.027 144.965Z" fill="#F5F5F5"/>
<path d="M406.027 147.424C405.539 147.424 405.141 147.026 405.141 146.536C405.141 146.045 405.539 145.647 406.027 145.647C406.517 145.647 406.915 146.045 406.915 146.536C406.915 147.026 406.517 147.424 406.027 147.424Z" fill="#F5F5F5"/>
<path d="M406.027 149.885C405.539 149.885 405.141 149.486 405.141 148.996C405.141 148.506 405.539 148.106 406.027 148.106C406.517 148.106 406.915 148.506 406.915 148.996C406.915 149.486 406.517 149.885 406.027 149.885Z" fill="#F5F5F5"/>
<path d="M362.408 41.3333C361.919 41.3333 361.522 40.9355 361.522 40.4446C361.522 39.9538 361.919 39.556 362.408 39.556C362.898 39.556 363.296 39.9538 363.296 40.4446C363.296 40.9355 362.898 41.3333 362.408 41.3333Z" fill="#F5F5F5"/>
<path d="M362.408 43.7931C361.919 43.7931 361.522 43.3954 361.522 42.9045C361.522 42.4136 361.919 42.0159 362.408 42.0159C362.898 42.0159 363.296 42.4136 363.296 42.9045C363.296 43.3954 362.898 43.7931 362.408 43.7931Z" fill="#F5F5F5"/>
<path d="M362.408 46.2522C361.919 46.2522 361.522 45.8552 361.522 45.3643C361.522 44.8734 361.919 44.4757 362.408 44.4757C362.898 44.4757 363.296 44.8734 363.296 45.3643C363.296 45.8552 362.898 46.2522 362.408 46.2522Z" fill="#F5F5F5"/>
<path d="M306.018 75.8853V81.0157H300.898V75.8853H306.018ZM306.287 81.2871V75.6152H300.629V81.2871H306.287Z" fill="#F5F5F5"/>
<path d="M305.185 82.0217V84.3776H302.834V82.0217H305.185ZM305.307 84.5018V81.8968H302.71V84.5018H305.307Z" fill="#F5F5F5"/>
<path d="M305.185 85.1568V87.5133H302.834V85.1568H305.185ZM305.307 87.6376V85.0312H302.71V87.6376H305.307Z" fill="#F5F5F5"/>
<path d="M305.185 88.291V90.649H302.834V88.291H305.185ZM305.307 90.7732V88.1661H302.71V90.7732H305.307Z" fill="#F5F5F5"/>
<path d="M395.265 167.818V172.95H390.147V167.818H395.265ZM395.535 173.22V167.548H389.876V173.22H395.535Z" fill="#F5F5F5"/>
<path d="M394.434 173.954V176.312H392.083V173.954H394.434ZM394.556 176.435V173.83H391.957V176.435H394.556Z" fill="#F5F5F5"/>
<path d="M394.434 177.09V179.446H392.083V177.09H394.434ZM394.556 179.571V176.967H391.957V179.571H394.556Z" fill="#F5F5F5"/>
<path d="M394.434 180.224V182.581H392.083V180.224H394.434ZM394.556 182.706V180.101H391.957V182.706H394.556Z" fill="#F5F5F5"/>
<path d="M340.564 38.5446V33.4142H345.684V38.5446H340.564ZM340.293 33.1428V38.8147H345.951V33.1428H340.293Z" fill="#F5F5F5"/>
<path d="M340.56 32.4083V30.0511H342.911V32.4083H340.56ZM340.436 29.9282V32.5332H343.036V29.9282H340.436Z" fill="#F5F5F5"/>
<path d="M340.56 29.2733V26.9168H342.911V29.2733H340.56ZM340.436 26.7925V29.3976H343.036V26.7925H340.436Z" fill="#F5F5F5"/>
<path d="M340.56 26.1376V23.781H342.911V26.1376H340.56ZM340.436 23.6568V26.2618H343.036V23.6568H340.436Z" fill="#F5F5F5"/>
<path d="M341.92 165.818L343.422 167.322L344.921 165.818V167.093L343.422 168.599L341.92 167.093V165.818Z" fill="#F5F5F5"/>
<path d="M341.92 162.808L343.422 164.313L344.921 162.808V164.085L343.422 165.59L341.92 164.085V162.808Z" fill="#F5F5F5"/>
<path d="M343.422 161.558L344.742 160.231V161.002L343.422 162.326L342.1 161.002V160.231L343.422 161.558ZM343.422 162.833L345.101 161.149V159.366L343.422 161.051L341.741 159.366V161.149L343.422 162.833Z" fill="#F5F5F5"/>
<path d="M341.92 153.781L343.422 155.285L344.921 153.781V155.058L343.422 156.562L341.92 155.058V153.781Z" fill="#F5F5F5"/>
<path d="M389.079 36.3218L390.579 37.8276L392.083 36.3218V37.5993L390.579 39.1051L389.079 37.5993V36.3218Z" fill="#F5F5F5"/>
<path d="M389.079 33.3144L390.579 34.8181L392.083 33.3144V34.5899L390.579 36.0936L389.079 34.5899V33.3144Z" fill="#F5F5F5"/>
<path d="M389.079 30.3049L390.579 31.8086L392.083 30.3049V31.5791L390.579 33.0862L389.079 31.5791V30.3049Z" fill="#F5F5F5"/>
<path d="M327.898 52.8801L329.398 54.3851L330.902 52.8801V54.1556L329.398 55.6593L327.898 54.1556V52.8801Z" fill="#F5F5F5"/>
<path d="M329.398 51.6282L330.723 50.3028V51.0732L329.398 52.3973L328.076 51.0732V50.3041L329.398 51.6282ZM329.398 52.9058L331.079 51.2217V49.4364L329.398 51.1218L327.719 49.4364V51.2217L329.398 52.9058Z" fill="#F5F5F5"/>
<path d="M329.398 48.6188L330.723 47.2933V48.0637L329.398 49.3879L328.076 48.0637V47.2933L329.398 48.6188ZM329.398 49.8943L331.079 48.213V46.429L329.398 48.1124L327.719 46.429V48.213L329.398 49.8943Z" fill="#F5F5F5"/>
<path d="M327.898 40.8437L329.398 42.3475L330.902 40.8437V42.1199L329.398 43.6237L327.898 42.1199V40.8437Z" fill="#F5F5F5"/>
<path d="M367.906 79.4113L369.409 80.915L370.908 79.4113V80.6868L369.409 82.1906L367.906 80.6868V79.4113Z" fill="#F5F5F5"/>
<path d="M369.409 78.1602L370.729 76.834V77.6051L369.409 78.9292L368.085 77.6051V76.834L369.409 78.1602ZM369.409 79.437L371.088 77.7537V75.9697L369.409 77.6531L367.728 75.9697V77.7537L369.409 79.437Z" fill="#F5F5F5"/>
<path d="M367.906 73.3924L369.409 74.8962L370.908 73.3924V74.6679L369.409 76.1737L367.906 74.6679V73.3924Z" fill="#F5F5F5"/>
<path d="M367.906 67.3735L369.409 68.8793L370.908 67.3735V68.649L369.409 70.1548L367.906 68.649V67.3735Z" fill="#F5F5F5"/>
<path d="M307.547 16.2295L309.049 17.7352L310.548 16.2295V17.507L309.049 19.0107L307.547 17.507V16.2295Z" fill="#F5F5F5"/>
<path d="M307.547 13.22L309.049 14.7257L310.548 13.22V14.4975L309.049 16.0012L307.547 14.4975V13.22Z" fill="#F5F5F5"/>
<path d="M307.547 10.2105L309.049 11.7163L310.548 10.2105V11.4881L309.049 12.9932L307.547 11.4881V10.2105Z" fill="#F5F5F5"/>
<path d="M307.547 4.19163L309.049 5.69739L310.548 4.19163V5.46714L309.049 6.9729L307.547 5.46714V4.19163Z" fill="#F5F5F5"/>
<path d="M395.408 115.903L396.908 117.408L398.411 115.903V117.178L396.908 118.684L395.408 117.178V115.903Z" fill="#F5F5F5"/>
<path d="M395.408 112.893L396.908 114.399L398.411 112.893V114.171L396.908 115.674L395.408 114.171V112.893Z" fill="#F5F5F5"/>
<path d="M395.408 109.884L396.908 111.388L398.411 109.884V111.161L396.908 112.665L395.408 111.161V109.884Z" fill="#F5F5F5"/>
<path d="M395.408 103.867L396.908 105.371L398.411 103.867V105.142L396.908 106.646L395.408 105.142V103.867Z" fill="#F5F5F5"/>
<path d="M294.028 58.7949L295.53 60.3007L297.031 58.7949V60.0704L295.53 61.5762L294.028 60.0704V58.7949Z" fill="#F5F5F5"/>
<path d="M294.028 55.7855L295.53 57.2892L297.031 55.7855V57.061L295.53 58.5668L294.028 57.061V55.7855Z" fill="#F5F5F5"/>
<path d="M294.028 52.7741L295.53 54.2798L297.031 52.7741V54.0516L295.53 55.5574L294.028 54.0516V52.7741Z" fill="#F5F5F5"/>
<path d="M294.028 46.7572L295.53 48.2609L297.031 46.7572V48.0327L295.53 49.5385L294.028 48.0327V46.7572Z" fill="#F5F5F5"/>
<path d="M196.184 85.2573L197.686 86.761L199.185 85.2573V86.5328L197.686 88.0365L196.184 86.5328V85.2573Z" fill="#F5F5F5"/>
<path d="M196.184 82.2479L197.686 83.7516L199.185 82.2479V83.5234L197.686 85.0271L196.184 83.5234V82.2479Z" fill="#F5F5F5"/>
<path d="M197.686 80.996L199.008 79.6706V80.4396L197.686 81.7658L196.364 80.4396V79.6706L197.686 80.996ZM197.686 82.2722L199.365 80.5882V78.8042L197.686 80.4896L196.005 78.8042V80.5882L197.686 82.2722Z" fill="#F5F5F5"/>
<path d="M196.184 73.2196L197.686 74.7233L199.185 73.2196V74.4971L197.686 76.0009L196.184 74.4971V73.2196Z" fill="#F5F5F5"/>
<path d="M208.112 120.315C210.679 120.315 212.766 118.2 212.766 115.6C212.766 113.065 210.777 110.995 208.294 110.897V112.554C209.877 112.652 211.132 113.977 211.132 115.6C211.132 117.289 209.78 118.658 208.112 118.658C206.443 118.658 205.09 117.289 205.09 115.6C205.09 113.972 206.35 112.645 207.937 112.553V110.897C205.452 110.991 203.455 113.061 203.455 115.6C203.455 118.2 205.543 120.315 208.112 120.315ZM208.112 120.822C205.265 120.822 202.949 118.48 202.949 115.6C202.949 112.781 205.172 110.484 207.937 110.389V39.8708L199.892 31.8074V11.8285C199.236 11.74 198.727 11.1823 198.727 10.501C198.727 9.75625 199.329 9.15125 200.07 9.15125C200.813 9.15125 201.414 9.75625 201.414 10.501C201.414 11.1823 200.908 11.74 200.249 11.8285V31.6582L208.294 39.7223V110.39C211.056 110.489 213.273 112.785 213.273 115.6C213.273 118.48 210.956 120.822 208.112 120.822Z" fill="#F5F5F5"/>
<path d="M131.275 122.049C133.136 122.049 134.65 120.516 134.65 118.632C134.65 116.793 133.208 115.292 131.408 115.22V116.423C132.556 116.492 133.465 117.453 133.465 118.632C133.465 119.856 132.485 120.848 131.275 120.848C130.066 120.848 129.085 119.856 129.085 118.632C129.085 117.45 129.998 116.489 131.149 116.421V115.22C129.347 115.288 127.899 116.789 127.899 118.632C127.899 120.516 129.414 122.049 131.275 122.049ZM131.275 122.417C129.212 122.417 127.532 120.719 127.532 118.632C127.532 116.587 129.145 114.921 131.149 114.853V63.7213L125.316 57.8753V43.3886C124.839 43.3245 124.471 42.9213 124.471 42.4257C124.471 41.8862 124.908 41.4474 125.445 41.4474C125.984 41.4474 126.419 41.8862 126.419 42.4257C126.419 42.9213 126.052 43.3245 125.575 43.3886V57.768L131.408 63.614V114.853C133.41 114.924 135.018 116.591 135.018 118.632C135.018 120.719 133.338 122.417 131.275 122.417Z" fill="#F5F5F5"/>
<path d="M245.624 101.113C247.486 101.113 249 99.58 249 97.6962C249 95.8569 247.558 94.3566 245.759 94.2837V95.4869C246.905 95.5558 247.815 96.5173 247.815 97.6962C247.815 98.9197 246.834 99.9122 245.624 99.9122C244.416 99.9122 243.435 98.9197 243.435 97.6962C243.435 96.5139 244.349 95.551 245.498 95.4849V94.2837C243.697 94.3512 242.249 95.8535 242.249 97.6962C242.249 99.58 243.762 101.113 245.624 101.113ZM245.624 101.481C243.562 101.481 241.882 99.7826 241.882 97.6962C241.882 95.651 243.494 93.9845 245.498 93.9157V42.785L239.667 36.9377V22.4523C239.189 22.3881 238.82 21.9857 238.82 21.4894C238.82 20.9499 239.258 20.511 239.796 20.511C240.334 20.511 240.77 20.9499 240.77 21.4894C240.77 21.9857 240.401 22.3881 239.925 22.4523V36.8303L245.759 42.6777V93.917C247.76 93.9879 249.368 95.6543 249.368 97.6962C249.368 99.7826 247.687 101.481 245.624 101.481Z" fill="#F5F5F5"/>
<mask id="mask13_374_49324" style="mask-type:luminance" maskUnits="userSpaceOnUse" x="142" y="0" width="16" height="104">
<path d="M142.39 103.022H157.043V0.245784H142.39V103.022Z" fill="white"/>
</mask>
<g mask="url(#mask13_374_49324)">
<path d="M151.842 102.469C154.41 102.469 156.497 100.355 156.497 97.7564C156.497 95.2189 154.508 93.15 152.025 93.0515V94.7091C153.608 94.8057 154.862 96.1318 154.862 97.7564C154.862 99.4437 153.511 100.812 151.842 100.812C150.174 100.812 148.821 99.4437 148.821 97.7564C148.821 96.1264 150.081 94.7989 151.668 94.7071V93.0515C149.182 93.1446 147.186 95.2155 147.186 97.7564C147.186 100.355 149.275 102.469 151.842 102.469ZM151.842 102.976C148.996 102.976 146.68 100.635 146.68 97.7564C146.68 94.9373 148.904 92.6382 151.668 92.543V22.0256L143.623 13.9615V-6.01675C142.966 -6.10521 142.458 -6.66158 142.458 -7.34422C142.458 -8.08966 143.06 -8.69465 143.801 -8.69465C144.544 -8.69465 145.145 -8.08966 145.145 -7.34422C145.145 -6.66158 144.638 -6.10521 143.981 -6.01675V13.813L152.025 21.8764V92.545C154.787 92.6436 157.004 94.9387 157.004 97.7564C157.004 100.635 154.688 102.976 151.842 102.976Z" fill="#F5F5F5"/>
</g>
<mask id="mask14_374_49324" style="mask-type:luminance" maskUnits="userSpaceOnUse" x="177" y="0" width="12" height="82">
<path d="M177.729 81.9332H188.244V0.245726H177.729V81.9332Z" fill="white"/>
</mask>
<g mask="url(#mask14_374_49324)">
<path d="M178.141 -32.2551V-3.08714L184.595 3.38074C184.923 3.21869 185.292 3.12551 185.683 3.12551C187.032 3.12551 188.131 4.21733 188.131 5.55899C188.131 6.72778 187.296 7.70752 186.188 7.93912V79.757H188.18L186.009 81.9332L183.836 79.757H185.829V7.98571C185.781 7.98773 185.731 7.99246 185.683 7.99246C184.331 7.99246 183.232 6.90064 183.232 5.55899C183.232 4.73792 183.646 4.00869 184.276 3.56913L177.784 -2.93859V-32.2551" fill="#F5F5F5"/>
</g>
<path d="M210.698 4.16726V9.29765H205.579V4.16726H210.698ZM210.968 9.56909V3.89581H205.308V9.56909H210.968Z" fill="#F5F5F5"/>
<path d="M209.865 10.3024V12.6596H207.515V10.3024H209.865ZM209.989 12.7845V10.1795H207.391V12.7845H209.989Z" fill="#F5F5F5"/>
<path d="M209.865 13.4374V15.7953H207.515V13.4374H209.865ZM209.989 15.9182V13.3132H207.391V15.9182H209.989Z" fill="#F5F5F5"/>
<path d="M209.865 16.573V18.9309H207.515V16.573H209.865ZM209.989 19.0538V16.4488H207.391V19.0538H209.989Z" fill="#F5F5F5"/>
<mask id="mask15_374_49324" style="mask-type:luminance" maskUnits="userSpaceOnUse" x="216" y="0" width="12" height="99">
<path d="M216.688 98.3545H227.376V0.245739H216.688V98.3545Z" fill="white"/>
</mask>
<g mask="url(#mask15_374_49324)">
<path d="M217.187 -15.9749V13.1944L223.64 19.6603C223.969 19.4982 224.338 19.4051 224.728 19.4051C226.079 19.4051 227.178 20.4969 227.178 21.8385C227.178 23.0073 226.343 23.9871 225.234 24.2187V96.0366H227.226L225.055 98.2128L222.882 96.0366H224.876V24.2653C224.826 24.2673 224.778 24.2727 224.728 24.2727C223.376 24.2727 222.278 23.1802 222.278 21.8385C222.278 21.0175 222.692 20.2882 223.323 19.8487L216.831 13.341V-15.9749" fill="#F5F5F5"/>
</g>
<path d="M137.408 47.4108V52.5425H132.289V47.4108H137.408ZM137.677 52.8126V47.1407H132.019V52.8126H137.677Z" fill="#F5F5F5"/>
<path d="M136.575 53.5472V55.9051H134.225V53.5472H136.575ZM136.699 56.0293V53.4222H134.101V56.0293H136.699Z" fill="#F5F5F5"/>
<path d="M136.575 56.6828V59.0401H134.225V56.6828H136.575ZM136.699 59.163V56.5579H134.101V59.163H136.699Z" fill="#F5F5F5"/>
<path d="M136.575 59.8166V62.1758H134.225V59.8166H136.575ZM136.699 62.2987V59.6937H134.101V62.2987H136.699Z" fill="#F5F5F5"/>
<mask id="mask16_374_49324" style="mask-type:luminance" maskUnits="userSpaceOnUse" x="156" y="0" width="28" height="101">
<path d="M156.87 100.429H183.073V0.245706H156.87V100.429Z" fill="white"/>
</mask>
<g mask="url(#mask16_374_49324)">
<path d="M178.637 100.294L182.981 95.9413H178.816V15.2754L166.821 3.25315L177.206 -7.15596V-77.8105H176.849V-7.30518L166.569 2.99927L157.361 -6.22956V-76.2588H157.004V-6.08102L166.316 3.25315L161.025 8.55427V77.1764H161.383V8.70349L166.569 3.50569L178.458 15.4239V95.9413H174.293L178.637 100.294Z" fill="#F5F5F5"/>
</g>
<mask id="mask17_374_49324" style="mask-type:luminance" maskUnits="userSpaceOnUse" x="275" y="0" width="17" height="132">
<path d="M275.299 131.888H291.158V0.245815H275.299V131.888Z" fill="white"/>
</mask>
<g mask="url(#mask17_374_49324)">
<path d="M288.712 127.155V127.93C289.455 127.984 290.044 128.593 290.044 129.344C290.044 130.13 289.401 130.768 288.61 130.768C287.819 130.768 287.176 130.13 287.176 129.344C287.176 128.645 287.685 128.065 288.354 127.946V127.166C287.255 127.292 286.399 128.22 286.399 129.344C286.399 130.554 287.391 131.539 288.61 131.539C289.831 131.539 290.822 130.554 290.822 129.344C290.822 128.167 289.884 127.207 288.712 127.155ZM280.979 9.20797V-45.0509H281.336V9.35652L275.704 15.002V73.1853L288.712 86.2216V126.916C290.015 126.969 291.06 128.036 291.06 129.344C291.06 130.685 289.96 131.778 288.61 131.778C287.261 131.778 286.161 130.685 286.161 129.344C286.161 128.087 287.123 127.052 288.354 126.925V86.3709L275.347 73.3338V14.8534L280.979 9.20797Z" fill="#F5F5F5"/>
</g>
<path d="M159.557 83.0237L161.058 84.5294L162.56 83.0237V84.2998L161.058 85.8049L159.557 84.2998V83.0237Z" fill="#F5F5F5"/>
<path d="M159.557 80.0163L161.058 81.5187L162.56 80.0163V81.2904L161.058 82.7955L159.557 81.2904V80.0163Z" fill="#F5F5F5"/>
<path d="M159.557 77.0049L161.058 78.5106L162.56 77.0049V78.281L161.058 79.7861L159.557 78.281V77.0049Z" fill="#F5F5F5"/>
<mask id="mask18_374_49324" style="mask-type:luminance" maskUnits="userSpaceOnUse" x="123" y="0" width="23" height="113">
<path d="M123.772 112.529H145.838V0.245715H123.772V112.529Z" fill="white"/>
</mask>
<g mask="url(#mask18_374_49324)">
<path d="M143.64 112.385L145.813 110.208H143.819V-0.590919L124.24 -20.2154V-106.282H123.883V-20.0668L143.461 -0.442372V110.208H141.469L143.64 112.385Z" fill="#F5F5F5"/>
</g>
<mask id="mask19_374_49324" style="mask-type:luminance" maskUnits="userSpaceOnUse" x="249" y="0" width="27" height="114">
<path d="M249.269 113.911H275.471V0.24581H249.269V113.911Z" fill="white"/>
</mask>
<g mask="url(#mask19_374_49324)">
<path d="M253.713 113.891L249.368 109.538H253.533V28.8723L265.528 16.8501L255.143 6.44096V-64.2135H255.5V6.29174L265.781 16.5962L274.988 7.36736V-62.6619H275.347V7.51591L266.035 16.8501L271.325 22.1512V90.7746H270.968V22.3004L265.781 17.1026L253.892 29.0208V109.538H258.057L253.713 113.891Z" fill="#F5F5F5"/>
</g>
<path d="M272.763 103.604L271.263 105.108L269.762 103.604V104.88L271.263 106.385L272.763 104.88V103.604Z" fill="#F5F5F5"/>
<path d="M272.763 100.595L271.263 102.099L269.762 100.595V101.872L271.263 103.376L272.763 101.872V100.595Z" fill="#F5F5F5"/>
<path d="M272.584 98.0175V98.7886L271.263 100.113L269.941 98.7886V98.0175L271.263 99.343L272.584 98.0175ZM272.942 98.9371V97.1532L271.263 98.8365L269.583 97.1532V98.9371L271.263 100.619L272.942 98.9371Z" fill="#F5F5F5"/>
<path d="M272.763 91.5679L271.263 93.0723L269.762 91.5679V92.844L271.263 94.3478L272.763 92.844V91.5679Z" fill="#F5F5F5"/>
<mask id="mask20_374_49324" style="mask-type:luminance" maskUnits="userSpaceOnUse" x="228" y="0" width="23" height="94">
<path d="M228.582 93.8604H250.303V0.245846H228.582V93.8604Z" fill="white"/>
</mask>
<g mask="url(#mask20_374_49324)">
<path d="M230.804 93.855L228.632 91.6788H230.627V77.6532L241.141 67.1144C241.034 66.9679 240.966 66.7843 240.966 66.5857C240.966 66.0915 241.366 65.6904 241.859 65.6904C241.871 65.6904 241.88 65.6938 241.89 65.6938V24.9675L249.936 16.9021V-10.2969H250.296V17.052L242.249 25.1161V65.7836C242.547 65.9288 242.754 66.2313 242.754 66.5857C242.754 67.0814 242.354 67.4824 241.859 67.4824C241.693 67.4824 241.541 67.4345 241.406 67.3548L230.983 77.8024V91.6788H232.976L230.804 93.855Z" fill="#F5F5F5"/>
</g>
<mask id="mask21_374_49324" style="mask-type:luminance" maskUnits="userSpaceOnUse" x="6" y="0" width="10" height="59">
<path d="M6.03345 58.9436H15.687V0.24581H6.03345V58.9436Z" fill="white"/>
</mask>
<g mask="url(#mask21_374_49324)">
<path d="M6.57286 -1.41181H6.08398V34.3793L15.1005 43.4164V58.8761H15.5894V43.2138L6.57286 34.1767V-1.41181Z" fill="#F5F5F5"/>
</g>
<path d="M17.1833 58.7727C17.1833 59.7889 16.3604 60.6134 15.345 60.6134C14.3302 60.6134 13.5073 59.7889 13.5073 58.7727C13.5073 57.7545 14.3302 56.93 15.345 56.93C16.3604 56.93 17.1833 57.7545 17.1833 58.7727Z" fill="#F5F5F5"/>
<path d="M13.7517 58.7726C13.7517 57.8908 14.4661 57.175 15.3449 57.175C16.2237 57.175 16.9388 57.8908 16.9388 58.7726C16.9388 59.6524 16.2237 60.3695 15.3449 60.3695C14.4661 60.3695 13.7517 59.6524 13.7517 58.7726C13.7517 57.8908 13.7517 59.6524 13.7517 58.7726ZM17.4277 58.7726C17.4277 57.6213 16.493 56.6841 15.3449 56.6841C14.1975 56.6841 13.2628 57.6213 13.2628 58.7726C13.2628 59.9219 14.1975 60.8584 15.3449 60.8584C16.493 60.8584 17.4277 59.9219 17.4277 58.7726C17.4277 57.6213 17.4277 59.9219 17.4277 58.7726Z" fill="#F5F5F5"/>
<mask id="mask22_374_49324" style="mask-type:luminance" maskUnits="userSpaceOnUse" x="61" y="0" width="1" height="20">
<path d="M61.0243 19.8783H61.7138V0.245747H61.0243V19.8783Z" fill="white"/>
</mask>
<g mask="url(#mask22_374_49324)">
<path d="M61.5664 -1.41186H61.0775V19.8372H61.5664V-1.41186Z" fill="#F5F5F5"/>
</g>
<path d="M63.1596 19.731C63.1596 20.7493 62.3367 21.5737 61.3219 21.5737C60.3071 21.5737 59.4843 20.7493 59.4843 19.731C59.4843 18.7148 60.3071 17.8904 61.3219 17.8904C62.3367 17.8904 63.1596 18.7148 63.1596 19.731Z" fill="#F5F5F5"/>
<path d="M59.7286 19.7311C59.7286 18.8513 60.4431 18.1342 61.3218 18.1342C62.2006 18.1342 62.915 18.8513 62.915 19.7311C62.915 20.6129 62.2006 21.3287 61.3218 21.3287C60.4431 21.3287 59.7286 20.6129 59.7286 19.7311C59.7286 18.8513 59.7286 20.6129 59.7286 19.7311ZM63.4039 19.7311C63.4039 18.5819 62.4699 17.6446 61.3218 17.6446C60.1737 17.6446 59.2397 18.5819 59.2397 19.7311C59.2397 20.8824 60.1737 21.8196 61.3218 21.8196C62.4699 21.8196 63.4039 20.8824 63.4039 19.7311C63.4039 18.5819 63.4039 20.8824 63.4039 19.7311Z" fill="#F5F5F5"/>
<mask id="mask23_374_49324" style="mask-type:luminance" maskUnits="userSpaceOnUse" x="127" y="0" width="9" height="32">
<path d="M127.91 31.8053H135.839V0.24575H127.91V31.8053Z" fill="white"/>
</mask>
<g mask="url(#mask23_374_49324)">
<path d="M135.749 -4.51656H135.26V24.0835L127.998 31.363L128.343 31.7101L135.749 24.2881V-4.51656Z" fill="#F5F5F5"/>
</g>
<path d="M129.544 32.7649C128.826 33.484 127.662 33.484 126.945 32.7649C126.227 32.0457 126.227 30.8803 126.945 30.1598C127.662 29.4407 128.826 29.4407 129.544 30.1598C130.262 30.8789 130.262 32.0457 129.544 32.7649Z" fill="#F5F5F5"/>
<path d="M127.118 30.3326C127.739 29.71 128.749 29.71 129.371 30.3326C129.992 30.9565 129.992 31.9693 129.371 32.5919C128.749 33.2158 127.739 33.2158 127.118 32.5919C126.496 31.9693 126.496 30.9565 127.118 30.3326C127.739 29.71 126.496 30.9565 127.118 30.3326ZM129.717 32.939C130.528 32.1253 130.528 30.8012 129.716 29.9869C128.905 29.1746 127.584 29.1746 126.772 29.9869C125.96 30.8012 125.96 32.1253 126.772 32.939C127.584 33.752 128.905 33.752 129.717 32.939C130.528 32.1253 128.905 33.752 129.717 32.939Z" fill="#F5F5F5"/>
<mask id="mask24_374_49324" style="mask-type:luminance" maskUnits="userSpaceOnUse" x="166" y="0" width="10" height="53">
<path d="M166.179 52.7208H175.488V0.245822H166.179V52.7208Z" fill="white"/>
</mask>
<g mask="url(#mask24_374_49324)">
<path d="M166.761 -0.734662H166.272V24.4225L174.833 33.0018V45.2036L167.846 52.2056L168.192 52.5513L175.321 45.4055V32.7992L166.761 24.2186V-0.734662Z" fill="#F5F5F5"/>
</g>
<path d="M169.392 53.6073C168.675 54.3264 167.511 54.3264 166.793 53.6073C166.075 52.8881 166.075 51.7213 166.793 51.0022C167.51 50.2831 168.675 50.2831 169.392 51.0022C170.11 51.7213 170.11 52.8881 169.392 53.6073Z" fill="#F5F5F5"/>
<path d="M166.966 51.1752C167.587 50.5533 168.598 50.5533 169.219 51.1752C169.841 51.7998 169.841 52.8106 169.219 53.4345C168.598 54.0571 167.587 54.0571 166.966 53.4345C166.345 52.8106 166.345 51.7998 166.966 51.1752C167.587 50.5533 166.345 51.7998 166.966 51.1752ZM169.565 53.7802C170.377 52.9666 170.377 51.6438 169.565 50.8295C168.753 50.0158 167.432 50.0158 166.62 50.8295C165.809 51.6438 165.809 52.9666 166.62 53.7802C167.432 54.5946 168.753 54.5946 169.565 53.7802C170.377 52.9666 168.753 54.5946 169.565 53.7802Z" fill="#F5F5F5"/>
<mask id="mask25_374_49324" style="mask-type:luminance" maskUnits="userSpaceOnUse" x="228" y="0" width="8" height="35">
<path d="M228.927 34.0525H235.995V0.245835H228.927V34.0525Z" fill="white"/>
</mask>
<g mask="url(#mask25_374_49324)">
<path d="M229.415 -1.41155H228.927V27.3324L235.585 34.0042L235.93 33.6584L229.415 27.1284V-1.41155Z" fill="#F5F5F5"/>
</g>
<path d="M236.983 32.4554C237.701 33.1745 237.701 34.3413 236.983 35.0598C236.266 35.7789 235.102 35.7789 234.385 35.0598C233.666 34.3413 233.666 33.1745 234.385 32.4554C235.102 31.7363 236.266 31.7363 236.983 32.4554Z" fill="#F5F5F5"/>
<path d="M234.557 34.887C233.936 34.2631 233.936 33.2503 234.557 32.6284C235.178 32.0058 236.19 32.0058 236.81 32.6284C237.433 33.2503 237.433 34.2631 236.81 34.887C236.19 35.5096 235.178 35.5096 234.557 34.887C235.178 35.5096 233.936 34.2631 234.557 34.887ZM237.156 32.2827C236.345 31.4684 235.023 31.4684 234.21 32.2827C233.4 33.095 233.4 34.4191 234.21 35.2328C235.023 36.0471 236.345 36.0471 237.156 35.2328C237.969 34.4191 237.969 33.095 237.156 32.2827C237.969 33.095 236.345 31.4684 237.156 32.2827Z" fill="#F5F5F5"/>
<path d="M265.968 50.232H265.478V65.4966L258.021 72.9705V85.1879H258.509V73.1744L265.968 65.6985V50.232Z" fill="#F5F5F5"/>
<path d="M267.56 50.3231C267.56 49.3068 266.738 48.4824 265.723 48.4824C264.707 48.4824 263.885 49.3068 263.885 50.3231C263.885 51.3413 264.707 52.1658 265.723 52.1658C266.738 52.1658 267.56 51.3413 267.56 50.3231Z" fill="#F5F5F5"/>
<path d="M260.103 85.0844C260.103 86.1006 259.279 86.9271 258.264 86.9271C257.25 86.9271 256.426 86.1006 256.426 85.0844C256.426 84.0682 257.25 83.2417 258.264 83.2417C259.279 83.2417 260.103 84.0682 260.103 85.0844Z" fill="#F5F5F5"/>
<path d="M256.671 85.0844C256.671 84.2026 257.386 83.4868 258.264 83.4868C259.143 83.4868 259.858 84.2026 259.858 85.0844C259.858 85.9656 259.143 86.6814 258.264 86.6814C257.386 86.6814 256.671 85.9656 256.671 85.0844C256.671 84.2026 256.671 85.9656 256.671 85.0844ZM260.346 85.0844C260.346 83.9332 259.412 82.998 258.264 82.998C257.118 82.998 256.183 83.9332 256.183 85.0844C256.183 86.2357 257.118 87.1709 258.264 87.1709C259.412 87.1709 260.346 86.2357 260.346 85.0844C260.346 83.9332 260.346 86.2357 260.346 85.0844Z" fill="#F5F5F5"/>
<mask id="mask26_374_49324" style="mask-type:luminance" maskUnits="userSpaceOnUse" x="284" y="0" width="9" height="30">
<path d="M284.608 29.5582H292.71V0.245797H284.608V29.5582Z" fill="white"/>
</mask>
<g mask="url(#mask26_374_49324)">
<path d="M285.209 -1.82169H284.719V21.9196L292.249 29.4664L292.596 29.1207L285.209 21.7177V-1.82169Z" fill="#F5F5F5"/>
</g>
<path d="M293.648 27.9181C294.366 28.6372 294.366 29.804 293.648 30.5224C292.931 31.2415 291.767 31.2415 291.05 30.5224C290.333 29.804 290.333 28.6372 291.05 27.9181C291.767 27.1989 292.931 27.1989 293.648 27.9181Z" fill="#F5F5F5"/>
<path d="M291.222 30.3496C290.601 29.7257 290.601 28.7128 291.222 28.0909C291.844 27.4684 292.854 27.4684 293.475 28.0909C294.097 28.7128 294.097 29.7257 293.475 30.3496C292.854 30.9721 291.844 30.9721 291.222 30.3496C291.844 30.9721 290.601 29.7257 291.222 30.3496ZM293.821 27.7452C293.009 26.9309 291.689 26.9309 290.877 27.7452C290.065 28.5575 290.065 29.8816 290.877 30.6953C291.689 31.5096 293.009 31.5096 293.821 30.6953C294.633 29.8816 294.633 28.5575 293.821 27.7452C294.633 28.5575 293.009 26.9309 293.821 27.7452Z" fill="#F5F5F5"/>
<mask id="mask27_374_49324" style="mask-type:luminance" maskUnits="userSpaceOnUse" x="317" y="0" width="1" height="66">
<path d="M317.188 65.1664H317.878V0.245818H317.188V65.1664Z" fill="white"/>
</mask>
<g mask="url(#mask27_374_49324)">
<path d="M317.8 -4.51648H317.311V65.028H317.8V-4.51648Z" fill="#F5F5F5"/>
</g>
<path d="M319.393 64.9226C319.393 65.9408 318.571 66.7653 317.555 66.7653C316.54 66.7653 315.718 65.9408 315.718 64.9226C315.718 63.9063 316.54 63.0819 317.555 63.0819C318.571 63.0819 319.393 63.9063 319.393 64.9226Z" fill="#F5F5F5"/>
<path d="M315.963 64.9226C315.963 64.0428 316.676 63.3271 317.555 63.3271C318.435 63.3271 319.148 64.0428 319.148 64.9226C319.148 65.8045 318.435 66.5195 317.555 66.5195C316.676 66.5195 315.963 65.8045 315.963 64.9226C315.963 64.0428 315.963 65.8045 315.963 64.9226ZM319.638 64.9226C319.638 63.7734 318.703 62.8362 317.555 62.8362C316.407 62.8362 315.473 63.7734 315.473 64.9226C315.473 66.0739 316.407 67.0111 317.555 67.0111C318.703 67.0111 319.638 66.0739 319.638 64.9226C319.638 63.7734 319.638 66.0739 319.638 64.9226Z" fill="#F5F5F5"/>
<mask id="mask28_374_49324" style="mask-type:luminance" maskUnits="userSpaceOnUse" x="346" y="0" width="9" height="50">
<path d="M346.149 49.2637H354.423V0.245774H346.149V49.2637Z" fill="white"/>
</mask>
<g mask="url(#mask28_374_49324)">
<path d="M346.707 -4.27144H346.218V14.8081L353.829 22.4367V43.3623L348.435 48.7694L348.78 49.1151L354.318 43.5648V22.2341L346.707 14.6062V-4.27144Z" fill="#F5F5F5"/>
</g>
<path d="M349.981 50.1712C349.262 50.8904 348.098 50.8904 347.381 50.1712C346.664 49.4521 346.664 48.2853 347.381 47.5662C348.098 46.8471 349.262 46.8471 349.981 47.5662C350.698 48.2853 350.698 49.4521 349.981 50.1712Z" fill="#F5F5F5"/>
<path d="M347.554 47.7389C348.177 47.1164 349.187 47.1164 349.807 47.7389C350.429 48.3615 350.429 49.3743 349.807 49.9982C349.187 50.6208 348.177 50.6208 347.554 49.9982C346.933 49.3743 346.933 48.3615 347.554 47.7389C348.177 47.1164 346.933 48.3615 347.554 47.7389ZM350.154 50.344C350.966 49.5296 350.966 48.2055 350.154 47.3932C349.341 46.5789 348.021 46.5789 347.209 47.3932C346.397 48.2055 346.397 49.5296 347.209 50.344C348.021 51.1583 349.341 51.1583 350.154 50.344C350.966 49.5296 349.341 51.1583 350.154 50.344Z" fill="#F5F5F5"/>
<mask id="mask29_374_49324" style="mask-type:luminance" maskUnits="userSpaceOnUse" x="396" y="0" width="11" height="60">
<path d="M396.313 59.4622H406.484V0.24581H396.313V59.4622Z" fill="white"/>
</mask>
<g mask="url(#mask29_374_49324)">
<path d="M396.833 -3.04569H396.344V19.9184L405.875 29.4686V50.7541L397.554 59.0923L397.898 59.4401L406.363 50.956V29.2661L396.833 19.7158V-3.04569Z" fill="#F5F5F5"/>
</g>
<path d="M399.101 60.4939C398.382 61.213 397.218 61.213 396.501 60.4939C395.784 59.7747 395.784 58.61 396.501 57.8888C397.218 57.1697 398.382 57.1697 399.101 57.8888C399.817 58.61 399.817 59.7747 399.101 60.4939Z" fill="#F5F5F5"/>
<path d="M396.673 58.0617C397.296 57.4398 398.306 57.4398 398.926 58.0617C399.549 58.6863 399.549 59.6991 398.926 60.321C398.306 60.9436 397.296 60.9436 396.673 60.321C396.052 59.6991 396.052 58.6863 396.673 58.0617C397.296 57.4398 396.052 58.6863 396.673 58.0617ZM399.273 60.6667C400.085 59.8544 400.085 58.5303 399.273 57.716C398.461 56.9023 397.141 56.9023 396.329 57.716C395.516 58.5303 395.516 59.8544 396.329 60.6667C397.141 61.481 398.461 61.481 399.273 60.6667C400.085 59.8544 398.461 61.481 399.273 60.6667Z" fill="#F5F5F5"/>
<path d="M366.201 129.381H365.713V140.753L370.277 145.329L370.624 144.983L366.201 140.55V129.381Z" fill="#F5F5F5"/>
<path d="M367.795 129.472C367.795 128.455 366.971 127.63 365.958 127.63C364.942 127.63 364.118 128.455 364.118 129.472C364.118 130.489 364.942 131.314 365.958 131.314C366.971 131.314 367.795 130.489 367.795 129.472Z" fill="#F5F5F5"/>
<path d="M371.677 143.779C372.395 144.499 372.395 145.665 371.677 146.384C370.959 147.104 369.795 147.104 369.078 146.384C368.361 145.665 368.361 144.499 369.078 143.779C369.795 143.06 370.959 143.06 371.677 143.779Z" fill="#F5F5F5"/>
<path d="M369.251 146.211C368.63 145.589 368.63 144.575 369.251 143.952C369.873 143.329 370.883 143.329 371.503 143.952C372.126 144.575 372.126 145.589 371.503 146.211C370.883 146.834 369.873 146.834 369.251 146.211C369.873 146.834 368.63 145.589 369.251 146.211ZM371.85 143.606C371.038 142.792 369.717 142.792 368.906 143.606C368.094 144.42 368.094 145.744 368.906 146.557C369.717 147.371 371.038 147.371 371.85 146.557C372.662 145.744 372.662 144.42 371.85 143.606C372.662 144.42 371.038 142.792 371.85 143.606Z" fill="#F5F5F5"/>
<path d="M169.132 71.2459H168.643V82.6179L173.209 87.1952L173.554 86.8495L169.132 82.4153V71.2459Z" fill="#F5F5F5"/>
<path d="M170.725 71.3391C170.725 70.3209 169.902 69.4964 168.887 69.4964C167.873 69.4964 167.05 70.3209 167.05 71.3391C167.05 72.3554 167.873 73.1798 168.887 73.1798C169.902 73.1798 170.725 72.3554 170.725 71.3391Z" fill="#F5F5F5"/>
<path d="M174.607 85.6442C175.324 86.3653 175.324 87.5301 174.607 88.2492C173.89 88.9684 172.726 88.9684 172.008 88.2492C171.291 87.5301 171.291 86.3653 172.008 85.6442C172.726 84.9251 173.89 84.9251 174.607 85.6442Z" fill="#F5F5F5"/>
<path d="M172.181 88.0764C171.559 87.4545 171.559 86.4409 172.181 85.8191C172.802 85.1952 173.813 85.1952 174.435 85.8191C175.055 86.4409 175.055 87.4545 174.435 88.0764C173.813 88.7003 172.802 88.7003 172.181 88.0764C172.802 88.7003 171.559 87.4545 172.181 88.0764ZM174.78 85.4713C173.967 84.659 172.647 84.659 171.836 85.4713C171.023 86.2856 171.023 87.6098 171.836 88.4241C172.647 89.2364 173.967 89.2364 174.78 88.4241C175.592 87.6098 175.592 86.2856 174.78 85.4713C175.592 86.2856 173.967 84.659 174.78 85.4713Z" fill="#F5F5F5"/>
<mask id="mask30_374_49324" style="mask-type:luminance" maskUnits="userSpaceOnUse" x="17" y="0" width="7" height="23">
<path d="M17.4109 22.8169H23.0996V0.24581H17.4109V22.8169Z" fill="white"/>
</mask>
<g mask="url(#mask30_374_49324)">
<path d="M18.0035 -2.22949H17.5153V17.5172L22.7528 22.767L23.0982 22.4213L18.0035 17.3153V-2.22949Z" fill="#F5F5F5"/>
</g>
<path d="M24.1602 21.2267C24.878 21.9458 24.878 23.1126 24.1602 23.8318C23.4424 24.5509 22.2788 24.5509 21.5609 23.8318C20.8431 23.1126 20.8431 21.9458 21.5609 21.2267C22.2788 20.5076 23.4424 20.5076 24.1602 21.2267Z" fill="#F5F5F5"/>
<path d="M37.2251 129.86H36.7362V140.753L42.3071 146.337L42.6525 145.99L37.2251 140.55V129.86Z" fill="#F5F5F5"/>
<path d="M38.8183 129.952C38.8183 128.935 37.9954 128.11 36.9807 128.11C35.9659 128.11 35.1423 128.935 35.1423 129.952C35.1423 130.969 35.9659 131.794 36.9807 131.794C37.9954 131.794 38.8183 130.969 38.8183 129.952Z" fill="#F5F5F5"/>
<path d="M43.7057 144.787C44.4235 145.506 44.4235 146.672 43.7057 147.392C42.9879 148.111 41.8243 148.111 41.1065 147.392C40.3893 146.672 40.3893 145.506 41.1065 144.787C41.8243 144.068 42.9879 144.068 43.7057 144.787Z" fill="#F5F5F5"/>
<path d="M41.2795 147.218C40.658 146.596 40.658 145.583 41.2795 144.96C41.901 144.337 42.9111 144.337 43.5326 144.96C44.1542 145.583 44.1542 146.596 43.5326 147.218C42.9111 147.841 41.901 147.841 41.2795 147.218C41.901 147.841 40.658 146.596 41.2795 147.218ZM43.8781 144.613C43.0667 143.8 41.7455 143.8 40.9334 144.613C40.122 145.427 40.122 146.751 40.9334 147.565C41.7455 148.378 43.0667 148.378 43.8781 147.565C44.6902 146.751 44.6902 145.427 43.8781 144.613C44.6902 145.427 43.0667 143.8 43.8781 144.613Z" fill="#F5F5F5"/>
<path d="M124.181 89.0845H123.692V102.723L119.801 106.622L120.146 106.97L124.181 102.925V89.0845Z" fill="#F5F5F5"/>
<path d="M125.774 89.1776C125.774 88.1594 124.951 87.3349 123.937 87.3349C122.922 87.3349 122.099 88.1594 122.099 89.1776C122.099 90.1939 122.922 91.0183 123.937 91.0183C124.951 91.0183 125.774 90.1939 125.774 89.1776Z" fill="#F5F5F5"/>
<path d="M121.347 108.024C120.629 108.743 119.465 108.743 118.748 108.024C118.03 107.305 118.03 106.14 118.748 105.419C119.465 104.7 120.629 104.7 121.347 105.419C122.064 106.14 122.064 107.305 121.347 108.024Z" fill="#F5F5F5"/>
<path d="M118.92 105.593C119.542 104.97 120.552 104.97 121.174 105.593C121.795 106.216 121.795 107.229 121.174 107.851C120.552 108.475 119.542 108.475 118.92 107.851C118.299 107.229 118.299 106.216 118.92 105.593C119.542 104.97 118.299 106.216 118.92 105.593ZM121.519 108.199C122.331 107.384 122.331 106.06 121.519 105.246C120.708 104.434 119.387 104.434 118.575 105.246C117.763 106.06 117.763 107.384 118.575 108.199C119.387 109.011 120.708 109.011 121.519 108.199C122.331 107.384 120.708 109.011 121.519 108.199Z" fill="#F5F5F5"/>
<path d="M281.804 34.3914H281.315V68.8085L286.605 74.1096L286.95 73.7639L281.804 68.6059V34.3914Z" fill="#F5F5F5"/>
<path d="M283.397 34.4825C283.397 33.4663 282.575 32.6398 281.56 32.6398C280.544 32.6398 279.722 33.4663 279.722 34.4825C279.722 35.4994 280.544 36.3252 281.56 36.3252C282.575 36.3252 283.397 35.4994 283.397 34.4825Z" fill="#F5F5F5"/>
<path d="M288.003 72.5612C288.721 73.2803 288.721 74.4471 288.003 75.1662C287.286 75.8853 286.123 75.8853 285.404 75.1662C284.687 74.4471 284.687 73.2803 285.404 72.5612C286.123 71.8421 287.286 71.8421 288.003 72.5612Z" fill="#F5F5F5"/>
<path d="M285.578 74.9934C284.956 74.3688 284.956 73.356 285.578 72.7341C286.199 72.1115 287.209 72.1115 287.831 72.7341C288.452 73.356 288.452 74.3688 287.831 74.9934C287.209 75.6153 286.199 75.6153 285.578 74.9934C286.199 75.6153 284.956 74.3688 285.578 74.9934ZM288.176 72.3883C287.364 71.574 286.043 71.574 285.232 72.3883C284.42 73.2007 284.42 74.5248 285.232 75.3391C286.043 76.1528 287.364 76.1528 288.176 75.3391C288.988 74.5248 288.988 73.2007 288.176 72.3883C288.988 73.2007 287.364 71.574 288.176 72.3883Z" fill="#F5F5F5"/>
<path d="M232.196 49.215H231.708V64.9955H232.196V49.215Z" fill="#F5F5F5"/>
<path d="M233.79 49.3068C233.79 48.2906 232.966 47.4641 231.953 47.4641C230.937 47.4641 230.113 48.2906 230.113 49.3068C230.113 50.3231 230.937 51.1495 231.953 51.1495C232.966 51.1495 233.79 50.3231 233.79 49.3068Z" fill="#F5F5F5"/>
<path d="M233.79 64.8916C233.79 65.9078 232.966 66.7343 231.953 66.7343C230.937 66.7343 230.113 65.9078 230.113 64.8916C230.113 63.8733 230.937 63.0489 231.953 63.0489C232.966 63.0489 233.79 63.8733 233.79 64.8916Z" fill="#F5F5F5"/>
<path d="M230.358 64.8916C230.358 64.0097 231.073 63.2946 231.953 63.2946C232.83 63.2946 233.545 64.0097 233.545 64.8916C233.545 65.7714 232.83 66.4885 231.953 66.4885C231.073 66.4885 230.358 65.7714 230.358 64.8916C230.358 64.0097 230.358 65.7714 230.358 64.8916ZM234.033 64.8916C234.033 63.7403 233.099 62.8051 231.953 62.8051C230.805 62.8051 229.87 63.7403 229.87 64.8916C229.87 66.0428 230.805 66.978 231.953 66.978C233.099 66.978 234.033 66.0428 234.033 64.8916C234.033 63.7403 234.033 66.0428 234.033 64.8916Z" fill="#F5F5F5"/>
<mask id="mask31_374_49324" style="mask-type:luminance" maskUnits="userSpaceOnUse" x="386" y="0" width="2" height="22">
<path d="M386.487 21.2612H387.177V0.245843H386.487V21.2612Z" fill="white"/>
</mask>
<g mask="url(#mask31_374_49324)">
<path d="M387.041 -3.04585H386.552V21.2092H387.041V-3.04585Z" fill="#F5F5F5"/>
</g>
<path d="M388.633 21.1058C388.633 22.122 387.811 22.9485 386.796 22.9485C385.782 22.9485 384.958 22.122 384.958 21.1058C384.958 20.0875 385.782 19.2631 386.796 19.2631C387.811 19.2631 388.633 20.0875 388.633 21.1058Z" fill="#F5F5F5"/>
<path d="M385.203 21.1058C385.203 20.224 385.917 19.5082 386.795 19.5082C387.675 19.5082 388.39 20.224 388.39 21.1058C388.39 21.9856 387.675 22.7027 386.795 22.7027C385.917 22.7027 385.203 21.9856 385.203 21.1058C385.203 20.224 385.203 21.9856 385.203 21.1058ZM388.878 21.1058C388.878 19.9545 387.944 19.0193 386.795 19.0193C385.647 19.0193 384.713 19.9545 384.713 21.1058C384.713 22.2571 385.647 23.1923 386.795 23.1923C387.944 23.1923 388.878 22.2571 388.878 21.1058C388.878 19.9545 388.878 22.2571 388.878 21.1058Z" fill="#F5F5F5"/>
<path d="M312.508 84.9029H312.019V103.283L317.98 109.257L318.324 108.909L312.508 103.078V84.9029Z" fill="#F5F5F5"/>
<path d="M314.101 84.9947C314.101 83.9778 313.279 83.1533 312.263 83.1533C311.248 83.1533 310.426 83.9778 310.426 84.9947C310.426 86.0129 311.248 86.8374 312.263 86.8374C313.279 86.8374 314.101 86.0129 314.101 84.9947Z" fill="#F5F5F5"/>
<path d="M319.377 107.706C320.095 108.425 320.095 109.592 319.377 110.311C318.66 111.03 317.497 111.03 316.778 110.311C316.061 109.592 316.061 108.425 316.778 107.706C317.497 106.987 318.66 106.987 319.377 107.706Z" fill="#F5F5F5"/>
<path d="M316.952 110.138C316.33 109.516 316.33 108.503 316.952 107.879C317.573 107.256 318.583 107.256 319.205 107.879C319.826 108.503 319.826 109.516 319.205 110.138C318.583 110.76 317.573 110.76 316.952 110.138C317.573 110.76 316.33 109.516 316.952 110.138ZM319.55 107.533C318.738 106.719 317.417 106.719 316.606 107.533C315.794 108.347 315.794 109.671 316.606 110.484C317.417 111.298 318.738 111.298 319.55 110.484C320.362 109.671 320.362 108.347 319.55 107.533C320.362 108.347 318.738 106.719 319.55 107.533Z" fill="#F5F5F5"/>
<path d="M61.1811 93.7718H60.6923V122.506H61.1811V93.7718Z" fill="#F5F5F5"/>
<path d="M62.7751 93.8636C62.7751 92.8474 61.9522 92.0209 60.9368 92.0209C59.922 92.0209 59.0991 92.8474 59.0991 93.8636C59.0991 94.8798 59.922 95.7063 60.9368 95.7063C61.9522 95.7063 62.7751 94.8798 62.7751 93.8636Z" fill="#F5F5F5"/>
<path d="M62.7751 122.402C62.7751 123.419 61.9522 124.244 60.9368 124.244C59.922 124.244 59.0991 123.419 59.0991 122.402C59.0991 121.385 59.922 120.56 60.9368 120.56C61.9522 120.56 62.7751 121.385 62.7751 122.402Z" fill="#F5F5F5"/>
<path d="M59.3435 122.402C59.3435 121.521 60.0579 120.805 60.9367 120.805C61.8161 120.805 62.5306 121.521 62.5306 122.402C62.5306 123.283 61.8161 123.999 60.9367 123.999C60.0579 123.999 59.3435 123.283 59.3435 122.402C59.3435 121.521 59.3435 123.283 59.3435 122.402ZM63.0188 122.402C63.0188 121.252 62.0848 120.315 60.9367 120.315C59.7893 120.315 58.8546 121.252 58.8546 122.402C58.8546 123.553 59.7893 124.489 60.9367 124.489C62.0848 124.489 63.0188 123.553 63.0188 122.402C63.0188 121.252 63.0188 123.553 63.0188 122.402Z" fill="#F5F5F5"/>
<path d="M388.595 48.2489H388.106V66.2413H388.595V48.2489Z" fill="#F5F5F5"/>
<path d="M390.188 66.1501C390.188 67.1677 389.366 67.9928 388.35 67.9928C387.335 67.9928 386.513 67.1677 386.513 66.1501C386.513 65.1332 387.335 64.3087 388.35 64.3087C389.366 64.3087 390.188 65.1332 390.188 66.1501Z" fill="#F5F5F5"/>
<path d="M97.0345 89.4316H96.5457V113.077L102.541 119.087L102.887 118.739L97.0345 112.874V89.4316Z" fill="#F5F5F5"/>
<path d="M98.6277 89.5234C98.6277 88.5072 97.8048 87.6807 96.79 87.6807C95.7753 87.6807 94.9524 88.5072 94.9524 89.5234C94.9524 90.5396 95.7753 91.3661 96.79 91.3661C97.8048 91.3661 98.6277 90.5396 98.6277 89.5234Z" fill="#F5F5F5"/>
<path d="M103.94 117.536C104.657 118.255 104.657 119.423 103.94 120.142C103.222 120.861 102.059 120.861 101.341 120.142C100.624 119.423 100.624 118.255 101.341 117.536C102.059 116.817 103.222 116.817 103.94 117.536Z" fill="#F5F5F5"/>
<path d="M101.514 119.968C100.892 119.345 100.892 118.333 101.514 117.709C102.135 117.087 103.145 117.087 103.767 117.709C104.389 118.333 104.389 119.345 103.767 119.968C103.145 120.591 102.135 120.591 101.514 119.968C102.135 120.591 100.892 119.345 101.514 119.968ZM104.112 117.363C103.301 116.549 101.98 116.549 101.168 117.363C100.356 118.177 100.356 119.501 101.168 120.314C101.98 121.128 103.301 121.128 104.112 120.314C104.925 119.501 104.925 118.177 104.112 117.363C104.925 118.177 103.301 116.549 104.112 117.363Z" fill="#F5F5F5"/>
<path d="M6.57286 66.7862H6.08398V83.2054L9.50677 86.6368L9.85221 86.2911L6.57286 83.0035V66.7862Z" fill="#F5F5F5"/>
<path d="M8.16602 66.8793C8.16602 65.861 7.34315 65.0366 6.32837 65.0366C5.31359 65.0366 4.49072 65.861 4.49072 66.8793C4.49072 67.8955 5.31359 68.72 6.32837 68.72C7.34315 68.72 8.16602 67.8955 8.16602 66.8793Z" fill="#F5F5F5"/>
<path d="M10.906 85.0878C11.6232 85.8069 11.6232 86.9737 10.906 87.6928C10.1882 88.412 9.02395 88.412 8.3068 87.6928C7.58898 86.9737 7.58898 85.8069 8.3068 85.0878C9.02395 84.3687 10.1882 84.3687 10.906 85.0878Z" fill="#F5F5F5"/>
<path d="M8.47983 87.52C7.8583 86.8961 7.8583 85.8832 8.47916 85.2607C9.10068 84.6381 10.1114 84.6381 10.733 85.2607C11.3545 85.8832 11.3545 86.8961 10.733 87.52C10.1114 88.1425 9.10068 88.1425 8.47983 87.52C9.10068 88.1425 7.8583 86.8961 8.47983 87.52ZM11.0784 84.9129C10.2663 84.1006 8.94581 84.1006 8.13371 84.9129C7.32229 85.7272 7.32229 87.0514 8.13371 87.8657C8.94581 88.68 10.267 88.68 11.0784 87.8657C11.8905 87.0514 11.8905 85.7272 11.0784 84.9129C11.8905 85.7272 10.2663 84.1006 11.0784 84.9129Z" fill="#F5F5F5"/>
<path d="M339.257 118.082H338.767V131.419L332.29 137.913L332.636 138.259L339.257 131.622V118.082Z" fill="#F5F5F5"/>
<path d="M340.85 118.174C340.85 117.158 340.027 116.331 339.012 116.331C337.998 116.331 337.175 117.158 337.175 118.174C337.175 119.19 337.998 120.016 339.012 120.016C340.027 120.016 340.85 119.19 340.85 118.174Z" fill="#F5F5F5"/>
<path d="M333.836 139.314C333.118 140.034 331.955 140.034 331.236 139.314C330.518 138.595 330.518 137.429 331.236 136.709C331.955 135.99 333.118 135.99 333.836 136.709C334.553 137.429 334.553 138.595 333.836 139.314Z" fill="#F5F5F5"/>
<path d="M331.41 136.883C332.031 136.26 333.041 136.26 333.663 136.883C334.284 137.505 334.284 138.518 333.663 139.142C333.041 139.764 332.031 139.764 331.41 139.142C330.788 138.518 330.788 137.505 331.41 136.883C332.031 136.26 330.788 137.505 331.41 136.883ZM334.008 139.488C334.82 138.674 334.82 137.35 334.008 136.536C333.196 135.723 331.875 135.723 331.063 136.536C330.252 137.35 330.252 138.674 331.063 139.488C331.875 140.302 333.196 140.302 334.008 139.488C334.82 138.674 333.196 140.302 334.008 139.488Z" fill="#F5F5F5"/>
</svg>
