<svg width="96" height="96" viewBox="0 0 96 96" fill="none" xmlns="http://www.w3.org/2000/svg">
<mask id="mask0_433_17979" style="mask-type:alpha" maskUnits="userSpaceOnUse" x="0" y="8" width="96" height="80">
<mask id="mask1_433_17979" style="mask-type:alpha" maskUnits="userSpaceOnUse" x="0" y="9" width="95" height="78">
<path d="M53.383 12.1182C53.383 10.5065 54.6895 9.20001 56.3011 9.20001H91.2785C92.8901 9.20001 94.1966 10.5065 94.1966 12.1182V83.5655C94.1966 85.1771 92.8901 86.4836 91.2785 86.4836H89.5385C76.7227 86.4836 67.505 84.1851 61.8859 79.5887C56.2174 74.9415 53.383 67.2637 53.383 56.5551V12.1182ZM0 48.7511C0 43.1946 0.714732 38.0425 2.14419 33.2943C3.57365 28.4956 5.79178 24.3031 8.79857 20.7168C15.3051 13.0389 24.6214 9.20001 36.7471 9.20001H39.522C41.1336 9.20001 42.4402 10.5065 42.4402 12.1182V83.5655C42.4402 85.1771 41.1336 86.4836 39.522 86.4836H38.5954C26.1739 86.4836 16.562 82.9981 9.75977 76.0275C3.25325 69.3599 0 60.2677 0 48.7511Z" fill="#F08BD2"/>
</mask>
<g mask="url(#mask1_433_17979)">
<path d="M81.3177 109.392C98.9988 109.392 113.332 95.1066 113.332 77.4848C113.332 59.863 98.9988 45.5778 81.3177 45.5778C63.6365 45.5778 49.3031 59.863 49.3031 77.4848C49.3031 95.1066 63.6365 109.392 81.3177 109.392Z" fill="#5EA9FE"/>
<path d="M25.9873 50.9258C44.2359 50.9258 59.0293 34.2712 59.0293 13.7266C59.0293 -6.81804 44.2359 -23.4727 25.9873 -23.4727C7.73872 -23.4727 -7.05469 -6.81804 -7.05469 13.7266C-7.05469 34.2712 7.73872 50.9258 25.9873 50.9258Z" fill="url(#paint0_linear_433_17979)"/>
<path d="M19.2879 97.4466C36.9249 97.4466 51.2226 82.099 51.2226 63.1669C51.2226 44.2347 36.9249 28.8872 19.2879 28.8872C1.6509 28.8872 -12.6467 44.2347 -12.6467 63.1669C-12.6467 82.099 1.6509 97.4466 19.2879 97.4466Z" fill="#F51896"/>
<path d="M74.4447 59.099C90.0023 59.099 102.614 44.9002 102.614 27.3852C102.614 9.87009 90.0023 -4.32867 74.4447 -4.32867C58.8871 -4.32867 46.2751 9.87009 46.2751 27.3852C46.2751 44.9002 58.8871 59.099 74.4447 59.099Z" fill="#FC66FB"/>
<path d="M46.1918 74.5388C61.7564 74.5388 74.374 61.4623 74.374 45.3315C74.374 29.2008 61.7564 16.1243 46.1918 16.1243C30.6271 16.1243 18.0095 29.2008 18.0095 45.3315C18.0095 61.4623 30.6271 74.5388 46.1918 74.5388Z" fill="#695EE9"/>
<path d="M121.963 -11.5286H-495.333V87.7925H121.963V-11.5286Z" fill="url(#paint1_radial_433_17979)"/>
<path d="M77.0915 45.2499C91.7175 30.2617 90.5041 17.2697 90.5041 8.67938H106.551L93.5377 86.5654C82.1744 79.1204 62.4654 60.2379 77.0915 45.2499Z" fill="#3128CD"/>
<path d="M94.1766 36.578C94.1766 36.578 61.6033 44.2052 61.6033 79.8807C61.6033 109.815 94.1766 86.5237 94.1766 86.5237V36.578Z" fill="url(#paint2_linear_433_17979)"/>
<path d="M-0.670166 52.4367C-0.670166 85.0222 25.1879 86.4838 43.24 86.4838C18.6014 86.4838 4.13155 40.9554 7.94923 22.7767C13.3194 -2.79476 -0.670166 29.2231 -0.670166 52.4367Z" fill="url(#paint3_linear_433_17979)"/>
</g>
</mask>
<g mask="url(#mask0_433_17979)">
<rect x="-9.59998" y="-8.79999" width="115.2" height="115.2" fill="url(#paint4_radial_433_17979)"/>
</g>
<defs>
<linearGradient id="paint0_linear_433_17979" x1="25.9873" y1="-23.4726" x2="25.9873" y2="50.9259" gradientUnits="userSpaceOnUse">
<stop stop-color="#3C2EE5"/>
<stop offset="1" stop-color="#5630FE"/>
</linearGradient>
<radialGradient id="paint1_radial_433_17979" cx="0" cy="0" r="1" gradientUnits="userSpaceOnUse" gradientTransform="translate(59.3718 33.7959) rotate(-155.971) scale(40.3843 75.1766)">
<stop stop-color="#382AE2"/>
<stop offset="0.9509" stop-color="#5EA9FE"/>
</radialGradient>
<linearGradient id="paint2_linear_433_17979" x1="77.8899" y1="49.5862" x2="77.8899" y2="87.2202" gradientUnits="userSpaceOnUse">
<stop stop-color="#181B41"/>
<stop offset="0.967874" stop-color="#263299"/>
</linearGradient>
<linearGradient id="paint3_linear_433_17979" x1="-0.670164" y1="55.2313" x2="35.008" y2="62.491" gradientUnits="userSpaceOnUse">
<stop stop-color="#EE1AA8"/>
<stop offset="1" stop-color="#5D37C2"/>
</linearGradient>
<radialGradient id="paint4_radial_433_17979" cx="0" cy="0" r="1" gradientUnits="userSpaceOnUse" gradientTransform="translate(47.5494 48.8) rotate(-90) scale(57.6)">
<stop stop-color="white"/>
<stop offset="1" stop-color="white" stop-opacity="0.75"/>
</radialGradient>
</defs>
</svg>
