<svg width="96" height="96" viewBox="0 0 96 96" fill="none" xmlns="http://www.w3.org/2000/svg">
<path d="M82.4098 62.9768C81.8022 62.9768 81.2675 63.4898 80.7111 64.6104C74.4277 77.3516 63.5751 86.3668 51.0164 86.3668C36.4952 86.3668 27.5025 73.2582 27.5025 55.1489C27.5025 24.4731 44.5942 6.73707 59.6065 6.73707C66.6214 6.73707 70.9054 11.1455 70.9054 18.1608C70.9054 26.487 66.1751 30.8954 66.1751 33.8318C66.1751 35.15 66.995 35.9481 68.6208 35.9481C75.153 35.9481 82.8197 28.4422 82.8197 17.8386C82.8197 7.55722 73.8712 0 58.8594 0C34.0493 0 12 23.0012 12 54.8265C12 79.461 26.0673 95.74 47.7724 95.74C70.8101 95.74 84.131 72.8188 84.131 65.3792C84.131 63.7316 83.2886 62.9768 82.4098 62.9768Z" fill="url(#paint0_radial_433_17976)"/>
<defs>
<radialGradient id="paint0_radial_433_17976" cx="0" cy="0" r="1" gradientUnits="userSpaceOnUse" gradientTransform="translate(47.7833 47.87) rotate(-90) scale(47.87 36.0655)">
<stop stop-color="white"/>
<stop offset="1" stop-color="white" stop-opacity="0.75"/>
</radialGradient>
</defs>
</svg>
