<svg width="96" height="96" viewBox="0 0 96 96" fill="none" xmlns="http://www.w3.org/2000/svg">
<path d="M28.9791 22.0214C33.1186 21.7576 37.2565 23.953 39.469 27.4409C41.0019 29.824 41.6178 32.744 41.3913 35.5538C40.9352 40.6226 37.1231 45.2834 32.1396 46.4951C29.3484 47.2104 26.2935 46.7309 23.8265 45.2539C22.0314 44.2113 20.5606 42.6411 19.5893 40.8103C17.8159 37.7414 17.4994 33.9309 18.511 30.5563C19.2449 28.0568 20.8693 25.8738 22.9096 24.2789C24.683 23.0035 26.7915 22.1688 28.9791 22.0214ZM27.9738 23.3045C24.1027 24.0554 20.9159 27.1383 19.6793 30.8309C18.1666 35.0433 19.4311 40.0718 22.711 43.105C24.3261 44.5604 26.416 45.4292 28.5633 45.6914C31.3949 45.9831 34.2885 44.9234 36.3768 43.0135C37.9051 41.6125 39.1695 39.8655 39.787 37.8718C40.659 35.1907 40.4868 32.1947 39.3216 29.6285C37.4908 25.3323 32.6082 22.5365 27.9738 23.3045Z" fill="url(#paint0_radial_433_18030)"/>
<path d="M28.4919 24.4667C30.7059 24.1673 33.0301 24.6995 34.8748 25.9686C36.6575 27.2129 38.0554 29.0189 38.7288 31.0948C39.5278 33.3663 39.4518 35.903 38.6388 38.1605C37.6815 40.6026 35.7561 42.6149 33.4257 43.7956C31.0783 44.9561 28.2064 44.9717 25.8372 43.8623C23.935 43.0571 22.4052 41.5164 21.3967 39.7368C19.5023 36.3095 19.7258 31.8365 21.9429 28.6124C23.4758 26.4449 25.8403 24.8438 28.4919 24.4667ZM28.495 25.5606C25.9784 25.9578 23.8342 27.6784 22.4921 29.7885C21.299 31.821 20.9639 34.2987 21.3859 36.6027C21.69 38.3482 22.5821 39.9618 23.8094 41.2278C25.7783 43.1734 28.8037 44.2393 31.5111 43.3876C34.0168 42.7669 36.0369 40.8601 37.2424 38.6306C38.2633 36.6353 38.5007 34.2599 37.936 32.0956C37.4162 29.9002 36.0152 27.9422 34.1084 26.7397C32.442 25.7219 30.4359 25.2472 28.495 25.5606Z" fill="url(#paint1_radial_433_18030)"/>
<path d="M8.32524 26.5488C8.32214 26.0523 9.00325 25.6535 9.38803 26.0259C9.73247 26.3067 9.63783 26.7768 9.64869 27.1663C9.64093 38.0269 9.63628 48.8876 9.66265 59.7467C9.69368 60.4387 8.57659 60.5643 8.41523 59.9049C8.2849 58.4496 8.50056 56.9353 8.28955 55.5064C6.74734 54.9727 5.18806 54.4793 3.65981 53.9083C3.08885 53.6818 2.98335 52.9929 3.00197 52.4545C3.0299 46.2981 3.02834 40.1432 3.0873 33.9883C3.10437 33.4546 3.0361 32.7176 3.65981 32.4973C5.16479 31.931 6.69304 31.405 8.24301 30.9861C8.38265 29.5122 8.2849 28.0274 8.32524 26.5488ZM5.93279 32.969C5.46268 33.1288 4.94447 33.2172 4.53952 33.5213C4.53021 40.0284 4.49764 46.5386 4.45574 53.0457C5.82729 53.4382 7.14608 53.9967 8.4959 54.456C8.52849 53.9564 8.52694 53.4568 8.50677 52.9588C7.47811 52.5724 6.41221 52.2885 5.39751 51.8696C5.28115 50.6206 5.39752 49.3577 5.36959 48.1041C5.40838 43.6558 5.39441 39.2061 5.46268 34.7594C5.41148 34.3017 5.96693 34.176 6.30826 34.0783C6.61546 34.0085 7.15539 33.9681 7.22521 34.3808C7.23297 34.8277 6.75044 35.017 6.38429 35.0961C6.36567 40.3651 6.39825 45.634 6.36877 50.903C6.38584 50.9635 6.42152 51.083 6.43859 51.1435C7.09643 51.415 7.78066 51.626 8.46953 51.8029C8.58434 49.2305 8.49436 46.6518 8.54401 44.0779C8.52228 40.0718 8.5859 36.0658 8.53314 32.0598C7.65809 32.3406 6.82802 32.7471 5.93279 32.969Z" fill="url(#paint2_radial_433_18030)"/>
<path d="M86.2038 26.5502C86.1852 25.8645 87.3551 25.7419 87.4342 26.4494C87.5366 28.0335 87.4342 29.6285 87.4885 31.2172C89.2293 31.844 91.0198 32.3343 92.773 32.9363C92.7621 39.8763 92.804 46.8178 92.7559 53.7577C91.0136 54.4419 89.2324 55.0253 87.4761 55.6692C87.4885 57.078 87.4994 58.4883 87.4714 59.8971C87.3458 60.5472 86.1713 60.4494 86.1961 59.7668C86.1604 51.3296 86.2302 42.8893 86.2147 34.4506C86.1821 31.8177 86.1837 29.1832 86.2038 26.5502ZM87.3737 32.3452C87.2899 38.8259 87.3861 45.3097 87.3364 51.792C88.0052 51.6989 88.6134 51.3886 89.2526 51.1884C89.3519 45.9194 89.2153 40.6474 89.3317 35.3784C89.2309 35.3365 89.0307 35.2527 88.9299 35.2108C88.9283 34.8928 88.9283 34.5732 88.9299 34.2551C89.4031 34.3265 89.8639 34.4615 90.3138 34.6275C90.2936 40.4317 90.3728 46.2375 90.2611 52.0402C89.4326 52.29 88.6444 52.653 87.8097 52.8765C87.6375 52.9494 87.2977 52.9571 87.3473 53.2287C87.3163 53.629 87.3302 54.0308 87.3334 54.4326C88.6894 54.0261 90.0376 53.5591 91.3332 52.9928C91.403 51.7826 91.3363 50.5631 91.3595 49.3514C91.3192 44.0949 91.3828 38.8398 91.3285 33.5848C90.0144 33.1551 88.6832 32.7827 87.3737 32.3452Z" fill="url(#paint3_radial_433_18030)"/>
<path d="M27.4912 27.1663C29.4166 26.4045 31.6726 26.6822 33.4522 27.7031C35.1604 28.7504 36.4497 30.4726 36.9214 32.426C37.5839 34.7579 37.1324 37.411 35.6057 39.3163C34.4188 40.8042 32.816 42.0749 30.9077 42.4395C29.3794 42.8227 27.772 42.4612 26.385 41.777C23.119 40.0346 21.3922 35.8703 22.5232 32.336C22.8413 32.4229 23.1594 32.5082 23.479 32.5966C22.9375 34.5035 23.1718 36.6399 24.2128 38.3373C25.0677 39.7631 26.4501 40.9066 28.0777 41.3193C29.6245 41.7817 31.3685 41.5148 32.7136 40.6242C33.8478 39.8562 34.8671 38.8617 35.4521 37.605C36.2852 35.7711 36.4885 33.571 35.6662 31.6968C34.9835 30.0211 33.5546 28.6806 31.8572 28.0662C30.4825 27.6116 28.931 27.5821 27.5998 28.1996C26.3726 28.7101 25.4292 29.6767 24.5821 30.6681C24.3789 30.3749 24.1477 30.1002 23.963 29.7961C24.8583 28.617 26.1243 27.7264 27.4912 27.1663Z" fill="url(#paint4_radial_433_18030)"/>
<path d="M62.4656 27.6922C64.7464 26.5223 67.5143 26.3486 69.916 27.2469C71.4241 27.7682 72.7196 28.7379 73.8693 29.8209C74.5117 29.3321 74.9523 28.5502 75.7467 28.2895C76.735 27.9296 77.6721 29.343 77.0298 30.1389C76.7102 30.713 75.984 30.9597 75.3991 30.6215C75.199 30.7751 75.0128 30.9426 74.8375 31.1226C75.7824 32.5888 76.4945 34.2536 76.5814 36.0146C76.7614 38.8694 75.6039 41.7645 73.5823 43.7753C72.1813 45.1266 70.3846 46.0963 68.4514 46.3942C65.744 46.8814 62.8349 46.1165 60.7171 44.3602C59.572 43.4696 58.7327 42.2548 58.0454 40.9918C57.3642 41.4309 56.7312 41.9383 56.0703 42.4053C55.234 43.0135 54.1464 41.8141 54.3791 40.9686C54.6351 40.4395 55.2231 40.2006 55.6529 39.8344C56.1354 39.4264 56.6955 39.1021 57.1315 38.6444C56.6785 36.6724 56.9484 34.5794 57.7071 32.7176C58.6225 30.5392 60.385 28.7783 62.4656 27.6922ZM64.8193 31.2343C62.9001 31.8968 61.3284 33.56 60.8815 35.5522C60.5092 37.0292 60.7512 38.6646 61.5642 39.9554C62.8659 42.0903 65.4989 43.4355 67.9906 42.9669C70.3489 42.4984 72.2682 40.5776 72.9694 38.3108C73.4287 36.6134 73.0812 34.7857 72.262 33.2544C71.6382 33.6966 70.9975 34.1155 70.4156 34.612C70.6328 34.9952 70.8563 35.38 70.9866 35.8051C71.6987 38.196 69.8555 40.9872 67.3498 41.1904C65.1653 41.4852 62.9311 39.8701 62.5386 37.7011C61.9909 35.4653 63.6774 32.9999 65.9411 32.6477C67.2071 32.3964 68.5073 32.8448 69.5142 33.6066C69.9486 33.2497 70.5211 33.003 70.7927 32.4848C70.307 32.1745 69.8695 31.7867 69.3482 31.5369C67.9534 30.865 66.2839 30.6758 64.8193 31.2343ZM65.8309 33.8579C64.9962 34.1 64.2949 34.7206 63.8729 35.4684C62.9776 37.2403 64.1878 39.6591 66.1459 40.0035C68.0728 40.5155 70.1705 38.7732 70.0355 36.7934C69.9067 34.8152 67.7548 33.2435 65.8309 33.8579Z" fill="url(#paint5_radial_433_18030)"/>
<path d="M25.7302 30.6449C26.7744 29.5185 28.2654 28.7458 29.8262 28.7846C31.1652 28.7598 32.4561 29.3338 33.4614 30.1934C34.6809 31.2996 35.3993 32.9272 35.404 34.5733C35.0688 34.5594 34.7337 34.5485 34.3986 34.5376C34.2915 33.6967 34.1752 32.8232 33.7392 32.0785C33.0875 30.9862 32.0046 30.1298 30.7478 29.8722C29.8852 29.7 28.931 29.686 28.1475 30.1375C26.9326 30.7969 25.8512 31.8473 25.4602 33.2049C24.7062 35.4763 25.8388 38.2442 28.0916 39.1627C29.6695 39.9587 31.5779 39.3256 32.816 38.1946C33.0674 38.3963 33.3156 38.6011 33.5669 38.8043C32.6484 39.6344 31.5593 40.3807 30.2901 40.4908C28.3228 40.767 26.2981 39.7368 25.2399 38.0829C23.6931 35.872 23.9258 32.6401 25.7302 30.6449Z" fill="url(#paint6_radial_433_18030)"/>
<path d="M28.9294 31.2608C31.0566 30.4773 33.4304 32.4353 33.3932 34.6136C33.4506 36.3265 32.034 38.0223 30.2824 38.0797C28.6874 38.2395 27.0909 37.0992 26.7216 35.543C26.2019 33.8394 27.2088 31.7914 28.9294 31.2608ZM29.0908 32.3608C28.2607 32.7642 27.6649 33.6734 27.7317 34.6105C27.6479 35.9448 28.9543 37.1659 30.2824 36.958C31.7129 36.7532 32.7151 35.045 32.1147 33.7122C31.6756 32.561 30.2513 31.8395 29.0908 32.3608Z" fill="url(#paint7_radial_433_18030)"/>
<path d="M66.4716 59.905C66.3056 59.0889 66.9665 58.1518 67.8323 58.1952C68.5941 58.5086 69.2395 59.0439 69.933 59.483C70.7134 60.054 71.6164 60.4682 72.3146 61.1493C73.0112 61.9499 72.5179 63.3246 71.4939 63.5526C70.4931 63.8164 69.7577 62.9258 68.909 62.5814C66.5243 66.2895 63.0815 69.2545 59.1546 71.2327C53.6622 74.0921 47.0295 74.5653 41.1337 72.7439C36.1223 71.2249 31.6709 68.0288 28.5384 63.8443C28.3119 63.534 28.0761 63.233 27.8201 62.9507C27.1296 63.4425 26.3399 63.8474 25.4788 63.8971C24.9529 63.9467 24.4486 63.5216 24.3865 63.0034C24.2826 62.2804 24.6829 61.6179 25.0801 61.0516C25.8636 60.0152 26.9109 59.1851 28.0792 58.6219C28.5462 58.4202 29.0939 58.2139 29.5935 58.4326C29.9813 58.5893 30.183 59.0269 30.1753 59.4287C30.1598 60.1021 29.8479 60.7227 29.5329 61.3029C30.8331 63.3509 32.6639 65.0049 34.5987 66.4416C37.1416 68.2243 39.9824 69.6082 43.0033 70.3545C49.0433 71.8517 55.6264 70.654 60.8877 67.3787C63.4554 65.8179 65.6539 63.6752 67.3497 61.2036C66.937 60.8701 66.5368 60.4558 66.4716 59.905Z" fill="url(#paint8_radial_433_18030)"/>
<defs>
<radialGradient id="paint0_radial_433_18030" cx="0" cy="0" r="1" gradientUnits="userSpaceOnUse" gradientTransform="translate(29.5965 34.4109) rotate(-90) scale(12.4109 11.7484)">
<stop stop-color="white"/>
<stop offset="1" stop-color="white" stop-opacity="0.75"/>
</radialGradient>
<radialGradient id="paint1_radial_433_18030" cx="0" cy="0" r="1" gradientUnits="userSpaceOnUse" gradientTransform="translate(29.6272 34.5329) rotate(-90) scale(10.1476 9.58771)">
<stop stop-color="white"/>
<stop offset="1" stop-color="white" stop-opacity="0.75"/>
</radialGradient>
<radialGradient id="paint2_radial_433_18030" cx="0" cy="0" r="1" gradientUnits="userSpaceOnUse" gradientTransform="translate(6.30558 43.1089) rotate(-90) scale(17.2292 3.33164)">
<stop stop-color="white"/>
<stop offset="1" stop-color="white" stop-opacity="0.75"/>
</radialGradient>
<radialGradient id="paint3_radial_433_18030" cx="0" cy="0" r="1" gradientUnits="userSpaceOnUse" gradientTransform="translate(89.4569 43.1547) rotate(-90) scale(17.1807 3.2969)">
<stop stop-color="white"/>
<stop offset="1" stop-color="white" stop-opacity="0.75"/>
</radialGradient>
<radialGradient id="paint4_radial_433_18030" cx="0" cy="0" r="1" gradientUnits="userSpaceOnUse" gradientTransform="translate(29.6384 34.6636) rotate(-90) scale(7.93188 7.52068)">
<stop stop-color="white"/>
<stop offset="1" stop-color="white" stop-opacity="0.75"/>
</radialGradient>
<radialGradient id="paint5_radial_433_18030" cx="0" cy="0" r="1" gradientUnits="userSpaceOnUse" gradientTransform="translate(65.7045 36.6075) rotate(-90) scale(9.93088 11.4469)">
<stop stop-color="white"/>
<stop offset="1" stop-color="white" stop-opacity="0.75"/>
</radialGradient>
<radialGradient id="paint6_radial_433_18030" cx="0" cy="0" r="1" gradientUnits="userSpaceOnUse" gradientTransform="translate(29.7651 34.6593) rotate(-90) scale(5.87613 5.5951)">
<stop stop-color="white"/>
<stop offset="1" stop-color="white" stop-opacity="0.75"/>
</radialGradient>
<radialGradient id="paint7_radial_433_18030" cx="0" cy="0" r="1" gradientUnits="userSpaceOnUse" gradientTransform="translate(29.9631 34.5897) rotate(-90) scale(3.50501 3.40513)">
<stop stop-color="white"/>
<stop offset="1" stop-color="white" stop-opacity="0.75"/>
</radialGradient>
<radialGradient id="paint8_radial_433_18030" cx="0" cy="0" r="1" gradientUnits="userSpaceOnUse" gradientTransform="translate(48.3158 66.0082) rotate(-90) scale(7.81441 24.1348)">
<stop stop-color="white"/>
<stop offset="1" stop-color="white" stop-opacity="0.75"/>
</radialGradient>
</defs>
</svg>
