<svg width="96" height="96" viewBox="0 0 96 96" fill="none" xmlns="http://www.w3.org/2000/svg">
<path d="M25.1045 79.0623C24.1337 78.5881 23.6116 79.2017 23.6116 80.6923C23.6116 82.1829 23.6684 87.5404 24.8297 89.8191C25.9015 91.9226 27.6117 93.6328 29.7152 94.7047C31.5431 95.6359 33.8027 95.8553 37.5619 95.9071C47.9149 95.4454 56.9752 90.014 62.4147 81.9407C62.8976 81.2239 62.3664 80.2878 61.5021 80.2878H36.7883C33.3567 80.2878 28.2018 80.5751 25.1045 79.0623ZM20.8477 32.9687C20.8477 31.4436 18.8311 30.8971 18.0687 32.2181C14.8642 37.769 11.6593 43.3197 8.45404 48.8702C0.640756 62.4004 3.33223 80.5444 18.3938 90.7536C20.257 92.0167 21.7476 90.0084 21.386 88.4355C20.6171 85.2202 20.8477 81.6502 20.8477 78.3501V32.9687ZM80.8168 47.1478C80.8915 48.2256 81.6841 48.371 82.975 47.6256C84.266 46.8804 88.8771 44.1524 90.27 42.0074C91.5558 40.0274 92.1818 37.6912 92.0583 35.3336C91.9509 33.2849 91.0111 31.2183 89.1763 27.9369C83.6 19.2017 74.3661 14.071 64.6546 13.3971C63.7923 13.3372 63.2472 14.2652 63.6795 15.0136L76.0365 36.4166C77.7521 39.3884 80.5784 43.709 80.8168 47.1478ZM43.0266 73.8806C41.7058 74.6432 42.2408 76.6627 43.766 76.6627C47.7787 76.6625 54.0722 76.6623 62.9944 76.663C78.6186 76.6644 92.986 65.2614 94.2968 47.1132C94.4588 44.8681 91.9744 44.5813 90.7931 45.6809C88.3931 47.9544 85.186 49.5398 82.3281 51.1898L43.0266 73.8806ZM26.0715 15.1454C26.9674 14.542 26.6971 13.7828 25.4062 13.0374C24.1154 12.2922 19.4471 9.66276 16.8931 9.52909C14.5355 9.40554 12.1993 10.0315 10.2193 11.3172C8.49885 12.4346 7.17899 14.2818 5.25455 17.5114C0.477922 26.7083 0.651572 37.2704 4.92348 46.0178C5.30284 46.7945 6.37893 46.8024 6.81122 46.0539L19.168 24.6511C20.8838 21.6792 23.2125 17.0714 26.0715 15.1454ZM68.1185 34.5065C69.4393 35.2691 70.9207 33.796 70.1581 32.4752C68.1515 29.0003 65.0048 23.5499 60.5444 15.8226C52.7334 2.29104 35.6746 -4.45001 19.3022 3.48901C17.2768 4.47103 18.2708 6.76615 19.8137 7.23939C22.9827 8.18123 25.9591 10.1657 28.817 11.8159L68.1185 34.5065Z" fill="url(#paint0_radial_433_18012)"/>
<defs>
<radialGradient id="paint0_radial_433_18012" cx="0" cy="0" r="1" gradientUnits="userSpaceOnUse" gradientTransform="translate(47.6377 48) rotate(-90) scale(47.9071 46.3044)">
<stop stop-color="white"/>
<stop offset="1" stop-color="white" stop-opacity="0.75"/>
</radialGradient>
</defs>
</svg>
