<svg width="96" height="96" viewBox="0 0 96 96" fill="none" xmlns="http://www.w3.org/2000/svg">
<g clip-path="url(#clip0_433_18002)">
<path fill-rule="evenodd" clip-rule="evenodd" d="M92.6353 45.9203L88.8863 43.8745C87.2419 35.7893 83.3069 28.5654 77.7863 22.8588C74.6735 19.6286 71.0714 16.9074 67.0777 14.7736V12.395C67.0777 11.1421 64.6992 10.0164 60.8523 9.22355C57.2502 8.46005 52.3756 8 47.0017 8C45.1126 8 43.2821 8.05873 41.5104 8.15661C33.0924 8.6754 26.9257 10.3884 26.9257 12.3656V14.7442C24.2437 16.1733 21.7379 17.8863 19.418 19.8342C12.2529 25.9324 7.09441 34.321 5.10736 43.8745L1.35841 45.9203C-0.354561 46.8306 -1.26489 48.7589 -0.932081 50.6481L2.48407 69.8333C2.81688 71.7812 4.4026 73.2495 6.36028 73.4942L12.0963 74.199C15.209 77.5564 19.1439 80.1797 23.6858 82.0982C29.7839 84.6921 36.9588 86.0625 44.6721 86.2779C45.4454 86.3072 46.2382 86.3072 47.0017 86.3072C52.8846 86.3072 58.5031 85.671 63.6322 84.3593C70.3471 82.617 76.2005 79.6903 80.6249 75.4813C81.1437 74.9918 81.6625 74.473 82.1519 73.9249L87.5551 73.4061C89.5715 73.2201 91.1866 71.7323 91.5487 69.7159L94.9355 50.6187C95.2586 48.7589 94.3482 46.8306 92.6353 45.9203ZM47.0017 75.8434C36.812 75.8434 28.4527 73.7389 22.844 69.7453C17.382 65.869 14.7294 60.2309 14.7294 52.5079C14.7294 34.693 29.2162 20.2061 47.0311 20.2061C64.846 20.2061 79.3328 34.693 79.3328 52.5079C79.3328 60.2211 76.6802 65.8397 71.2183 69.7453C65.5508 73.7389 57.1915 75.8434 47.0017 75.8434ZM31.9961 58.9486C34.7662 64.6846 40.6588 68.4042 47.0017 68.4042C53.3446 68.4042 59.2372 64.6749 62.0269 58.9486L56.8978 56.5113C55.0673 60.3875 51.2499 62.7661 47.0115 62.7661C42.7731 62.7661 38.985 60.3582 37.1252 56.5113L31.9961 58.9486Z" fill="url(#paint0_radial_433_18002)"/>
</g>
<defs>
<radialGradient id="paint0_radial_433_18002" cx="0" cy="0" r="1" gradientUnits="userSpaceOnUse" gradientTransform="translate(46.6245 47.1536) rotate(-90) scale(39.1536 48)">
<stop stop-color="white"/>
<stop offset="1" stop-color="white" stop-opacity="0.75"/>
</radialGradient>
<clipPath id="clip0_433_18002">
<rect width="96" height="96" fill="white"/>
</clipPath>
</defs>
</svg>
