<svg width="96" height="96" viewBox="0 0 96 96" fill="none" xmlns="http://www.w3.org/2000/svg">
<mask id="mask0_433_17833" style="mask-type:alpha" maskUnits="userSpaceOnUse" x="0" y="1" width="96" height="94">
<g clip-path="url(#clip0_433_17833)">
<path d="M56.3706 85.2161L56.6708 85.8457L56.6809 85.841C56.3976 86.419 54.9431 89.3173 53.1972 91.5646C52.3647 92.6363 51.4672 93.5583 50.599 94.0106L50.4166 94.143C50.4166 94.143 50.4041 94.151 50.3784 94.1638C50.3784 94.1638 48.0768 95.201 45.97 94.1638C45.9443 94.151 45.9318 94.143 45.9318 94.143L45.7494 94.0106C44.8812 93.5583 43.9832 92.6351 43.1511 91.5646C41.4064 89.3173 39.9508 86.419 39.6672 85.841L39.6775 85.8457L39.9778 85.2161L40.024 85.1907C40.3794 85.8707 40.717 86.4717 41.0407 87.0176C41.8855 88.448 42.6348 89.5129 43.3445 90.6814C43.3478 90.6883 43.3534 90.6953 43.3568 90.702C44.4469 92.4867 45.7789 93.429 45.7789 93.429C45.7789 93.429 46.446 94.0861 47.5796 94.1944H47.5852C47.7687 94.2127 47.9654 94.2151 48.1735 94.1982C48.3805 94.2151 48.5774 94.2116 48.762 94.1944H48.7676C49.9013 94.0861 50.5684 93.429 50.5684 93.429C50.5684 93.429 51.8992 92.4867 52.9891 90.702C52.9927 90.6953 52.9994 90.6883 53.0028 90.6814C53.7125 89.5129 54.4615 88.448 55.3065 87.0176C55.6303 86.4706 55.9678 85.8707 56.3232 85.1907L56.3706 85.2161Z" fill="white"/>
<path d="M94.8661 52.6317C95.1135 52.8306 95.407 52.9733 95.7265 53.0407C95.6263 54.4814 95.4642 55.9107 95.2383 57.3261L95.0052 57.2893C94.6344 59.0182 93.9155 60.9922 93.0785 62.9254C94.0325 59.627 94.6422 56.1813 94.8661 52.6317Z" fill="white"/>
<path d="M95.0038 57.2892L95.2366 57.3259C94.6347 61.1268 93.5863 64.834 92.0983 68.4065C89.6979 74.1725 86.2602 79.3487 81.8822 83.7951C79.6313 86.081 77.1904 88.1146 74.5783 89.8819L74.575 89.8833C73.5831 90.3231 72.7291 90.6441 72.0609 90.7412C72.0687 90.7334 72.1611 90.6488 73.1645 89.7154C82.6539 83.6033 89.8383 74.1185 93.0733 62.9343L93.0758 62.9282L93.0769 62.9249C93.9139 60.9919 94.6336 59.0177 95.0038 57.2892Z" fill="white"/>
<path d="M93.0734 62.9345C89.8384 74.1192 82.6536 83.6035 73.1643 89.7158C73.8593 89.0702 74.9946 88.0144 76.8438 86.294C78.107 85.3391 79.3501 84.1978 80.3703 83.013C84.0103 79.6267 86.899 75.3529 88.9956 71.6183C91.5717 67.0337 92.9553 63.2625 93.0689 62.9459L93.0734 62.9345Z" fill="white"/>
<path d="M93.0703 62.9464C92.9566 63.2629 91.5729 67.0342 88.9972 71.6187C89.2245 71.2178 89.3448 70.7744 89.3526 70.3232C90.3434 68.5731 91.8341 65.8049 93.0703 62.9464Z" fill="white"/>
<path d="M94.864 52.6312C94.6403 56.1808 94.0304 59.6263 93.0769 62.9247L93.0757 62.928L93.0731 62.9338L93.0688 62.9452C91.8315 65.8038 90.3409 68.5706 89.3512 70.3209C89.3568 70.0693 89.3264 69.8159 89.2612 69.5656C89.0855 68.9008 88.6785 68.3409 88.107 67.9765C88.2432 67.6682 88.3769 67.3585 88.5073 67.0453C90.7887 61.5675 91.945 55.7454 91.945 49.7421C91.945 43.7383 90.7876 37.9178 88.5073 32.4386C88.1364 31.5485 87.7393 30.6736 87.314 29.8143C87.512 29.7547 87.7011 29.6716 87.8808 29.5651C88.4963 29.2043 88.9382 28.6205 89.1217 27.9233C89.234 27.4984 89.2431 27.0611 89.1507 26.6427C92.7987 33.3444 94.8989 41.0286 94.9587 49.1969" fill="white"/>
<path d="M88.1075 67.9783C88.6791 68.3416 89.0872 68.9015 89.2617 69.5675C89.3281 69.8177 89.3584 70.0714 89.3517 70.3227C88.6971 71.479 88.2618 72.1916 88.2618 72.1916L87.9693 72.6372C87.5833 72.852 87.1435 72.9719 86.6878 72.9719C86.3268 72.9719 85.9703 72.8967 85.6396 72.7529C85.8116 72.4638 85.9792 72.1746 86.1447 71.8822C86.1538 71.8855 86.1639 71.8891 86.173 71.8913C86.1987 71.9003 86.2235 71.9085 86.2502 71.9152C86.2538 71.9175 86.2594 71.9186 86.2639 71.9186C86.2967 71.9268 86.3302 71.9346 86.363 71.9402C86.3652 71.9427 86.3675 71.9427 86.3708 71.9427C86.3976 71.9485 86.4248 71.953 86.4519 71.9563C86.4856 71.961 86.5182 71.9655 86.5508 71.9677C86.5666 71.9699 86.5833 71.9713 86.5992 71.9713C86.6271 71.9724 86.6577 71.9735 86.6856 71.9735C87.2661 71.9748 87.8309 71.6685 88.1412 71.1213C88.1694 71.0709 88.1966 71.0195 88.2189 70.9671C88.2415 70.9155 88.2618 70.863 88.2799 70.8094C88.2908 70.7739 88.3011 70.7384 88.3111 70.702C88.3674 70.4859 88.3797 70.2642 88.3526 70.0486C88.3495 70.012 88.3428 69.9753 88.3348 69.9401C88.3303 69.909 88.3236 69.8782 88.3145 69.8477C88.3122 69.8383 88.3111 69.828 88.3078 69.8188C88.3 69.788 88.2897 69.7583 88.281 69.7273C88.2696 69.6923 88.2573 69.6588 88.2437 69.6248C88.2323 69.5927 88.2178 69.5619 88.2033 69.5308C88.2022 69.5275 88.1999 69.5253 88.1999 69.5219C88.1841 69.4887 88.1682 69.4567 88.149 69.4259C88.1325 69.3949 88.1144 69.3641 88.0952 69.3346C88.0941 69.3335 88.093 69.3319 88.093 69.3319C88.0738 69.3013 88.0515 69.2705 88.03 69.2406C88.012 69.2167 87.995 69.194 87.9749 69.171C87.9613 69.1538 87.9468 69.1357 87.9309 69.1196C87.9222 69.1082 87.9119 69.098 87.9019 69.0864C87.8849 69.0672 87.8668 69.05 87.8476 69.0328C87.8445 69.0294 87.8423 69.0261 87.8389 69.0238C87.8276 69.0122 87.815 69.0022 87.8039 68.9906C87.7925 68.9792 87.7791 68.9689 87.7668 68.9586C87.742 68.937 87.7161 68.9165 87.6891 68.8968C87.69 68.8957 87.688 68.8946 87.6891 68.8968L87.6869 68.8946C87.8309 68.5918 87.9716 68.2858 88.1075 67.9783Z" fill="white"/>
<path d="M88.2635 72.1905C88.2635 72.1905 88.6989 71.4789 89.3537 70.3227C89.3457 70.7739 89.2255 71.2173 88.9983 71.6182C88.7518 72.0523 88.393 72.4008 87.9724 72.6358L88.2635 72.1905Z" fill="white"/>
<path d="M88.9973 71.6178C86.9019 75.3524 84.012 79.6264 80.3721 83.0125C83.5285 79.3487 86.9391 74.2042 86.9391 74.2042L87.9692 72.637C88.3912 72.4025 88.7513 72.0531 88.9973 71.6178Z" fill="white"/>
<path d="M88.0213 67.9247C88.0505 67.9419 88.0797 67.96 88.1079 67.9772C87.9719 68.2846 87.8313 68.592 87.6884 68.8945L87.6839 68.8912C87.6725 68.8809 87.6602 68.8729 87.6477 68.8637C87.6364 68.8546 87.6243 68.8465 87.6118 68.8387C87.5859 68.8204 87.5591 68.8032 87.5308 68.7871C87.4959 68.7679 87.4622 68.7485 87.4272 68.7325C87.4015 68.7186 87.3756 68.7061 87.3486 68.6956C87.3082 68.6773 87.2666 68.6617 87.2249 68.6478C87.2079 68.642 87.191 68.6365 87.1742 68.6318C87.1686 68.6284 87.1631 68.6273 87.1573 68.6273C87.1383 68.6204 87.1193 68.6159 87.099 68.6115C87.0787 68.6043 87.0561 68.5998 87.0349 68.5965V67.5831C87.3801 67.6311 87.7163 67.7466 88.0213 67.9247Z" fill="white"/>
<path d="M87.0374 67.4742V67.5836C87.0081 67.5802 86.978 67.5769 86.9476 67.5731L87.0374 67.4742Z" fill="white"/>
<path d="M87.0342 67.1004C86.8827 66.9712 86.6476 66.7647 86.3459 66.4872V30.2291L86.537 29.9299H86.5529C86.7139 29.9299 86.8771 29.9149 87.0342 29.8853V67.1004Z" fill="white"/>
<path d="M86.3471 66.4872C86.6476 66.7647 86.8835 66.9712 87.0354 67.1005V67.4753L86.9456 67.5744C86.8623 67.5666 86.7779 67.5633 86.6924 67.5633C86.5766 67.5633 86.4607 67.5711 86.3459 67.586L86.3471 66.4872Z" fill="white"/>
<path d="M86.6883 72.9701C87.1439 72.9701 87.5815 72.8513 87.9686 72.6365L86.9381 74.204C86.9381 74.204 83.5265 79.3485 80.371 83.0123C78.9741 84.3124 77.8109 85.3943 76.8447 86.2935C74.2136 88.2836 71.4961 89.4671 70.5219 88.56C70.604 88.3544 70.7052 88.0905 70.8177 87.8014C73.8254 85.954 76.6062 83.7388 79.1261 81.1787C79.4039 80.8963 79.6782 80.6097 79.9493 80.3194C79.9526 80.315 79.9582 80.3094 79.9629 80.3047C80.0551 80.2076 80.146 80.1105 80.2328 80.0136C80.2417 80.0042 80.2507 79.9939 80.2587 79.9859C82.3026 77.7536 84.1023 75.335 85.6412 72.7508C85.9707 72.8948 86.3275 72.9701 86.6883 72.9701Z" fill="white"/>
<path d="M85.7262 29.034L85.3391 29.6314C84.8892 29.3973 84.5054 29.0351 84.2458 28.5781C84.1839 28.4694 84.1297 28.3575 84.0848 28.2432C83.9937 28.0171 83.9352 27.7807 83.9096 27.5442C83.8631 27.15 83.9047 26.7523 84.0241 26.3802C84.0962 26.1596 84.1949 25.9471 84.321 25.7495C84.4347 25.5724 84.5673 25.4077 84.7227 25.2617C84.8711 25.1188 85.0377 24.992 85.2212 24.8846C85.6248 24.6468 86.085 24.5225 86.5505 24.5225C86.7262 24.5225 86.8981 24.5405 87.0669 24.5738C87.5504 24.672 87.9983 24.904 88.3582 25.2411C88.554 25.4226 88.7227 25.6349 88.8587 25.8749C88.8587 25.8761 88.8587 25.8738 88.8587 25.8749C88.9962 26.1172 89.0971 26.3791 89.1534 26.6441C89.2447 27.062 89.2367 27.502 89.1255 27.9269C88.942 28.6237 88.4999 29.2075 87.8846 29.5685C87.7047 29.6748 87.5147 29.7571 87.3178 29.8179C87.2267 29.8451 87.132 29.8692 87.0378 29.8864C86.8791 29.9159 86.717 29.9308 86.5563 29.9308C86.5516 29.9308 86.5449 29.9308 86.5404 29.9308L86.5855 29.8587L85.7262 29.034ZM85.0354 27.9577C85.041 27.9715 85.0466 27.9854 85.0546 27.9977C85.0669 28.0251 85.0814 28.0515 85.0973 28.0789C85.1299 28.137 85.1658 28.1921 85.2042 28.2432C85.2163 28.2604 85.2299 28.2778 85.2435 28.2946C85.2569 28.314 85.2717 28.3314 85.2886 28.3497C85.3357 28.4067 85.3886 28.4594 85.4436 28.5085C85.4572 28.5212 85.4708 28.5335 85.4864 28.544C85.4956 28.5529 85.5054 28.5598 85.5145 28.5667C85.5235 28.5737 85.5313 28.5804 85.5404 28.5873C85.5494 28.5942 85.5585 28.6009 85.5675 28.6065C85.5708 28.6103 85.5744 28.6125 85.5788 28.6147C85.5989 28.6295 85.6204 28.6444 85.6418 28.6583C85.69 28.6911 85.7394 28.7197 85.7914 28.7451C85.8115 28.7563 85.834 28.7668 85.8555 28.7768C85.9376 28.8148 86.0207 28.8454 86.1062 28.8695C86.1151 28.8717 86.1231 28.8728 86.131 28.8751C86.139 28.8775 86.1468 28.8786 86.1557 28.8809C86.1725 28.8855 86.1895 28.8889 86.2053 28.8922C86.2245 28.8967 86.2446 28.9016 86.2638 28.9039C86.2671 28.905 86.2683 28.905 86.2705 28.905C86.2964 28.9094 86.3221 28.9139 86.3482 28.9161C86.3806 28.9195 86.4134 28.9233 86.446 28.9255C86.4808 28.9289 86.5147 28.9289 86.5505 28.9289C86.5777 28.9289 86.6056 28.9289 86.6326 28.9266C86.6518 28.9255 86.6719 28.9244 86.6911 28.9233C86.7036 28.9233 86.717 28.9208 86.7284 28.9195C86.7454 28.9184 86.7619 28.9161 86.7789 28.9139C86.805 28.9106 86.8295 28.9072 86.8532 28.9027C86.8856 28.8978 86.9184 28.8911 86.9501 28.882C86.978 28.8751 87.0072 28.8684 87.0345 28.8581C87.0356 28.8592 87.0334 28.8581 87.0345 28.8581H87.0378C87.0443 28.8559 87.051 28.8545 87.0579 28.8512C87.0816 28.8442 87.1041 28.8364 87.1265 28.8271C87.1535 28.8181 87.1791 28.8076 87.2064 28.7951C87.2693 28.769 87.3312 28.738 87.3921 28.7027C88.1952 28.231 88.4707 27.1888 88.0061 26.373C87.8509 26.1 87.6315 25.8854 87.3796 25.7426C86.8791 25.4546 86.2457 25.4365 85.7126 25.7495C85.6833 25.7664 85.6539 25.7847 85.626 25.8031C85.5842 25.8305 85.5438 25.8604 85.5065 25.8921C85.4842 25.9095 85.4628 25.9279 85.4413 25.9457C85.438 25.9493 85.4337 25.9529 85.4304 25.9562C85.4032 25.9803 85.3773 26.0053 85.3527 26.0314C85.3346 26.05 85.3176 26.0683 85.3018 26.0877C85.2909 26.0989 85.2795 26.1127 85.2694 26.1252C85.2513 26.1458 85.2344 26.1674 85.2185 26.1882C85.1895 26.2259 85.1614 26.2659 85.1368 26.3067C85.121 26.3299 85.1073 26.3538 85.0937 26.3779C85.07 26.4177 85.05 26.4588 85.0296 26.5012C85.0174 26.5284 85.0049 26.5572 84.995 26.5847C84.9792 26.6235 84.9644 26.6633 84.9522 26.7032C84.9452 26.7226 84.9397 26.7423 84.9341 26.7628C84.9298 26.78 84.9238 26.7981 84.9207 26.8142C84.9196 26.8164 84.9196 26.8175 84.9196 26.8175C84.9129 26.8452 84.906 26.8736 84.9004 26.901C84.897 26.9227 84.8926 26.9443 84.8903 26.9651C84.887 26.9834 84.8845 27.0006 84.8823 27.0187C84.8778 27.0519 84.8745 27.0837 84.8734 27.1169C84.87 27.1522 84.87 27.1888 84.87 27.2245C84.87 27.2518 84.87 27.2792 84.8723 27.3076C84.8734 27.3339 84.8756 27.3591 84.8778 27.3844C84.8801 27.4094 84.8812 27.4335 84.8856 27.4585C84.8892 27.4871 84.8937 27.517 84.9004 27.5442C84.9026 27.5578 84.9037 27.5717 84.9084 27.5842C84.9106 27.6012 84.914 27.6172 84.9196 27.6333C84.9227 27.6469 84.9261 27.6608 84.931 27.6757C84.9363 27.7007 84.943 27.726 84.9522 27.7498C84.9566 27.7682 84.9633 27.7853 84.9703 27.8023C84.9892 27.855 85.0104 27.9063 85.0354 27.9577Z" fill="white"/>
<path d="M86.3466 29.9205C85.9912 29.8933 85.6481 29.7926 85.3386 29.6314L85.7257 29.034L86.5817 29.8578L86.5368 29.9297C86.4728 29.9297 86.4098 29.9261 86.3466 29.9205Z" fill="white"/>
<path d="M86.3459 29.9208C86.4089 29.9264 86.473 29.9297 86.537 29.9297L86.3459 30.2293V29.9208Z" fill="white"/>
<path d="M86.3459 67.8611C86.4515 67.8725 86.5574 67.8818 86.6641 67.8885L86.3459 68.2462V67.8611Z" fill="white"/>
<path d="M86.3459 67.5847C86.4596 67.5702 86.5766 67.562 86.6924 67.562C86.7768 67.562 86.8612 67.5653 86.9456 67.5736L86.6652 67.8888C86.5585 67.8821 86.4515 67.8727 86.3471 67.8616L86.3459 67.5847Z" fill="white"/>
<path d="M86.4944 68.573C86.4763 68.5753 86.4596 68.5764 86.4417 68.5811C86.4337 68.5811 86.4259 68.5822 86.4181 68.5847C86.3942 68.588 86.3694 68.5913 86.3459 68.5972V68.2462L86.6641 67.8888L86.9445 67.5733C86.9735 67.5769 87.0041 67.5804 87.0342 67.5838V68.5983L87.0309 68.5972C87.0108 68.5925 86.9883 68.588 86.9668 68.5858C86.9565 68.5822 86.9478 68.5811 86.9378 68.5811C86.9186 68.5775 86.8972 68.5742 86.8782 68.5719C86.8646 68.5697 86.851 68.5686 86.8353 68.5686C86.8172 68.5663 86.8005 68.5652 86.7835 68.5652C86.7532 68.563 86.7217 68.5619 86.6902 68.5619C86.6543 68.5619 86.6181 68.563 86.5835 68.5652C86.5529 68.5663 86.5237 68.5686 86.4944 68.573Z" fill="white"/>
<path d="M85.3382 29.6319C85.6476 29.7944 85.9905 29.8936 86.346 29.921V30.2296L75.9704 46.5848C75.7891 45.7327 75.6239 44.8905 75.4709 44.0634L85.0491 30.0764L85.3382 29.6319Z" fill="white"/>
<path d="M86.3462 67.5847C86.1155 67.6157 85.8927 67.676 85.6813 67.764C79.842 66.6629 76.0965 59.5077 75.2088 56.544C74.2618 53.3854 72.9772 48.8509 72.2547 41.5243C72.2527 41.5015 72.2504 41.4776 72.2482 41.4546C71.616 35.105 70.0739 30.1969 69.6846 29.034C71.4878 29.3298 72.7733 29.3095 72.7733 29.3095C72.7733 29.3095 72.9309 30.0759 73.9005 34.9302C74.3819 37.3442 74.8195 40.5556 75.4709 44.0629L74.1604 45.9775L75.5138 47.3053L75.9706 46.5844C76.5631 49.3889 77.3213 52.2988 78.3639 55.0786C80.4406 60.6122 84.5476 64.8246 86.345 66.4867L86.3462 67.5847Z" fill="white"/>
<path d="M85.6788 67.7658C85.8903 67.6778 86.1131 67.6173 86.3435 67.5865V67.8629C86.1184 67.8388 85.8978 67.8059 85.6788 67.7658Z" fill="white"/>
<path d="M85.682 67.7653C85.9012 67.8064 86.1229 67.8397 86.3468 67.8627V68.2476L85.8764 68.7742C85.8436 68.7923 85.8101 68.8117 85.7795 68.8336C85.7494 68.853 85.719 68.8747 85.6898 68.8974C85.6594 68.9193 85.6311 68.9432 85.602 68.9682C85.5739 68.9923 85.5447 69.0187 85.5188 69.045C85.5007 69.062 85.4837 69.0792 85.4694 69.0964C85.3803 69.1899 85.3029 69.2962 85.2363 69.4127C85.2171 69.446 85.2004 69.4801 85.1848 69.5134C85.1712 69.5398 85.1589 69.5648 85.1497 69.5909L85.1475 69.5956L85.106 69.64C84.7729 69.6605 84.4355 69.6677 84.0959 69.6583C84.1542 69.4027 84.2487 69.1524 84.3851 68.9135C84.6831 68.3891 85.1452 67.9895 85.682 67.7653Z" fill="white"/>
<path d="M85.8516 71.7431C85.884 71.7625 85.9168 71.7795 85.9492 71.7955L85.9537 71.7978C85.9876 71.8149 86.0202 71.8299 86.0528 71.8433C86.0832 71.856 86.1146 71.8685 86.1463 71.879C85.9809 72.1715 85.8132 72.4615 85.6409 72.7495C85.5444 72.7084 85.4498 72.6604 85.3587 72.6066C85.091 72.4501 84.8615 72.2536 84.6715 72.0286L85.6063 71.5671C85.6255 71.5843 85.6436 71.6 85.6637 71.6149C85.6896 71.6343 85.7141 71.6529 85.74 71.6723C85.748 71.6768 85.757 71.6835 85.7659 71.689C85.794 71.7087 85.8233 71.7259 85.8516 71.7431Z" fill="white"/>
<path d="M85.8749 68.774L86.3451 68.2471V68.5979C86.3261 68.6012 86.3049 68.6061 86.2845 68.6117C86.2709 68.6151 86.2573 68.6186 86.2415 68.6231C86.2147 68.63 86.1888 68.6381 86.1631 68.647L86.1586 68.6492C86.1236 68.6608 86.0908 68.6735 86.0573 68.6869C86.0336 68.6963 86.0108 68.7066 85.9874 68.718C85.9682 68.726 85.949 68.7361 85.9302 68.7454C85.9144 68.7532 85.8974 68.7613 85.8827 68.7704L85.8749 68.774Z" fill="white"/>
<path d="M85.175 71.0041C85.1783 71.013 85.1841 71.0224 85.1886 71.0313C85.1998 71.0577 85.2134 71.0827 85.2281 71.1066C85.2413 71.1329 85.2571 71.1595 85.2741 71.1834C85.2797 71.1945 85.2864 71.205 85.2944 71.2164C85.3065 71.2358 85.3201 71.2553 85.3348 71.2747C85.3777 71.3343 85.4248 71.3923 85.4777 71.4473C85.4855 71.4564 85.4934 71.4642 85.5025 71.4736C85.5103 71.4825 85.5195 71.4908 85.5284 71.4986C85.5326 71.5031 85.5384 71.5089 85.5429 71.5113C85.5632 71.5316 85.5847 71.5511 85.6061 71.5683L84.6711 72.0299C84.5193 71.8496 84.3923 71.6506 84.2922 71.4392L85.175 71.0041Z" fill="white"/>
<path d="M85.8735 68.7753L85.1469 69.5922C85.1567 69.5657 85.1681 69.5407 85.1815 69.5143C85.1973 69.4804 85.2154 69.4471 85.2333 69.4141C85.2998 69.2973 85.3775 69.1913 85.4661 69.0973C85.4808 69.0792 85.4978 69.062 85.5154 69.0459C85.5427 69.0187 85.5708 68.9934 85.5987 68.9696C85.6271 68.9446 85.6563 68.9204 85.6867 68.8988C85.7159 68.876 85.7461 68.8553 85.7767 68.8347C85.8079 68.8119 85.8407 68.7936 85.8735 68.7753Z" fill="white"/>
<path d="M84.0928 69.6592C84.4324 69.6686 84.7688 69.663 85.1028 69.6411L85.1446 69.5967C85.1345 69.6183 85.1256 69.6411 85.1176 69.6641C85.1142 69.6697 85.112 69.6753 85.1109 69.6835C85.1075 69.6947 85.1028 69.7038 85.0995 69.7155C85.0961 69.7268 85.0917 69.7371 85.0883 69.7483C85.0781 69.7782 85.0693 69.809 85.0613 69.8411C85.0524 69.8742 85.0457 69.9075 85.0399 69.9405C85.0332 69.9722 85.0287 70.0043 85.0243 70.0363C85.0209 70.0535 85.0196 70.0695 85.0184 70.0867C85.0173 70.0925 85.0162 70.0981 85.0162 70.1048C85.0129 70.1287 85.0129 70.1517 85.0117 70.1758C85.0064 70.274 85.0084 70.3712 85.0209 70.4683C85.0231 70.4852 85.0242 70.5024 85.0276 70.5196C85.0309 70.539 85.0332 70.5573 85.0376 70.5765C85.0399 70.5937 85.0434 70.6109 85.0479 70.627C85.049 70.6384 85.0513 70.6489 85.0546 70.66C85.0602 70.6853 85.066 70.7092 85.0738 70.7346C85.0803 70.7607 85.0883 70.786 85.0973 70.811C85.1086 70.8453 85.1198 70.8784 85.1334 70.9103C85.1446 70.9378 85.1557 70.9652 85.1682 70.9927C85.1705 70.9972 85.1716 71.0018 85.1738 71.0063L84.2908 71.4414C84.0321 70.8922 83.9566 70.2624 84.0928 69.6592Z" fill="white"/>
<path d="M84.2927 71.4395C84.3916 71.6495 84.5186 71.8485 84.6716 72.03L74.6818 76.9599C74.7829 76.6467 74.8831 76.3372 74.9818 76.0343L84.2927 71.4395Z" fill="white"/>
<path d="M81.6141 17.1861C82.6875 18.4885 85.7122 22.2276 87.0655 24.5732C86.8979 24.5399 86.7244 24.5218 86.5491 24.5218C86.0845 24.5218 85.6244 24.6462 85.2194 24.8839C85.0359 24.9913 84.8696 25.1181 84.7211 25.261C83.1025 22.7715 81.233 20.4467 79.1261 18.3068C78.7109 17.8853 78.2891 17.4741 77.8605 17.0731C79.2429 16.9347 80.5916 17.0398 81.6141 17.1861Z" fill="white"/>
<path d="M63.0217 15.3601L84.3244 25.7495C84.1984 25.9459 84.0993 26.1587 84.0274 26.3802L64.1072 16.6647C63.7629 16.2215 63.403 15.7862 63.0217 15.3601Z" fill="white"/>
<path d="M83.9062 27.5443C83.9332 27.7809 83.9906 28.0162 84.0817 28.2435H73.1694C73.0006 28.0881 72.7519 27.8539 72.4404 27.5443H83.9062Z" fill="white"/>
<path d="M83.8715 17.4669L82.4902 17.2954C79.1123 13.5895 75.1604 10.4317 70.7791 7.96635L71.525 7.33685C75.3056 9.49493 78.7759 12.1683 81.8829 15.3237C82.5701 16.0217 83.2327 16.7357 83.8715 17.4669Z" fill="white"/>
<path d="M95.8379 48.8392C95.749 42.5579 94.4916 36.4631 92.0968 30.7142C90.0718 25.8519 87.3102 21.4067 83.8682 17.4664L82.4869 17.295C82.5017 17.3099 82.5137 17.3236 82.5285 17.3385C84.7264 19.7535 86.6826 22.4006 88.353 25.2386C88.5488 25.4202 88.7176 25.6325 88.8535 25.8725C88.8535 25.8736 88.8535 25.8714 88.8535 25.8725C88.9908 26.1147 89.0922 26.3764 89.1482 26.6414C92.7962 33.3426 94.8975 41.0293 94.9571 49.198C94.9594 49.3177 94.9594 49.4391 94.9594 49.5588C94.9594 50.3565 94.9402 51.149 94.9009 51.9374C94.8908 52.1693 94.8783 52.3991 94.8636 52.6297C95.1112 52.8284 95.4047 52.9715 95.7244 53.0389C95.7468 52.7121 95.7671 52.3852 95.7829 52.0564C95.8245 51.2281 95.8448 50.3951 95.8448 49.5588C95.8434 49.3201 95.8423 49.0788 95.8379 48.8392Z" fill="white"/>
<path d="M81.6147 17.186L82.4921 17.2957C82.5069 17.3106 82.5194 17.3242 82.5339 17.3392C82.2729 17.289 81.9626 17.2352 81.6147 17.186Z" fill="white"/>
<path d="M81.6147 17.186C81.9626 17.2352 82.2729 17.289 82.5328 17.3403C84.731 19.7555 86.6871 22.4024 88.3575 25.2402C87.9974 24.9031 87.5498 24.6714 87.0662 24.5731C85.7128 22.2276 82.6882 18.4872 81.6147 17.186Z" fill="white"/>
<path d="M79.1255 81.1787C76.606 83.7377 73.8263 85.9542 70.8184 87.8016C71.0916 87.0966 71.4236 86.2353 71.642 85.6662C71.642 85.6662 76.9996 83.3711 79.948 80.3196C79.6778 80.6097 79.4034 80.8965 79.1255 81.1787Z" fill="white"/>
<path d="M76.8445 86.2938C77.8107 85.3934 78.9739 84.3128 80.371 83.0128C79.3508 84.1974 78.1077 85.3387 76.8445 86.2938Z" fill="white"/>
<path d="M76.6785 70.6949C76.6785 70.6949 75.9304 73.1054 74.9853 76.0336L73.1294 76.9487C73.9742 74.0823 74.4747 71.5343 74.6714 70.4388C75.8212 70.6524 76.6785 70.6949 76.6785 70.6949Z" fill="white"/>
<path d="M75.9728 46.5846L75.516 47.3057L74.1628 45.978L75.4734 44.0634C75.6261 44.8905 75.7915 45.7324 75.9728 46.5846Z" fill="white"/>
<path d="M73.1259 76.9494L74.9821 76.0343C74.8843 76.3382 74.7829 76.6478 74.6818 76.9597L72.8459 77.8646C72.9437 77.556 73.0371 77.251 73.1259 76.9494Z" fill="white"/>
<path d="M71.2039 69.335C71.4502 69.4516 71.6967 69.5623 71.9398 69.6641C72.8587 70.0445 73.8395 70.2865 74.6673 70.4408C74.4695 71.5363 73.9689 74.0828 73.125 76.9507L69.5931 78.6928C70.3029 75.1912 70.9825 70.8007 71.2039 69.335Z" fill="white"/>
<path d="M73.1712 28.2435H72.2004V27.5443H72.4422C72.7528 27.8539 73.0013 28.087 73.1712 28.2435Z" fill="white"/>
<path d="M72.0612 90.7424C71.8404 90.7754 71.6415 90.7823 71.4637 90.7618C72.0386 90.4249 72.6055 90.0762 73.1645 89.7154C72.1612 90.6499 72.0688 90.7346 72.0612 90.7424Z" fill="white"/>
<path d="M71.648 85.6662C71.5816 85.6972 70.5252 84.9294 70.0247 84.5606C70.0965 84.4416 70.1653 84.3217 70.2318 84.2018C71.3059 82.2825 72.1744 80.018 72.8506 77.8634L74.6862 76.9587C73.7077 79.9644 72.5905 83.2889 71.8819 85.0551C71.8819 85.0551 71.7897 85.2996 71.648 85.6662Z" fill="white"/>
<path d="M71.5296 7.33662L70.7842 7.96609C64.0798 4.19146 56.3721 2.04137 48.1788 2.04137V1.14227C54.614 1.14227 60.8571 2.42296 66.7343 4.94776C68.3824 5.65608 69.982 6.45348 71.5296 7.33662Z" fill="white"/>
<path d="M70.5209 88.5603C71.4952 89.4671 74.2129 88.2837 76.8438 86.2933C74.9948 88.014 73.8597 89.0695 73.1645 89.715C72.6055 90.076 72.0386 90.4245 71.4635 90.7616C71.2117 90.733 71.0047 90.6484 70.8427 90.4988C70.2209 89.9183 70.1206 89.5596 70.3973 88.8695C70.429 88.7942 70.4716 88.688 70.5209 88.5603Z" fill="white"/>
<path d="M71.2087 69.3339C70.987 70.8009 70.3077 75.1912 69.5977 78.6919L66.5449 80.1975C67.3167 74.6451 67.2549 67.0147 67.2549 67.0147C67.2549 67.0147 69.2291 68.3915 71.2087 69.3339Z" fill="white"/>
<path d="M75.2077 56.5447C74.2606 53.3858 72.976 48.8515 72.254 41.5249C72.2518 41.5019 72.2493 41.478 72.2471 41.4553C71.6151 35.1054 70.0728 30.1974 69.6835 29.0344C68.4732 28.8371 67.0301 28.4986 65.5858 27.9161C66.0401 28.6518 66.9187 30.248 67.6396 32.5956C68.6621 35.9237 68.8422 40.2604 68.8422 40.2604C68.8422 40.2604 68.8612 40.7344 68.9007 41.4975C68.9681 42.8571 69.0963 45.1352 69.2787 47.2956C69.5633 50.669 70.1121 56.202 72.2091 61.5143C74.166 66.4726 79.3272 69.5366 84.0944 69.6598C84.1527 69.4042 84.2473 69.1539 84.3833 68.9151C84.6816 68.3895 85.1439 67.991 85.6804 67.766C79.8414 66.6644 76.0954 59.5082 75.2077 56.5447Z" fill="white"/>
<path d="M55.4878 15.2315C56.0527 15.5685 56.597 15.9386 57.1359 16.3179C57.6757 16.6984 58.1988 17.1039 58.7096 17.5267C59.7355 18.3675 60.7131 19.2735 61.632 20.2469C60.8457 19.1569 59.9299 18.1664 58.9617 17.2318C57.9874 16.3054 56.9367 15.4519 55.812 14.7048C55.2474 14.3323 54.6669 13.9839 54.0639 13.6732C53.4586 13.3681 52.8389 13.0894 52.2013 12.8529C52.0414 12.7946 51.8782 12.7421 51.7173 12.6895C51.6353 12.6632 51.5565 12.6347 51.4735 12.6107L51.227 12.5433C51.0616 12.4999 50.8984 12.4473 50.7309 12.413L50.2304 12.3022C50.0627 12.2657 49.8928 12.2463 49.7243 12.2177L49.47 12.1777C49.3856 12.1663 49.3003 12.1594 49.2146 12.1503C49.0447 12.1354 48.8748 12.1149 48.704 12.1034L48.5408 12.0977V9.16278C53.7185 9.26675 57.3283 10.6571 60.0505 12.6438L62.0899 15.6839L64.1046 16.6663C65.0595 17.8911 65.8918 19.1625 66.6895 20.3931C68.9258 23.8478 71.1936 26.3029 72.4454 27.5471H72.2034V28.2461H73.1744C73.3295 28.389 73.4195 28.4667 73.4298 28.4772C71.6953 28.2506 70.0169 27.8177 68.405 27.2466C66.6939 26.3397 64.9876 25.0998 62.8122 23.3702C60.6365 21.6418 59.2046 20.1875 55.8455 17.898C52.8759 15.8735 49.3248 15.6393 48.5419 15.6107V12.8929L48.6578 12.8963C48.8174 12.9077 48.9761 12.9237 49.136 12.9386C49.2157 12.9466 49.2954 12.9511 49.3753 12.9625L49.6128 12.998C49.7714 13.0243 49.9312 13.0414 50.0886 13.0745C50.722 13.1888 51.3431 13.3658 51.9581 13.5646C52.571 13.7726 53.1718 14.0216 53.7625 14.2992C54.055 14.4455 54.3474 14.5894 54.633 14.7471C54.9232 14.8978 55.2045 15.0669 55.4878 15.2315Z" fill="white"/>
<path d="M66.5403 80.1978L69.5933 78.6921C69.5337 78.9891 69.4719 79.278 69.4121 79.559L66.4142 81.0374C66.4593 80.7642 66.5008 80.4833 66.5403 80.1978Z" fill="white"/>
<path d="M69.4098 79.5584C69.4696 79.2775 69.5315 78.9884 69.5911 78.6913L73.123 76.949C73.0343 77.2508 72.9408 77.5558 72.8441 77.8641L69.4098 79.5584Z" fill="white"/>
<path d="M66.4157 81.037L69.4133 79.5586C69.3437 79.8832 69.274 80.1973 69.2052 80.4945C68.2131 84.7683 65.177 88.4926 61.1491 91.0255C57.122 93.5594 50.5989 94.0095 50.5989 94.0095C51.4673 93.5572 52.3648 92.634 53.1973 91.5637C57.6651 92.3119 64.5517 88.3625 65.9296 83.3633C66.1174 82.6822 66.2784 81.893 66.4157 81.037Z" fill="white"/>
<path d="M74.8456 66.9017C73.4699 65.6497 71.3213 61.9481 70.4046 58.1941C69.4877 54.4387 69.1729 52.4236 68.9919 47.631C68.8851 44.7715 68.8512 42.7004 68.8421 41.495C68.8365 40.6803 68.8409 40.2611 68.8409 40.2611C68.8409 40.2611 68.6612 35.9246 67.6387 32.5965C66.9176 30.2487 66.0391 28.6527 65.5845 27.9168C65.526 27.8929 65.4689 27.869 65.4104 27.8449C61.8151 26.346 60.6128 25.6354 60.5756 25.6137C60.6385 25.6983 64.6623 31.1797 65.624 37.3581C65.8232 38.6342 65.9344 39.8521 65.9864 41.0244C66.1875 45.5746 65.4892 49.4304 65.4892 53.2713C65.4892 58.1026 67.5407 67.1692 76.8514 68.7706C76.8514 68.7706 76.2213 68.1529 74.8456 66.9017Z" fill="white"/>
<path d="M55.8444 17.8946C59.2046 20.1841 60.6354 21.6384 62.8108 23.3671C64.9853 25.0967 66.6917 26.3351 68.4027 27.2421C63.6217 25.549 59.4316 22.6449 56.1607 20.3681C51.7871 17.3224 48.5408 16.6884 48.5408 16.6884V15.6075C49.3237 15.6361 52.8748 15.8714 55.8444 17.8946Z" fill="white"/>
<path d="M63.0202 15.3604L62.5558 15.1343L61.9753 14.2694C62.3422 14.6224 62.6884 14.988 63.0202 15.3604Z" fill="white"/>
<path d="M61.978 14.2696C61.3875 13.695 60.7486 13.1477 60.0545 12.6416L55.5436 5.9126C55.861 5.96515 56.177 6.02342 56.492 6.08625L61.978 14.2696Z" fill="white"/>
<path d="M64.1066 16.6634L62.0917 15.6809L60.0522 12.6408C60.7477 13.1469 61.3853 13.6941 61.976 14.2688L62.5565 15.1336L63.0211 15.3598C63.4022 15.7859 63.7621 16.2212 64.1066 16.6634Z" fill="white"/>
<path d="M56.32 85.1911C56.4651 84.9132 56.6125 84.6232 56.7641 84.3168C57.5111 82.8056 58.0795 81.8159 58.5314 81.0209L58.5325 81.0176C58.9792 80.2306 59.309 79.6352 59.5834 78.9132C60.1344 77.4589 61.0702 74.0587 61.3189 71.0943C61.5101 68.799 60.9061 66.4615 59.9274 64.3665C59.6416 63.7552 59.3233 63.1645 58.9859 62.6003C57.4865 60.1039 52.0759 56.3728 51.4448 56.0402C50.8136 55.7088 50.9938 55.4804 51.1746 55.3423C51.3548 55.2041 53.1368 54.1519 53.1368 54.1519C53.1368 54.1519 55.8644 55.0784 58.0726 57.0823C60.2817 59.0847 60.9702 60.4135 60.9702 60.4135C60.9702 60.4135 58.7497 54.5986 59.1322 54.4729C59.5146 54.347 62.6036 56.3043 63.6855 59.2245C64.7676 62.1431 64.5316 68.1879 63.6855 71.5535C62.8398 74.9191 60.9691 77.6908 59.7856 80.0373C58.9984 81.5991 57.9038 83.6087 57.2604 84.7763L56.3671 85.2172L56.32 85.1911Z" fill="white"/>
<path d="M58.7261 80.4909C59.915 78.5816 60.608 68.0975 60.2771 65.6105C60.2199 65.182 60.0893 64.7708 59.9063 64.3779L59.9297 64.3663C60.9085 66.4626 61.5126 68.7992 61.321 71.0941C61.0739 74.0589 60.1378 77.4589 59.5855 78.9132C59.3111 79.6365 58.9802 80.2315 58.535 81.0174C58.6078 80.8359 58.671 80.6622 58.7261 80.4909Z" fill="white"/>
<path d="M66.4175 81.0367L56.6818 85.8396C56.7155 85.7722 56.7322 85.7367 56.7322 85.7367C56.7322 85.7367 56.9416 85.3608 57.2656 84.7736L66.5434 80.1957C66.5041 80.4826 66.4624 80.7635 66.4175 81.0367Z" fill="white"/>
<path d="M56.6724 85.8459L56.3721 85.2165L57.2653 84.7754C56.9412 85.3626 56.732 85.7385 56.732 85.7385C56.732 85.7385 56.715 85.774 56.6815 85.8414L56.6724 85.8459Z" fill="white"/>
<path d="M54.9736 3.82343L56.4899 6.08545C56.1738 6.02263 55.859 5.96436 55.5415 5.91183L54.4054 4.21756L54.9736 3.82343Z" fill="white"/>
<path d="M54.5126 48.8625C55.3583 50.1111 55.5003 51.0604 55.7084 52.1425C55.866 52.9603 55.9591 54.0719 55.9953 54.5655C55.8354 54.4626 55.6733 54.3713 55.5159 54.2936C54.5238 53.8125 54.3878 53.6471 54.4338 53.5499C54.4789 53.4515 55.1717 52.9661 54.9636 52.0668C54.7555 51.1678 53.464 48.7243 51.5373 49.1471C51.5373 49.1471 51.364 42.8805 51.5598 42.1641C51.5676 42.1346 51.5777 42.1047 51.59 42.075C51.7431 41.6913 52.2088 41.32 52.7509 40.848L52.8802 40.9215C52.9344 40.886 53.0862 40.8552 53.4271 40.848C53.0445 41.1316 52.5214 41.6149 52.5058 41.6834C52.4879 41.7587 52.337 44.6833 52.6295 45.7929C52.9241 46.9043 53.6689 47.6149 54.5126 48.8625Z" fill="white"/>
<path d="M55.542 5.91223C53.9909 5.64377 52.4205 5.46329 50.8356 5.36731C50.7557 3.94953 49.5936 2.81967 48.1788 2.81967V2.04163C56.3721 2.04163 64.0798 4.19174 70.7842 7.96639C75.1655 10.4318 79.1158 13.5906 82.495 17.2955L81.6176 17.1858C80.5951 17.0396 79.2462 16.9358 77.8649 17.074C74.1386 13.5735 69.8898 10.7882 65.2159 8.77864C62.3935 7.56651 59.4778 6.66628 56.4924 6.0859L54.9763 3.82385L54.407 4.21687L55.542 5.91223Z" fill="white"/>
<path d="M63.9599 40.7925C63.951 40.7375 63.9418 40.6804 63.9307 40.6212L60.1918 40.2703C59.808 40.7103 59.1365 41.3761 58.4087 41.7315C57.3772 42.2354 55.8834 41.3544 55.2634 40.9304C54.6428 40.5069 53.9172 40.5125 53.5334 40.7766C53.4999 40.7994 53.466 40.8246 53.4287 40.8518C54.3659 40.8324 54.8676 41.4196 55.8439 42.1909C56.8215 42.9618 57.7371 43.244 59.0083 42.6946C60.2782 42.1452 63.0441 41.0691 63.0441 41.0691C63.0441 41.0691 61.9622 43.5115 59.9634 47.343C57.9644 51.175 57.5438 53.4497 57.4234 54.1967C57.3468 54.6767 57.5605 55.0822 57.7235 55.3106C57.853 54.8227 58.1457 54.2936 58.6156 53.5355C58.8148 53.2153 59.0431 52.8543 59.3064 52.4373C60.4447 50.6275 62.5753 47.0338 63.1274 45.9117C63.5067 45.1384 63.888 43.8428 63.9981 42.5323C64.049 41.9384 64.0441 41.3419 63.9599 40.7925Z" fill="white"/>
<path d="M63.0412 41.0668C63.0412 41.0668 61.9591 43.5093 59.9603 47.3412C57.9614 51.1727 57.5404 53.4475 57.4203 54.1945C57.3437 54.6745 57.5573 55.0799 57.7205 55.3083C57.6679 55.5106 57.6429 55.7037 57.6464 55.9049C57.6464 55.9049 56.8409 55.1074 55.995 54.5682C55.9591 54.0746 55.8657 52.963 55.7083 52.1448C55.5003 51.0631 55.3585 50.1127 54.5124 48.8652C53.6678 47.6163 52.9241 46.9068 52.6305 45.7963C52.3381 44.686 52.4888 41.7614 52.5069 41.6873C52.5227 41.6194 53.0456 41.1365 53.428 40.8518C54.365 40.8324 54.8667 41.4198 55.8432 42.1909C56.8206 42.9621 57.7364 43.244 59.0074 42.6948C60.2753 42.1429 63.0412 41.0668 63.0412 41.0668Z" fill="white"/>
<path d="M55.1409 39.4692C55.1409 39.515 56.16 40.7967 57.5471 40.8835C58.934 40.9693 59.9317 39.6476 60.2356 39.5205C60.2905 39.4978 60.3403 39.4875 60.3818 39.4875C60.572 39.4875 60.6258 39.6931 60.5055 39.876C60.4628 39.9412 60.3523 40.0861 60.1918 40.2687C59.808 40.7087 59.1365 41.3747 58.4087 41.7301C57.3775 42.2338 55.8834 41.353 55.2634 40.9293C54.6428 40.5053 53.9172 40.5109 53.5334 40.775C53.4999 40.7978 53.466 40.8228 53.4289 40.8503C53.088 40.8574 52.9364 40.8869 52.8822 40.9235L52.7529 40.8503C53.1758 40.4826 53.6462 40.0541 54.0554 39.5105C55.033 38.2138 56.3739 37.5646 57.2524 37.5177C58.1321 37.4722 58.6507 37.6608 59.7328 38.2616C60.8136 38.8626 61.023 38.9608 60.9723 39.1665C60.9339 39.3218 60.7801 39.3502 60.4537 39.2314C60.3481 39.1937 60.2253 39.1401 60.0824 39.0693C59.4964 38.7827 58.178 38.1989 57.2301 38.3759C56.2848 38.5541 55.1409 39.4237 55.1409 39.4692Z" fill="white"/>
<path d="M46.4944 5.52411C46.4944 6.46663 47.247 7.22981 48.1739 7.22981C49.1007 7.22981 49.8532 6.46663 49.8532 5.52411C49.8532 5.45441 49.8499 5.38589 49.841 5.31847C49.7418 4.47423 49.0332 3.81844 48.175 3.81844C47.3168 3.81844 46.6082 4.47307 46.5091 5.31847C46.4979 5.38473 46.4944 5.45441 46.4944 5.52411ZM48.1739 2.81995C49.5903 2.81995 50.7523 3.94982 50.8307 5.36758C50.834 5.419 50.8356 5.47156 50.8356 5.52411C50.8356 7.01501 49.6407 8.2283 48.1728 8.2283C46.7047 8.2283 45.5103 7.01501 45.5103 5.52411C45.5103 5.47156 45.5125 5.419 45.5147 5.36758C45.5955 3.94982 46.7578 2.81995 48.1739 2.81995Z" fill="white"/>
<path d="M50.5969 94.0099C50.5969 94.0099 57.1198 93.5599 61.1471 91.0257C65.1751 88.4928 68.2109 84.7674 69.2033 80.4947C69.2718 80.1978 69.3417 79.8834 69.4114 79.559L72.8446 77.8647C72.1684 80.0194 71.3001 82.2837 70.2258 84.203C70.1595 84.3229 70.0896 84.443 70.0188 84.5617C68.2449 87.5482 65.3517 90.2842 61.5936 92.0721C61.5947 92.0732 61.5925 92.0745 61.5936 92.0721C58.1142 93.2122 54.5124 93.899 50.8331 94.1196C50.6945 94.1285 50.5552 94.1367 50.4156 94.1434L50.5969 94.0099Z" fill="white"/>
<path d="M50.4148 94.1432C50.5543 94.1363 50.6936 94.1285 50.832 94.1191C54.5117 93.8987 58.1099 93.2133 61.5903 92.0732C58.4183 93.5833 54.6285 94.4209 50.3766 94.1649C50.4023 94.1524 50.4148 94.1432 50.4148 94.1432Z" fill="white"/>
<path d="M48.1741 2.04163V2.81967C46.7577 2.81967 45.5957 3.94953 45.5171 5.36731C43.9322 5.46329 42.3618 5.64377 40.8107 5.91226L41.9466 4.21799L41.3775 3.82502L39.8612 6.08707C36.8758 6.66856 33.9601 7.56765 31.1379 8.7798C26.464 10.7894 22.2155 13.5735 18.4886 17.0751C17.1074 16.9369 15.7587 17.0407 14.7362 17.187C14.3886 17.2361 14.078 17.2899 13.8184 17.3412C22.3682 7.93665 34.6057 2.04163 48.1741 2.04163Z" fill="white"/>
<path d="M48.1713 1.14386V2.04296C34.6031 2.04296 22.3656 7.93798 13.8131 17.3403C12.4836 18.8015 11.2428 20.3473 10.1022 21.9684L9.25293 21.5844C10.803 19.3659 12.542 17.2751 14.4621 15.3262C18.8401 10.8798 23.9391 7.38846 29.6154 4.95048C35.4914 2.42338 41.7348 1.14386 48.1713 1.14386Z" fill="white"/>
<path d="M63.493 38.8524C62.9179 36.8567 62.0137 34.3147 61.638 33.3049C61.1194 31.9078 59.9924 26.962 55.7764 23.3906C52.3624 20.4969 49.2375 20.169 48.1743 20.1484C47.1114 20.169 43.9878 20.4969 40.5727 23.3906C36.3567 26.962 35.2295 31.9078 34.7109 33.3049C34.3354 34.3147 33.4307 36.8567 32.8561 38.8524C33.4915 38.3476 34.7571 37.4461 36.2462 36.963C36.0439 36.4923 35.6289 35.2664 35.9167 33.6362C36.2891 31.5307 37.686 28.4964 39.6828 26.1839C41.605 23.9563 45.504 22.3442 48.1754 22.2803C50.8474 22.3442 54.7459 23.9563 56.6683 26.1839C58.6638 28.4964 60.0609 31.5307 60.4344 33.6362C60.7224 35.2664 60.3072 36.4934 60.1047 36.963C61.592 37.4472 62.8574 38.3476 63.493 38.8524Z" fill="white"/>
<path d="M60.4514 33.5891C60.079 31.4833 58.6819 28.4491 56.6853 26.1368C54.7628 23.9089 50.7043 22.2689 48.0325 22.2048V35.4859C47.8932 36.9757 47.5724 37.9881 47.3315 40.1885C47.0009 43.2286 47.3315 49.7443 47.3315 51.8737C47.3315 53.5955 47.81 54.8689 48.0328 55.294L48.1728 55.4365C49.0414 55.3335 50.26 54.1771 50.5143 53.7703C50.7685 53.3638 50.7842 52.9695 50.8855 52.9695C50.9878 52.9695 51.9587 53.2709 52.4626 53.1901C52.9654 53.1099 53.4726 52.6554 53.645 52.4165C53.818 52.1754 53.799 51.9686 53.3333 51.3404C52.8674 50.7097 52.2668 50.5155 51.691 50.9358C51.117 51.3551 50.4513 51.596 50.4513 51.596C50.4513 51.596 50.1026 51.5505 50.1026 49.0884C50.1026 46.9681 50.1104 44.281 50.1126 41.787C50.1137 41.385 50.1137 40.9887 50.1137 40.6C50.1137 37.801 50.9181 36.9339 51.835 36.7055C52.7517 36.476 55.7349 36.4003 58.5604 36.5981C59.0949 36.6347 59.6211 36.7513 60.1218 36.9134C60.3243 36.4461 60.7394 35.2204 60.4514 33.5891Z" fill="white"/>
<path d="M51.1113 59.612C49.0527 59.7652 48.1753 60.6814 48.1753 60.6814C48.1753 60.6814 47.2979 59.7652 45.2392 59.612C43.2956 59.4678 41.2436 60.9851 39.9331 62.837C40.1796 63.1399 40.8525 63.7487 42.2708 63.7945C44.1357 63.8539 45.9152 62.9341 45.9693 62.9066C45.9693 62.9066 46.896 63.6813 48.1753 63.7865C49.453 63.6813 50.3801 62.9055 50.3801 62.9055C50.4339 62.933 52.2144 63.8539 54.0797 63.7945C55.4981 63.7487 56.1707 63.1399 56.4172 62.837C55.1067 60.9851 53.055 59.4678 51.1113 59.612Z" fill="white"/>
<path d="M49.8137 66.0699C49.5474 65.773 49.0611 65.3412 48.1717 65.2499C47.2807 65.3412 46.7949 65.773 46.5292 66.0699C46.3086 66.3144 46.1255 66.478 45.8677 66.7519H48.1728H50.4775C50.2187 66.478 50.0343 66.3144 49.8137 66.0699Z" fill="white"/>
<path d="M47.8082 15.6092V16.69C47.8082 16.69 44.5617 17.324 40.1881 20.3697C36.9174 22.6467 32.7271 25.5497 27.9463 27.2439C29.6571 26.3366 31.3626 25.0985 33.5382 23.3687C35.7136 21.6402 37.1455 20.1859 40.5044 17.8964C43.4728 15.872 47.0251 15.6366 47.8082 15.6092Z" fill="white"/>
<path d="M51.3884 67.8019C51.2444 67.6394 51.0759 67.4385 50.8618 67.1837C50.7144 67.0089 50.5896 66.8696 50.4784 66.752H48.1733H45.8686C45.7575 66.8696 45.6324 67.01 45.4849 67.1837C45.2712 67.4385 45.1038 67.6394 44.9586 67.8019C44.9586 67.8019 44.5954 70.7161 44.9667 72.3648C45.3375 74.0133 46.3861 75.2379 47.1307 76.9666C47.2477 77.2396 47.349 77.5196 47.4368 77.8015C47.4716 77.9147 47.5053 78.0277 47.5357 78.1398C47.9192 79.5233 48.0081 80.8305 48.1722 81.0794C48.3365 80.8305 48.4267 79.5244 48.808 78.142C48.8393 78.0277 48.8732 77.9147 48.908 77.8004C48.9958 77.5196 49.0971 77.2385 49.2139 76.9655C49.9587 75.2368 51.0058 74.0122 51.3781 72.3637C51.7516 70.7161 51.3884 67.8019 51.3884 67.8019Z" fill="white"/>
<path d="M53.6707 71.6712C53.2501 69.8237 52.1532 68.4657 51.8755 68.2667C51.719 68.1549 51.5716 68.0095 51.3872 67.8017C51.3872 67.8017 51.7507 70.7161 51.3794 72.3646C51.0081 74.0133 49.9597 75.2381 49.2149 76.9663C49.0982 77.2394 48.997 77.5194 48.9091 77.8015C48.8742 77.9156 48.8405 78.029 48.8091 78.1433C48.4264 79.5253 48.3366 80.8314 48.1734 81.0803C48.0091 80.8314 47.9192 79.5231 47.5369 78.1409C47.5064 78.0277 47.4729 77.9145 47.4378 77.8027C47.3501 77.5218 47.2489 77.2405 47.1317 76.9675C46.3872 75.2392 45.3399 74.0145 44.9675 72.3657C44.5964 70.7172 44.9597 67.8028 44.9597 67.8028C44.7753 68.0118 44.6279 68.156 44.4716 68.2679C44.1946 68.4668 43.0971 69.8248 42.6764 71.6723C42.5603 72.1831 42.5467 72.6649 42.6041 73.1299C42.7043 73.9482 43.0227 74.7135 43.3826 75.4799C43.5592 75.8559 43.7461 76.2341 43.9224 76.6178C44.575 78.0471 47.5177 82.9105 48.1734 83.9902C48.8294 82.9105 51.7719 78.0471 52.4242 76.6178C52.5997 76.2341 52.7875 75.857 52.9643 75.4799C53.3242 74.7146 53.6423 73.9493 53.7426 73.131C53.8011 72.6649 53.7865 72.1809 53.6707 71.6712Z" fill="white"/>
<path d="M43.0335 51.3897C43.4994 50.7591 44.0998 50.565 44.676 50.9852C45.2495 51.4045 45.9153 51.6456 45.9153 51.6456C45.9153 51.6456 46.2642 51.5998 46.2642 49.138C46.2642 47.0175 46.2564 44.3306 46.2542 41.8366C46.2531 41.4343 46.2531 41.0378 46.2531 40.6496C46.2531 37.8506 45.4487 36.9835 44.532 36.7551C43.6151 36.5252 40.6319 36.4499 37.8064 36.6475C37.2719 36.6843 36.7457 36.8006 36.2452 36.963C36.0425 36.4921 35.6274 35.2664 35.9154 33.636C36.2878 31.5305 37.685 28.4962 39.6813 26.1839C41.604 23.9561 45.5027 22.3442 48.1744 22.2801V35.5611C48.0347 37.0509 47.7478 38.0574 47.5073 40.2575C47.1765 43.2976 47.3689 49.8566 47.3689 51.9861C47.3689 53.7076 47.9516 54.9804 48.1744 55.4052V55.426C47.3057 55.3233 46.1068 54.224 45.8523 53.8174C45.5983 53.4107 45.5824 53.0164 45.4815 53.0164C45.379 53.0164 44.4081 53.3182 43.9042 53.237C43.4003 53.1573 42.8942 52.7023 42.7218 52.4636C42.5488 52.2249 42.5669 52.0182 43.0335 51.3897Z" fill="white"/>
<path d="M45.9666 94.1649C41.7147 94.4209 37.9249 93.5833 34.7529 92.0732C38.2319 93.2133 41.8317 93.8987 45.5112 94.1191C45.6494 94.1285 45.7889 94.1363 45.9284 94.1432C45.9284 94.1432 45.9407 94.1512 45.9666 94.1649Z" fill="white"/>
<path d="M26.9347 79.5586L29.9323 81.037C30.0694 81.893 30.2315 82.6822 30.4195 83.3633C31.7974 88.3625 38.684 92.3119 43.152 91.5637C43.9843 92.6351 44.882 93.5572 45.7502 94.0095C45.7502 94.0095 39.2274 93.5594 35.2001 91.0255C31.1719 88.4926 28.136 84.7672 27.1439 80.4945C27.0742 80.1962 27.0041 79.8832 26.9347 79.5586Z" fill="white"/>
<path d="M35.9361 39.2142C35.5785 39.3524 35.4108 39.3297 35.3704 39.1665C35.3195 38.9608 35.5287 38.8626 36.6097 38.2616C37.692 37.6608 38.2104 37.4722 39.09 37.5177C39.9686 37.5635 41.3105 38.2123 42.2868 39.5105C42.7255 40.093 43.2352 40.5431 43.6795 40.9282L43.4726 40.9326C43.4299 40.8913 43.2837 40.8574 42.9146 40.8491C42.8787 40.8217 42.8439 40.7978 42.8099 40.7739C42.4264 40.5098 41.6997 40.5042 41.0799 40.9282C40.4604 41.3519 38.9664 42.2327 37.9349 41.729C37.2071 41.3736 36.5353 40.7076 36.152 40.2676C35.9921 40.0838 35.8819 39.9387 35.8381 39.8749C35.7189 39.692 35.7718 39.4873 35.9596 39.4862C36.0024 39.4862 36.0518 39.4967 36.108 39.5194C36.413 39.6465 37.4094 40.9681 38.7965 40.8824C40.1822 40.7967 41.2025 39.515 41.2025 39.4681C41.2025 39.4225 40.0596 38.553 39.1126 38.3748C38.1644 38.1966 36.8459 38.7813 36.2598 39.0682C36.1384 39.1285 36.0303 39.1767 35.9361 39.2142Z" fill="white"/>
<path d="M43.6847 40.9273C44.1886 41.3627 44.6107 41.7147 44.757 42.0766C44.769 42.1052 44.7793 42.1362 44.7871 42.1659C44.9831 42.8833 44.8097 49.1483 44.8097 49.1483C42.883 48.7245 41.5914 51.1694 41.3834 52.0684C41.1753 52.9675 41.868 53.4533 41.9131 53.5513C41.958 53.6486 41.8232 53.8141 40.831 54.2952C40.6736 54.3718 40.5115 54.4642 40.3517 54.5671C40.3879 54.0735 40.4814 52.9619 40.6386 52.1439C40.8466 51.062 40.9886 50.1114 41.8345 48.8641C42.6791 47.6154 43.4228 46.9059 43.7164 45.7952C44.0088 44.6849 43.8581 41.7603 43.8401 41.6859C43.8244 41.6185 43.3013 41.1354 42.9189 40.851C43.2888 40.8576 43.4351 40.8931 43.4766 40.9342L43.6847 40.9273Z" fill="white"/>
<path d="M43.8396 41.6846C43.8577 41.7598 44.0082 44.6844 43.7157 45.7936C43.4233 46.9041 42.6787 47.6138 41.8339 48.8625C40.988 50.1111 40.8462 51.0604 40.6381 52.1421C40.4807 52.9603 40.3872 54.0719 40.3515 54.5655C39.5042 55.1047 38.7003 55.9022 38.7003 55.9022C38.7034 55.701 38.6786 55.5079 38.6257 55.3056C38.7889 55.0783 39.0037 54.6729 38.926 54.1918C38.8048 53.4437 38.3839 51.1689 36.3862 47.3385C34.3874 43.5065 33.3053 41.0641 33.3053 41.0641C33.3053 41.0641 36.071 42.1402 37.3411 42.6897C38.6112 43.2404 39.5279 42.9569 40.5055 42.186C41.4818 41.4146 41.9835 40.8275 42.9205 40.8469C43.3007 41.1327 43.8238 41.6156 43.8396 41.6846Z" fill="white"/>
<path d="M34.756 92.0734C34.7569 92.0756 34.7549 92.0745 34.756 92.0734C30.9977 90.2854 28.1012 87.5482 26.3283 84.5617C26.2567 84.443 26.1881 84.3229 26.1214 84.203C25.0473 82.2837 24.1788 80.0194 23.5028 77.8647L26.9358 79.559C27.0057 79.8834 27.0753 80.1978 27.1439 80.4947C28.1363 84.7685 31.1723 88.4928 35.2005 91.0257C39.2274 93.5599 45.7505 94.0099 45.7505 94.0099L45.9326 94.1423C45.7933 94.1356 45.6538 94.1274 45.5154 94.1184C41.8348 93.899 38.2352 93.2134 34.756 92.0734Z" fill="white"/>
<path d="M41.9444 4.21756L40.8085 5.91183C40.491 5.96436 40.174 6.02263 39.859 6.08545L41.3754 3.82343L41.9444 4.21756Z" fill="white"/>
<path d="M40.8078 5.9126L36.2973 12.6416C35.6019 13.1477 34.9643 13.695 34.3735 14.2696L39.8598 6.08625C40.1757 6.02342 40.4907 5.96515 40.8078 5.9126Z" fill="white"/>
<path d="M58.5317 73.1594C58.5281 73.1078 58.4415 71.2892 58.3247 69.1218C58.2031 66.9239 57.9332 65.1691 56.6407 63.1687C56.5688 63.0569 56.4945 62.9459 56.4168 62.8374C56.1703 63.1399 55.4979 63.7492 54.0793 63.7947C52.2145 63.8541 50.4347 62.9345 50.3809 62.9071C50.4775 63.3114 50.8644 64.0838 52.2381 65.3372C53.8837 66.837 54.9929 68.1634 55.9951 69.4326C56.1391 69.6154 56.282 69.797 56.4226 69.9776C56.6104 70.2187 56.7959 70.4576 56.9836 70.6953C57.4156 71.2423 57.77 71.7862 58.0526 72.2684C58.2448 72.6008 58.4047 72.9033 58.5317 73.1594Z" fill="white"/>
<path d="M42.2661 63.7947C40.8476 63.7492 40.1749 63.1399 39.9286 62.8374C39.851 62.9459 39.7768 63.0569 39.7047 63.1687C38.4123 65.1691 38.141 66.9239 38.0209 69.1218C37.9028 71.2892 37.8162 73.1078 37.814 73.1594C37.941 72.9033 38.0995 72.6008 38.2942 72.2695C38.5764 71.7873 38.9309 71.2423 39.3629 70.6953C39.5507 70.4576 39.7364 70.2176 39.9242 69.9776C40.0648 69.797 40.2077 69.6154 40.3515 69.4326C41.3539 68.1634 42.463 66.837 44.1087 65.3372C45.4824 64.085 45.869 63.3114 45.9659 62.9071C45.9108 62.9356 44.1312 63.8552 42.2661 63.7947Z" fill="white"/>
<path d="M39.977 85.2165L39.677 85.8459L39.6667 85.8414C39.6328 85.774 39.616 85.7385 39.616 85.7385C39.616 85.7385 39.4068 85.3626 39.0829 84.7754L39.977 85.2165Z" fill="white"/>
<path d="M39.0818 84.7758C39.4055 85.363 39.6147 85.739 39.6147 85.739C39.6147 85.739 39.6317 85.774 39.6654 85.8414L29.9296 81.0388C29.8859 80.7657 29.8428 80.4849 29.8037 80.1991L39.0818 84.7758Z" fill="white"/>
<path d="M43.2099 54.1519C43.2099 54.1519 44.9915 55.2041 45.1716 55.3423C45.3525 55.4804 45.5326 55.7088 44.9015 56.0402C44.2704 56.3728 38.8597 60.1039 37.3604 62.6003C37.0219 63.1645 36.7047 63.7552 36.4189 64.3665C35.4401 66.4626 34.8362 68.799 35.0273 71.0943C35.2749 74.0587 36.2108 77.4587 36.7629 78.9132C37.0378 79.6363 37.3682 80.2317 37.8138 81.0176L37.8149 81.0209C38.2661 81.8159 38.8341 82.8056 39.5822 84.3168C39.7338 84.622 39.8811 84.9132 40.0263 85.1907L39.9803 85.2161L39.087 84.775C38.4436 83.6064 37.3492 81.598 36.5618 80.0361C35.3783 77.6897 33.5065 74.9191 32.6619 71.5524C31.8158 68.188 31.5798 62.142 32.6619 59.2229C33.7441 56.3031 36.8328 54.3459 37.2152 54.4718C37.5977 54.5972 35.3772 60.4124 35.3772 60.4124C35.3772 60.4124 36.0657 59.0847 38.2748 57.0812C40.4819 55.0784 43.2099 54.1519 43.2099 54.1519Z" fill="white"/>
<path d="M40.5067 42.188C41.483 41.4171 41.9846 40.8297 42.9216 40.8492C42.8859 40.8217 42.8509 40.7978 42.8169 40.7739C42.4336 40.5098 41.7069 40.5042 41.0869 40.9282C40.4674 41.3519 38.9734 42.2327 37.9419 41.729C37.2141 41.3736 36.5426 40.7076 36.159 40.2676L32.4199 40.6185C32.4085 40.6779 32.3998 40.7349 32.3907 40.79C32.3063 41.3403 32.3018 41.9357 32.3534 42.5274C32.465 43.8379 32.845 45.1346 33.2241 45.9081C33.7766 47.03 35.9069 50.624 37.0455 52.4337C37.3074 52.8494 37.5369 53.2115 37.7361 53.5317C38.2063 54.2903 38.4987 54.8189 38.628 55.3068C38.7912 55.0795 39.0062 54.6741 38.9285 54.1929C38.807 53.4448 38.3862 51.1701 36.3885 47.3394C34.3895 43.5077 33.3074 41.065 33.3074 41.065C33.3074 41.065 36.0735 42.1414 37.3436 42.691C38.6124 43.2413 39.5293 42.9594 40.5067 42.188Z" fill="white"/>
<path d="M58.9889 62.6005C57.4895 60.1043 52.0791 56.373 51.4477 56.0404C50.8168 55.709 50.9967 55.4807 51.178 55.3425C51.3577 55.2043 53.1398 54.1518 53.1398 54.1518C52.4861 53.9806 51.5839 54.2664 50.9416 54.873C50.2993 55.4795 49.2399 56.3831 48.2476 56.4072C48.2241 56.4083 48.1993 56.4072 48.1746 56.4061C48.1498 56.4072 48.125 56.4083 48.1013 56.4072C47.1092 56.3842 46.0498 55.4807 45.4073 54.873C44.7639 54.2664 43.863 53.9806 43.2091 54.1518C43.2091 54.1518 44.9912 55.2043 45.1709 55.3425C45.3522 55.4807 45.5323 55.709 44.9012 56.0404C44.27 56.373 38.8594 60.1043 37.36 62.6005C37.0216 63.1649 36.7041 63.7554 36.4186 64.3667L36.4422 64.3781C37.3228 62.4976 39.4176 61.0763 40.3635 60.4126C41.5052 59.6107 43.4433 58.2066 45.1655 58.2066C46.8866 58.2066 48.1757 59.1684 48.1757 59.1684C48.1757 59.1684 49.4656 58.2066 51.1858 58.2066C52.9067 58.2066 54.8459 59.6107 55.9878 60.4126C56.934 61.0763 59.0272 62.4976 59.9091 64.3781L59.9326 64.3667C59.645 63.7554 59.3275 63.1649 58.9889 62.6005Z" fill="white"/>
<path d="M36.0718 65.6105C35.741 68.0975 36.4353 78.5816 37.6232 80.4909C37.6782 80.661 37.7411 80.8359 37.8144 81.0174C37.3676 80.2304 37.0379 79.635 36.7635 78.9132C36.2125 77.4589 35.2766 74.0589 35.0279 71.0941C34.8368 68.7992 35.4407 66.4615 36.4195 64.3663L36.4431 64.3779C36.2596 64.7708 36.1281 65.182 36.0718 65.6105Z" fill="white"/>
<path d="M36.2996 12.6408L34.2602 15.6809L32.2457 16.6634C32.5898 16.2212 32.9497 15.7859 33.3312 15.3598L33.7956 15.1336L34.376 14.2688C34.9665 13.6941 35.6044 13.1469 36.2996 12.6408Z" fill="white"/>
<path d="M30.9321 27.8434C34.5274 26.3445 35.7297 25.6338 35.767 25.6122C35.704 25.6968 31.6803 31.1782 30.7185 37.3566C30.5196 38.6327 30.4082 39.8508 30.3564 41.0226C29.5015 41.2968 28.4846 41.4339 27.5016 41.4933C27.5069 40.6788 27.5027 40.2595 27.5027 40.2595C27.5027 40.2595 27.6826 35.9228 28.7052 32.595C29.4261 30.2472 30.3046 28.6509 30.7591 27.9153C30.8165 27.8914 30.8739 27.8673 30.9321 27.8434Z" fill="white"/>
<path d="M34.372 14.2694L33.7915 15.1343L33.3269 15.3604C33.6589 14.988 34.0063 14.6224 34.372 14.2694Z" fill="white"/>
<path d="M26.6639 29.0344C27.8741 28.8371 29.3173 28.4986 30.7619 27.9161C30.3074 28.6518 29.4289 30.248 28.7078 32.5956C27.6853 35.9237 27.5051 40.2604 27.5051 40.2604C27.5051 40.2604 27.4863 40.7344 27.4468 41.4975C26.0801 41.5776 24.7887 41.5091 24.1002 41.4553C24.7338 35.1054 26.2758 30.1974 26.6639 29.0344Z" fill="white"/>
<path d="M30.3565 41.0226C30.1549 45.573 30.8537 49.4289 30.8537 53.2696C30.8537 58.1013 28.8018 67.1675 19.4913 68.7693C19.4913 68.7693 20.1223 68.1511 21.4982 66.9C22.8739 65.648 25.0223 61.9466 25.939 58.1926C26.8559 54.4374 27.1707 52.4219 27.3519 47.6295C27.4589 44.7698 27.4924 42.6986 27.5015 41.4933C28.4834 41.4341 29.5006 41.2981 30.3565 41.0226Z" fill="white"/>
<path d="M29.9348 81.0374L26.9369 79.559C26.8773 79.278 26.8155 78.9891 26.7559 78.6921L29.8089 80.1978C29.8482 80.4833 29.891 80.7642 29.9348 81.0374Z" fill="white"/>
<path d="M29.806 80.198L26.7532 78.6924C26.0435 75.1917 25.3639 70.8014 25.1425 69.3355C27.1223 68.3931 29.0952 67.0163 29.0952 67.0163C29.0952 67.0163 29.0345 74.6469 29.806 80.198Z" fill="white"/>
<path d="M26.9316 79.5584L23.4986 77.8641C23.4005 77.5569 23.3072 77.2508 23.2195 76.949L26.7503 78.6913C26.811 78.9884 26.8719 79.2775 26.9316 79.5584Z" fill="white"/>
<path d="M23.5756 29.3095C23.5756 29.3095 24.8613 29.3287 26.6644 29.034C26.2766 30.1969 24.7332 35.105 24.1012 41.4546C24.0985 41.4776 24.0962 41.5015 24.094 41.5243C23.3722 48.8509 22.0874 53.3854 21.1403 56.544C20.2527 59.5077 16.5069 66.6629 10.6677 67.764C10.4562 67.676 10.2335 67.6157 10.0029 67.5847V66.4867C11.8016 64.8257 15.9074 60.6122 17.9839 55.0786C19.058 52.2142 19.8298 49.2119 20.4304 46.3305L21.049 47.3053L22.4024 45.9775L20.9231 43.8173C21.5496 40.406 21.9773 37.2896 22.4484 34.9313C23.4182 30.0759 23.5756 29.3095 23.5756 29.3095Z" fill="white"/>
<path d="M26.1225 84.203C26.1893 84.3226 26.2589 84.443 26.3297 84.5615C25.8289 84.9308 24.7729 85.6983 24.7064 85.6673C24.5649 85.3007 24.4713 85.0574 24.4713 85.0574C23.7627 83.2912 22.6458 79.9654 21.6672 76.961L23.5031 77.8656C24.1789 80.0194 25.0473 82.2836 26.1225 84.203Z" fill="white"/>
<path d="M24.1031 41.4553C24.7916 41.5078 26.083 41.5774 27.4495 41.4973C27.3821 42.8569 27.2539 45.135 27.0718 47.2955C26.7873 50.6691 26.2381 56.2018 24.1415 61.5142C22.1842 66.4725 17.0232 69.5364 12.2561 69.6601C12.1976 69.4041 12.1031 69.1538 11.967 68.9149C11.6689 68.3896 11.2066 67.9908 10.67 67.7658C16.5093 66.6645 20.2551 59.5091 21.1425 56.5459C22.0896 53.387 23.3742 48.8527 24.0966 41.5261C24.0978 41.5022 24.1009 41.4781 24.1031 41.4553Z" fill="white"/>
<path d="M25.1426 69.335C25.3643 70.8007 26.0439 75.1912 26.7537 78.6917L23.2224 76.9496C22.3778 74.083 21.8773 71.5352 21.6802 70.4397C22.5093 70.2854 23.4892 70.0434 24.4081 69.663C24.6501 69.5623 24.8962 69.4516 25.1426 69.335Z" fill="white"/>
<path d="M24.1465 27.5443V28.2435H23.176C23.3446 28.0881 23.5933 27.8539 23.905 27.5443H24.1465Z" fill="white"/>
<path d="M12.4382 27.5443H23.9028C23.5923 27.8539 23.3436 28.087 23.1739 28.2435H12.2616C12.3538 28.0162 12.4123 27.7809 12.4382 27.5443Z" fill="white"/>
<path d="M23.5025 77.8634L21.6667 76.9588C21.5654 76.6458 21.4653 76.3361 21.3662 76.0331L23.2224 76.9483C23.3126 77.2512 23.4057 77.556 23.5025 77.8634Z" fill="white"/>
<path d="M27.9445 27.244C26.3326 27.8151 24.6535 28.2482 22.9186 28.4743C22.9186 28.4743 23.0088 28.3964 23.1753 28.2435H24.1458V27.5442H23.9043C25.1563 26.3014 27.4225 23.8462 29.6602 20.3905C30.4577 19.1599 31.29 17.8896 32.2451 16.6637L34.2595 15.6812L36.299 12.6411C39.0214 10.6556 42.6321 9.26407 47.8087 9.1601V12.0951L47.6455 12.1008C47.4747 12.1122 47.3048 12.1328 47.1349 12.1476C47.0496 12.1567 46.9641 12.1636 46.8797 12.175L46.6252 12.215C46.4567 12.2436 46.2856 12.263 46.1191 12.2995L45.6186 12.4104C45.4509 12.4458 45.2879 12.4983 45.1225 12.5406L44.876 12.608C44.7939 12.632 44.7144 12.6606 44.6322 12.6868C44.4713 12.7394 44.308 12.7931 44.1484 12.8502C43.5106 13.0867 42.8897 13.3655 42.2856 13.6705C41.6826 13.9812 41.1021 14.3297 40.5375 14.7021C39.4114 15.4504 38.3621 16.3027 37.3878 17.2292C36.4195 18.1637 35.5037 19.1543 34.7174 20.244C35.6352 19.2708 36.614 18.3649 37.6398 17.5239C38.1507 17.1012 38.6737 16.6956 39.2136 16.3152C39.7525 15.9359 40.2968 15.5658 40.8617 15.2288C41.145 15.0643 41.4263 14.8952 41.7165 14.7455C42.0023 14.5879 42.2958 14.4428 42.5872 14.2977C43.1766 14.0201 43.7774 13.771 44.3913 13.5631C45.0068 13.3643 45.6288 13.1861 46.2609 13.073C46.4183 13.0399 46.5781 13.0216 46.7369 12.9964L46.9742 12.961C47.0539 12.9496 47.1338 12.945 47.2137 12.937C47.3734 12.9233 47.5321 12.9062 47.6917 12.8948L47.8076 12.8913V15.6069C47.0246 15.6344 43.4724 15.8697 40.504 17.894C37.144 20.1835 35.7129 21.6378 33.5375 23.3662C31.3619 25.0974 29.6555 26.3344 27.9445 27.244Z" fill="white"/>
<path d="M20.9216 43.816L22.4006 45.9764L21.0475 47.3039L20.4288 46.3294C20.6077 45.4795 20.7697 44.6385 20.9216 43.816Z" fill="white"/>
<path d="M21.6813 70.4399C21.8791 71.5355 22.3796 74.0819 23.2235 76.9496L21.3674 76.0347C20.4226 73.1054 19.6744 70.696 19.6744 70.696C19.6744 70.696 20.5315 70.6525 21.6813 70.4399Z" fill="white"/>
<path d="M21.6675 76.9599L11.6774 72.03C11.8292 71.8496 11.9563 71.6507 12.0564 71.4395L21.3681 76.0332C21.4659 76.3372 21.5661 76.6467 21.6675 76.9599Z" fill="white"/>
<path d="M14.7356 17.1858C15.7581 17.0396 17.107 16.9356 18.4883 17.0738C18.0596 17.4747 17.6379 17.8862 17.2229 18.3077C15.116 20.4474 13.2463 22.7724 11.6277 25.2617C11.4792 25.119 11.3127 24.9922 11.1293 24.8846C10.7255 24.6473 10.2654 24.5225 9.79975 24.5225C9.62427 24.5225 9.45216 24.5408 9.28345 24.5738C9.67602 23.8954 10.2081 23.099 10.7919 22.2788C12.2261 20.2659 13.9741 18.1112 14.7356 17.1858Z" fill="white"/>
<path d="M16.3955 80.3208C19.3436 83.3709 24.7015 85.6673 24.7015 85.6673C24.9196 86.2353 25.2514 87.0975 25.5249 87.8026C22.517 85.9551 19.7374 83.74 17.2178 81.1797C16.9398 80.8966 16.6665 80.6097 16.3955 80.3208Z" fill="white"/>
<path d="M13.8152 17.3388C14.0762 17.2872 14.3866 17.2336 14.7331 17.1845C13.9715 18.1099 12.2235 20.2645 10.7893 22.2774L10.1031 21.9666C11.2449 20.3456 12.4856 18.7998 13.8152 17.3388Z" fill="white"/>
<path d="M11.1279 24.8839C11.3112 24.9911 11.4778 25.1179 11.6262 25.2605C11.7803 25.407 11.9142 25.5724 12.0278 25.7486C12.1538 25.945 12.2528 26.1576 12.3248 26.3793C12.4451 26.7517 12.4856 27.1493 12.4395 27.5436C12.4125 27.7798 12.3551 28.0153 12.264 28.2426C12.219 28.3569 12.165 28.4687 12.1032 28.5772C11.8737 28.9807 11.5497 29.3097 11.1673 29.5415L10.8366 29.0331L9.98053 29.8567L10.0199 29.9174C10.0143 29.9185 10.0087 29.9197 10.0019 29.9197C9.93443 29.9252 9.86466 29.9286 9.79494 29.9286C9.63408 29.9286 9.47095 29.9141 9.31349 29.8842C9.21901 29.8661 9.1245 29.8429 9.03341 29.8156C8.83543 29.7565 8.64644 29.673 8.46648 29.5667C7.85116 29.2057 7.40909 28.6219 7.22573 27.9251C7.11326 27.5 7.10424 27.0624 7.19649 26.6441C7.25389 26.3791 7.35397 26.1176 7.49121 25.8754C7.49121 25.8765 7.49121 25.8743 7.49121 25.8754C7.6273 25.6354 7.79718 25.4208 7.99291 25.2389C8.35284 24.902 8.80056 24.67 9.28424 24.572C9.45184 24.5388 9.62506 24.5204 9.80056 24.5204C10.2629 24.5216 10.7229 24.6461 11.1279 24.8839ZM8.9569 28.7027C9.01765 28.7384 9.07952 28.7701 9.14252 28.7956C9.16951 28.807 9.19536 28.8183 9.22238 28.8275C9.25162 28.8391 9.28087 28.8492 9.31235 28.8581C9.31349 28.8594 9.31463 28.8594 9.31574 28.8581C9.34273 28.8686 9.37198 28.8755 9.40011 28.8824C9.43161 28.8916 9.46421 28.8983 9.49685 28.9027C9.52161 28.9076 9.54634 28.9121 9.5711 28.9143C9.58798 28.9177 9.60484 28.9188 9.62171 28.9199C9.63294 28.9222 9.64645 28.9233 9.65884 28.9233C9.67795 28.9255 9.69818 28.9266 9.71733 28.9266C9.74433 28.9293 9.77243 28.9293 9.79943 28.9293C9.83432 28.9293 9.86917 28.9282 9.90404 28.9255C9.93668 28.9233 9.96928 28.921 10.0019 28.9166C10.0278 28.9132 10.0536 28.9099 10.0795 28.9052C10.0818 28.9052 10.0829 28.9052 10.0863 28.9039C10.1054 28.9005 10.1245 28.8972 10.1448 28.8927C10.1605 28.8891 10.1774 28.8869 10.1943 28.8811C10.2021 28.88 10.21 28.8777 10.219 28.8755C10.2269 28.873 10.2348 28.8719 10.2438 28.8697C10.3292 28.8458 10.4125 28.8148 10.4946 28.7773C10.516 28.7668 10.5374 28.7578 10.5587 28.7451C10.6093 28.7201 10.66 28.6915 10.7083 28.6583C10.7297 28.6458 10.7511 28.6308 10.7713 28.6152C10.7747 28.6125 10.7792 28.6103 10.7826 28.6069C10.8017 28.5944 10.8186 28.5808 10.8354 28.5658C10.8456 28.5589 10.8546 28.5522 10.8636 28.5428C10.8782 28.5317 10.8917 28.5201 10.9063 28.5076C10.9614 28.4587 11.0143 28.4058 11.0615 28.3488C11.0784 28.3305 11.093 28.3133 11.1065 28.2939C11.1212 28.2767 11.1335 28.2598 11.1459 28.2426C11.1841 28.1912 11.2201 28.1352 11.2528 28.0783C11.2674 28.0506 11.282 28.0242 11.2955 27.997C11.3034 27.9843 11.309 27.9706 11.3146 27.9568C11.3394 27.9057 11.3608 27.8539 11.3787 27.8014C11.3844 27.7842 11.3911 27.7664 11.3968 27.7489C11.4057 27.7251 11.4125 27.7001 11.4181 27.6746C11.4215 27.661 11.426 27.6471 11.4294 27.6326C11.4339 27.6166 11.4384 27.6005 11.4406 27.5833C11.444 27.5708 11.4463 27.5569 11.4485 27.5436C11.4552 27.5159 11.4597 27.4862 11.4631 27.4578C11.4665 27.4326 11.4688 27.4087 11.471 27.3833C11.4744 27.3571 11.4755 27.3319 11.4766 27.3069C11.4788 27.2794 11.4788 27.2522 11.4788 27.2234C11.4788 27.1881 11.4778 27.1515 11.4755 27.116C11.4744 27.083 11.4721 27.0511 11.4665 27.0178C11.4642 26.9995 11.4631 26.9823 11.4586 26.9642C11.4564 26.9437 11.453 26.922 11.4485 26.9001C11.444 26.8729 11.4372 26.8441 11.4294 26.8166C11.4294 26.8155 11.4294 26.8144 11.4282 26.8133C11.4249 26.7961 11.4193 26.7778 11.4147 26.7619C11.4103 26.7425 11.4035 26.722 11.3968 26.7025C11.3855 26.6626 11.3697 26.6224 11.354 26.5838C11.3427 26.555 11.3315 26.5266 11.3191 26.5003C11.3 26.4581 11.2786 26.4168 11.255 26.3768C11.2426 26.3529 11.228 26.3288 11.2123 26.306C11.1875 26.2647 11.1605 26.225 11.1301 26.1873C11.1144 26.1667 11.0975 26.1451 11.0795 26.1243C11.0683 26.112 11.0582 26.0982 11.0469 26.0866C11.03 26.0674 11.0132 26.0491 10.9963 26.0308C10.9715 26.0047 10.9457 25.9794 10.9187 25.9555C10.9153 25.9517 10.9119 25.9495 10.9074 25.945C10.8872 25.9267 10.8647 25.9084 10.8422 25.8915C10.8051 25.8593 10.7646 25.8307 10.7229 25.8024C10.696 25.783 10.6656 25.7658 10.6363 25.7486C10.0694 25.4148 9.39 25.4572 8.87591 25.799C8.66221 25.9406 8.47771 26.1337 8.34161 26.3735C7.87818 27.1892 8.15376 28.231 8.9569 28.7027Z" fill="white"/>
<path d="M10.6664 67.7655C11.2029 67.9906 11.6652 68.3891 11.9633 68.9148C12.0995 69.1537 12.194 69.4038 12.2524 69.6596C12.3885 70.264 12.3132 70.8922 12.0545 71.4396C11.9555 71.6497 11.8284 71.8484 11.6754 72.0301C11.4853 72.2552 11.2558 72.4517 10.9881 72.6082C10.897 72.662 10.8025 72.71 10.7057 72.7513C10.375 72.8962 10.0184 72.9703 9.65735 72.9703C9.20179 72.9703 8.76421 72.8515 8.37724 72.637C8.11628 72.4909 7.87668 72.2985 7.67535 72.0723C7.55274 71.9341 7.44363 71.7832 7.35026 71.6178C7.28503 71.5035 7.22879 71.3861 7.18264 71.2659C7.0634 70.9632 7.00042 70.6444 6.9948 70.3211C6.98919 70.07 7.01953 69.815 7.08479 69.5647C7.26027 68.8999 7.66747 68.34 8.23891 67.9756C8.26704 67.9573 8.29629 67.9401 8.32553 67.9231C8.63037 67.745 8.9667 67.6282 9.31315 67.5824C9.3424 67.5791 9.37278 67.5757 9.40312 67.5724C9.48637 67.5646 9.57074 67.5608 9.65625 67.5608C9.7721 67.5608 9.88797 67.5691 10.0027 67.5838C10.231 67.6159 10.4549 67.6775 10.6664 67.7655ZM8.65961 68.8952L8.65736 68.8976C8.63037 68.9171 8.60561 68.9365 8.57973 68.9593C8.55386 68.9798 8.53026 69.0017 8.50662 69.0245C8.50662 69.0245 8.50101 69.0289 8.49762 69.0334C8.47851 69.0506 8.46049 69.0691 8.44362 69.0874C8.43239 69.0986 8.42339 69.1091 8.41437 69.1202C8.39865 69.1363 8.38403 69.1548 8.3705 69.1716C8.35139 69.1948 8.33339 69.2176 8.3154 69.2417C8.29401 69.27 8.27265 69.3008 8.2524 69.333L8.25014 69.3352C8.23103 69.3649 8.21304 69.3955 8.19618 69.4265C8.17702 69.4573 8.16129 69.4895 8.14552 69.5225L8.14217 69.5317C8.12755 69.5625 8.11404 69.5933 8.10165 69.6255C8.08817 69.6596 8.07466 69.6929 8.06453 69.7282C8.05443 69.7578 8.04542 69.7875 8.03756 69.8195C8.03419 69.83 8.03305 69.8389 8.03079 69.8483C8.02182 69.8777 8.01508 69.9074 8.01057 69.9396C8.00268 69.9749 7.99706 70.0126 7.99257 70.0492C7.96556 70.2651 7.97795 70.4866 8.03419 70.7027C8.0443 70.7382 8.05444 70.7746 8.06567 70.8101C8.08368 70.8636 8.10391 70.9165 8.12641 70.9677C8.14892 71.019 8.17591 71.0719 8.20402 71.1219C8.5145 71.6691 9.08032 71.9754 9.6596 71.9743C9.68773 71.9743 9.71809 71.9732 9.74622 71.9721C9.76196 71.9708 9.77886 71.9696 9.7946 71.9685C9.82834 71.9663 9.86098 71.9627 9.89359 71.9571C9.92059 71.9536 9.94758 71.9491 9.97457 71.9435L9.98245 71.9411C10.0162 71.9353 10.0488 71.9274 10.0814 71.9192C10.086 71.9181 10.0949 71.9158 10.0949 71.9158C10.1219 71.9091 10.1467 71.9011 10.1726 71.892C10.1827 71.8897 10.1917 71.8864 10.2007 71.8828C10.2322 71.8714 10.2637 71.86 10.294 71.8473C10.3278 71.8339 10.3604 71.8189 10.393 71.8018L10.3975 71.7993C10.4313 71.7832 10.4639 71.7654 10.4954 71.7471C10.5235 71.7296 10.5528 71.7113 10.5798 71.6941C10.5887 71.6886 10.5977 71.683 10.6056 71.6774C10.6326 71.6578 10.6574 71.6394 10.6821 71.62L10.6855 71.6167C10.7035 71.6028 10.7204 71.5881 10.7384 71.5731V71.5687C10.7597 71.5515 10.7811 71.5332 10.8014 71.5115C10.8059 71.5082 10.8115 71.5035 10.816 71.499C10.834 71.4829 10.8508 71.4646 10.8666 71.4474C10.9183 71.3927 10.9667 71.3345 11.0095 71.2751C11.0241 71.2557 11.0365 71.2374 11.0499 71.2168C11.0578 71.2052 11.0646 71.1952 11.0702 71.1838C11.0871 71.1583 11.1017 71.1333 11.1152 71.1081C11.1298 71.0831 11.1433 71.057 11.1557 71.0317C11.1602 71.0224 11.1658 71.0134 11.1692 71.0041C11.1714 70.9996 11.1726 70.9951 11.1748 70.9907C11.1872 70.9632 11.1996 70.9366 11.2097 70.9083C11.2232 70.8752 11.2355 70.842 11.2457 70.8089C11.2547 70.7839 11.2626 70.7574 11.2693 70.7324C11.2761 70.7071 11.2817 70.6832 11.2884 70.658C11.2918 70.6466 11.294 70.6364 11.2952 70.6252C11.2985 70.608 11.3031 70.5908 11.3053 70.5747C11.3087 70.5551 11.3121 70.5372 11.3154 70.5176C11.3188 70.5004 11.3199 70.4832 11.3222 70.466C11.3334 70.3691 11.3368 70.272 11.3312 70.1736C11.3301 70.1497 11.3289 70.1258 11.3267 70.1028C11.3267 70.0972 11.3255 70.0916 11.3244 70.0845C11.3233 70.0675 11.321 70.0514 11.3188 70.0342C11.3154 70.0025 11.3098 69.9704 11.3031 69.9385C11.2974 69.9041 11.2895 69.871 11.2817 69.8389C11.2738 69.807 11.2648 69.7764 11.2547 69.7465C11.2479 69.7246 11.2412 69.7029 11.2322 69.6813C11.2311 69.6746 11.2288 69.6688 11.2254 69.6618C11.2176 69.6388 11.2085 69.6172 11.1984 69.5944L11.1962 69.5911C11.186 69.5647 11.1748 69.5386 11.1613 69.5123C11.1456 69.4779 11.1276 69.4448 11.1096 69.4116C11.0432 69.2953 10.9656 69.1888 10.8767 69.0952C10.8688 69.0863 10.861 69.0769 10.8531 69.0691C10.8452 69.0597 10.8362 69.0519 10.8272 69.0428C10.8002 69.0151 10.7721 68.9901 10.744 68.9662C10.7159 68.941 10.6866 68.9171 10.6562 68.8952C10.627 68.8724 10.5966 68.8519 10.5662 68.8313C10.5359 68.8108 10.5033 68.7912 10.4706 68.7733L10.4616 68.7684C10.447 68.7594 10.4301 68.7514 10.4144 68.7434C10.3953 68.7331 10.3773 68.7237 10.357 68.7159C10.3334 68.7048 10.3109 68.6943 10.2873 68.6851C10.2535 68.6715 10.2209 68.6576 10.1861 68.6474L10.1816 68.6451C10.1557 68.6358 10.1298 68.628 10.1028 68.6213C10.0882 68.6179 10.0747 68.613 10.0601 68.6096C10.0398 68.6041 10.0184 68.5994 9.99931 68.596C9.97571 68.5902 9.95095 68.5858 9.92733 68.5833C9.91945 68.58 9.91159 68.5799 9.90371 68.5799C9.88571 68.5766 9.86886 68.5744 9.85084 68.5721C9.82159 68.5683 9.79235 68.565 9.76196 68.5639C9.72711 68.5605 9.6911 68.5605 9.65511 68.5605C9.62361 68.5605 9.59211 68.5616 9.56175 68.5639C9.54375 68.565 9.5269 68.5661 9.51002 68.5672C9.49539 68.5683 9.48189 68.5699 9.46727 68.571C9.44813 68.5733 9.42677 68.5755 9.40766 68.5799C9.39752 68.5799 9.3885 68.5811 9.37841 68.5844C9.35702 68.5869 9.33566 68.5902 9.31429 68.596L9.3109 68.5971C9.28953 68.6005 9.26817 68.6052 9.24678 68.6119C9.22767 68.6154 9.20744 68.6212 9.18828 68.6279C9.18268 68.6279 9.17706 68.6302 9.17141 68.6324C9.15344 68.6358 9.13656 68.6429 9.12079 68.6485C9.07804 68.6623 9.03756 68.6782 8.99707 68.6965C8.97007 68.7081 8.9442 68.7193 8.91832 68.7331C8.88345 68.7492 8.84972 68.7684 8.81482 68.7878C8.78783 68.8039 8.75972 68.8211 8.73382 68.8394C8.70911 68.8552 8.68435 68.8724 8.66073 68.8907L8.65961 68.8952Z" fill="white"/>
<path d="M12.0305 25.7495L33.3334 15.3601C32.9519 15.7862 32.592 16.2215 32.248 16.6636L12.3275 26.3788C12.2555 26.1598 12.1565 25.9459 12.0305 25.7495Z" fill="white"/>
<path d="M10.8371 29.034L11.1678 29.5424C10.8225 29.7524 10.4299 29.885 10.0205 29.9194L9.98108 29.8589L10.8371 29.034Z" fill="white"/>
<path d="M9.2551 21.5831L10.1044 21.9668C9.35632 23.026 8.65104 24.1181 7.99187 25.2389C7.79614 25.4204 7.62741 25.6332 7.49131 25.8729C7.49131 25.874 7.49131 25.8718 7.49131 25.8729C7.35405 26.1152 7.25281 26.3768 7.19657 26.6418C3.52613 33.3844 1.4215 41.1247 1.38663 49.3503C1.13915 49.1252 0.837707 48.9616 0.505859 48.8772C0.590228 42.5823 1.84897 36.476 4.24827 30.7136C5.59589 27.4768 7.27196 24.4242 9.2551 21.5831Z" fill="white"/>
<path d="M10.0204 29.9185C10.4298 29.8844 10.8224 29.7529 11.1677 29.5414L11.5142 30.075L20.9227 43.8153C20.7709 44.6378 20.6088 45.4788 20.4311 46.3298L10.0204 29.9185Z" fill="white"/>
<path d="M10.0035 66.4872V67.5849C9.8899 67.57 9.77289 67.5622 9.65704 67.5622C9.57267 67.5622 9.48833 67.5655 9.40396 67.5733L9.31396 67.4742V67.0993C9.46696 66.9712 9.70205 66.7647 10.0035 66.4872Z" fill="white"/>
<path d="M9.79539 29.9299C9.86402 29.9299 9.93377 29.9266 10.0024 29.9205V66.4872C9.70203 66.7647 9.46582 66.9712 9.31396 67.1004V29.8853C9.47257 29.9149 9.63454 29.9299 9.79539 29.9299Z" fill="white"/>
<path d="M9.31396 67.4742L9.40369 67.5731C9.37454 67.5769 9.34426 67.5802 9.31396 67.5836V67.4742Z" fill="white"/>
<path d="M8.37646 72.6365C8.7623 72.8513 9.20102 72.9701 9.65657 72.9701C10.0177 72.9701 10.3742 72.8948 10.705 72.7508C12.2449 75.335 14.0435 77.7536 16.0874 79.9859C16.0954 79.995 16.1044 80.0053 16.1133 80.0136C16.201 80.1116 16.291 80.2076 16.3832 80.3047C16.3879 80.3094 16.3935 80.315 16.3968 80.3194C16.6667 80.6086 16.9413 80.8952 17.2202 81.1787C19.7399 83.7377 22.5194 85.954 25.5275 87.8014C25.6398 88.0905 25.7434 88.3544 25.8245 88.56C24.3825 89.9022 19.1223 86.6657 15.9749 83.0123C15.2462 82.1669 14.5036 81.2413 13.7939 80.3206L13.7905 80.3172C11.4226 77.2463 9.40686 74.2054 9.40686 74.2054L8.37646 72.6365Z" fill="white"/>
<path d="M13.7947 80.3168C11.1917 77.312 9.19504 74.5108 7.67871 72.0728C7.88009 72.299 8.11855 72.4899 8.37951 72.6361L9.41102 74.2045C9.41102 74.2045 11.4268 77.2457 13.7947 80.3168Z" fill="white"/>
<path d="M7.99268 25.2397C8.65184 24.1179 9.35713 23.0268 10.1052 21.9677L10.7913 22.2785C10.2075 23.099 9.67547 23.894 9.28289 24.5738C8.80033 24.6698 8.35263 24.9026 7.99268 25.2397Z" fill="white"/>
<path d="M1.3866 49.3512C1.42149 41.1253 3.52499 33.3875 7.19545 26.645C7.10431 27.0629 7.11333 27.5007 7.22469 27.9256C7.40803 28.6223 7.8501 29.2061 8.46541 29.5672C8.64538 29.6734 8.8355 29.7558 9.03235 29.8161C8.60714 30.6754 8.20894 31.5506 7.83887 32.4405C5.55764 37.9196 4.40126 43.7403 4.40126 49.7439C4.40126 55.7477 5.55876 61.5693 7.83887 67.0473C7.96822 67.3603 8.10209 67.67 8.23932 67.9785C7.6679 68.3418 7.25956 68.9015 7.0852 69.5677C7.01883 69.8177 6.98846 70.0716 6.99521 70.3229C6.0042 68.5704 4.50925 65.7964 3.27188 62.9323L3.27076 62.9289L3.26963 62.9256C2.30224 59.577 1.68808 56.0779 1.4721 52.4698" fill="white"/>
<path d="M3.37061 63.2477C3.67093 64.1939 4.71818 67.1482 7.18614 71.2655C7.23338 71.3856 7.28962 71.5033 7.35376 71.6176C7.44712 71.7819 7.55623 71.934 7.67884 72.0722C9.19629 74.5101 11.1929 77.3115 13.7947 80.3161L13.7981 80.3194C14.508 81.2415 15.2503 82.1658 15.9793 83.0112C19.1267 86.6646 24.3864 89.9011 25.8286 88.5589C25.8793 88.6869 25.9208 88.7931 25.9512 88.8684C26.2278 89.5596 26.128 89.9183 25.5058 90.4977C25.3449 90.647 25.1368 90.7317 24.8849 90.7605C14.6484 84.7692 6.84192 74.9546 3.37061 63.2477Z" fill="white"/>
<path d="M1.3404 57.2892C1.71161 59.0177 2.43042 60.9919 3.2673 62.9249L3.26844 62.9282L3.26955 62.9318C3.27069 62.9365 3.27295 62.9465 3.27743 62.9604C3.28083 62.9729 3.28643 62.9912 3.29317 63.0129C3.29545 63.0196 3.29654 63.0278 3.29994 63.0356C3.3078 63.0642 3.31682 63.0941 3.32579 63.1214C3.32918 63.1341 3.33367 63.1488 3.33818 63.1638C3.34155 63.1761 3.34716 63.191 3.35055 63.2049C3.35394 63.2185 3.35955 63.2334 3.36404 63.2484C6.83653 74.955 14.6431 84.7698 24.8805 90.7618C24.1605 90.8441 23.0875 90.4693 21.7703 89.8857L21.7656 89.8833C19.1538 88.1157 16.7129 86.0821 14.4621 83.7962C10.084 79.3498 6.64643 74.1725 4.24594 68.4076C2.75886 64.8351 1.70937 61.1279 1.10754 57.327L1.3404 57.2892Z" fill="white"/>
<path d="M7.18044 71.2669C4.71248 67.1496 3.66521 64.1941 3.36487 63.2493C3.36038 63.2346 3.35475 63.2196 3.35138 63.2058C3.34801 63.1922 3.34236 63.1783 3.33902 63.1649C3.33453 63.15 3.33002 63.1361 3.32665 63.1225C3.31765 63.0953 3.30863 63.0654 3.30075 63.0368C3.2974 63.029 3.29626 63.0207 3.29401 63.014C3.28726 62.9923 3.28278 62.974 3.27827 62.9615C3.2749 62.9477 3.2715 62.9372 3.27039 62.9327C4.50774 65.7969 6.0027 68.5711 6.99371 70.3234C6.99822 70.6442 7.0612 70.9644 7.18044 71.2669Z" fill="white"/>
<path d="M3.26934 62.9249C2.43245 60.9918 1.71251 59.0177 1.34244 57.2891L1.10959 57.3257C0.882359 55.8944 0.718155 54.449 0.619141 52.9925C0.944246 52.8887 1.23669 52.7079 1.47294 52.4694C1.6878 56.077 2.30195 59.5777 3.26934 62.9249Z" fill="white"/>
<path d="M1.39239 50.3612C1.38786 50.0951 1.3856 49.8278 1.3856 49.5606C1.3856 49.4907 1.3856 49.4211 1.38674 49.3503C1.13926 49.1253 0.837823 48.9621 0.505953 48.8774C0.502604 49.1047 0.501465 49.3331 0.501465 49.5606C0.501465 49.7604 0.502604 49.9602 0.504859 50.1591C0.516088 51.1075 0.554354 52.0521 0.618451 52.9925C0.943534 52.8885 1.23714 52.7078 1.47334 52.4694C1.43061 51.7699 1.40362 51.0685 1.39239 50.3612Z" fill="white"/>
</g>
</mask>
<g mask="url(#mask0_433_17833)">
<rect x="-17.8605" y="-12.3953" width="131.721" height="122.791" fill="url(#paint0_radial_433_17833)"/>
</g>
<defs>
<radialGradient id="paint0_radial_433_17833" cx="0" cy="0" r="1" gradientUnits="userSpaceOnUse" gradientTransform="translate(47.4848 49) rotate(-90) scale(61.3953 65.8605)">
<stop stop-color="white"/>
<stop offset="1" stop-color="white" stop-opacity="0.75"/>
</radialGradient>
<clipPath id="clip0_433_17833">
<rect width="96" height="93.7674" fill="white" transform="translate(0 1)"/>
</clipPath>
</defs>
</svg>
