<svg width="96" height="96" viewBox="0 0 96 96" fill="none" xmlns="http://www.w3.org/2000/svg">
<path fill-rule="evenodd" clip-rule="evenodd" d="M12.7192 79.0551C12.7883 79.0432 12.8583 79.0373 12.9284 79.0373C14.0578 79.0373 14.986 79.6309 15.7254 80.227C16.1782 80.5921 16.6875 81.0714 17.1951 81.5491C17.4857 81.8227 17.7758 82.0957 18.0544 82.3465C19.6767 83.8065 21.6604 85.255 24.6905 85.6385C26.5413 85.6109 27.9121 84.5158 29.668 83.0408C29.7051 83.0097 29.7423 82.9784 29.7797 82.9469C31.42 81.5678 33.4482 79.8625 36.3095 79.8625C39.1707 79.8625 41.1989 81.5678 42.8392 82.9469C42.8766 82.9784 42.9139 83.0097 42.9509 83.0408C44.7294 84.5347 46.1128 85.639 48 85.639C49.8872 85.639 51.2706 84.5347 53.0491 83.0408C53.0861 83.0097 53.1234 82.9784 53.1608 82.9469C54.8011 81.5678 56.8293 79.8625 59.6905 79.8625C62.5518 79.8625 64.58 81.5678 66.2203 82.9469C66.2577 82.9784 66.2949 83.0097 66.332 83.0408C68.1105 84.5347 69.4938 85.639 71.3811 85.639C73.2683 85.639 74.6517 84.5347 76.4302 83.0408C76.4672 83.0097 76.5045 82.9784 76.5419 82.9469C78.1822 81.5678 80.2104 79.8625 83.0716 79.8625C85.9328 79.8625 87.9611 81.5678 89.6014 82.9469C89.6388 82.9784 89.676 83.0097 89.7131 83.0408C91.4916 84.5347 92.8749 85.639 94.7622 85.639C95.4458 85.639 96 86.1932 96 86.8768C96 87.5605 95.4458 88.1147 94.7622 88.1147C91.901 88.1147 89.8728 86.4094 88.2324 85.0303C88.195 84.9988 88.1578 84.9675 88.1207 84.9364C86.3422 83.4424 84.9589 82.3382 83.0716 82.3382C81.1844 82.3382 79.801 83.4424 78.0225 84.9364C77.9855 84.9675 77.9483 84.9988 77.9108 85.0303C76.2705 86.4094 74.2423 88.1147 71.3811 88.1147C68.5199 88.1147 66.4917 86.4094 64.8513 85.0303C64.8139 84.9988 64.7767 84.9675 64.7397 84.9364C62.9611 83.4424 61.5778 82.3382 59.6905 82.3382C57.8033 82.3382 56.4199 83.4424 54.6414 84.9364C54.6044 84.9675 54.5672 84.9988 54.5297 85.0303C52.8894 86.4094 50.8612 88.1147 48 88.1147C45.1388 88.1147 43.1106 86.4094 41.4702 85.0303C41.4328 84.9988 41.3956 84.9675 41.3586 84.9364C39.5801 83.4424 38.1967 82.3382 36.3095 82.3382C34.4222 82.3382 33.0389 83.4424 31.2603 84.9364C31.2233 84.9675 31.1861 84.9988 31.1487 85.0303C29.5083 86.4094 27.4801 88.1147 24.6189 88.1147C24.5696 88.1147 24.5204 88.1117 24.4714 88.1058C20.6676 87.6494 18.2009 85.8089 16.3983 84.1866C16.011 83.838 15.6804 83.5256 15.38 83.2416C14.9404 82.8262 14.5654 82.4718 14.1715 82.1542C13.6047 81.6972 13.2561 81.5455 13.0129 81.5178C11.004 81.9053 9.04438 83.3169 7.07234 84.8602C6.92403 84.9763 6.77513 85.0935 6.626 85.2108C5.81174 85.8515 4.99084 86.4974 4.2249 86.9977C3.34898 87.5698 2.31249 88.1147 1.23782 88.1147C0.554192 88.1147 0 87.5605 0 86.8768C0 86.1932 0.554192 85.639 1.23782 85.639C1.53851 85.639 2.0493 85.4618 2.87109 84.925C3.53729 84.4899 4.25555 83.9251 5.07391 83.2817C5.22782 83.1607 5.38527 83.0369 5.54657 82.9106C7.48795 81.3913 9.95798 79.5284 12.7192 79.0551Z" fill="url(#paint0_radial_433_17826)"/>
<path fill-rule="evenodd" clip-rule="evenodd" d="M89.7814 69.3941C89.9868 69.8782 89.8638 70.4393 89.4747 70.7932C82.961 76.7173 74.6371 81.4834 66.291 85.3589C65.671 85.6468 64.9349 85.3775 64.647 84.7575C64.3591 84.1374 64.6283 83.4014 65.2484 83.1135C72.3028 79.8378 79.2323 75.965 85.0018 71.3523L9.47443 76.2167L11.7423 80.5543C12.059 81.1602 11.8247 81.9081 11.2188 82.2248C10.613 82.5415 9.86513 82.3072 9.54838 81.7014L6.39881 75.6773C6.20476 75.3061 6.21156 74.862 6.41689 74.497C6.62222 74.1319 6.99823 73.8954 7.4162 73.8685L88.5623 68.6422C89.0872 68.6084 89.5761 68.9099 89.7814 69.3941Z" fill="url(#paint1_radial_433_17826)"/>
<path fill-rule="evenodd" clip-rule="evenodd" d="M38.6888 18.4497C38.9547 17.9005 39.5813 17.627 40.1648 17.8054C47.381 20.012 55.8445 26.3561 63.2908 34.8039C70.7597 43.2774 77.3333 54.0109 80.6814 65.1757C80.8175 65.6296 80.6825 66.1214 80.3338 66.4422C79.9851 66.763 79.4838 66.8567 79.0428 66.6833C78.669 66.5363 78.3129 66.3927 77.9695 66.2543C76.585 65.6961 75.4068 65.221 74.1028 64.9416C72.5398 64.6067 70.7942 64.5618 68.4416 65.1627C67.7878 65.3297 67.1206 64.9422 66.9417 64.2915C62.0825 46.6153 53.4346 29.9227 39.0988 20.0072C38.5969 19.6601 38.4229 18.999 38.6888 18.4497ZM48.7568 24.9448C58.6294 35.0053 65.0331 48.526 69.0113 62.5002C71.174 62.0901 72.9635 62.1656 74.6216 62.5209C75.6234 62.7356 76.5777 63.0554 77.5103 63.4095C74.0982 53.5364 68.1549 44.0662 61.4336 36.4409C57.3223 31.7767 52.9604 27.8479 48.7568 24.9448Z" fill="url(#paint2_radial_433_17826)"/>
<path fill-rule="evenodd" clip-rule="evenodd" d="M13.1933 8.42282C13.5463 8.01939 14.1188 7.88899 14.6117 8.09978C23.6264 11.9552 34.2579 19.2178 43.2047 29.0579C52.1548 38.9017 59.4767 51.3897 61.752 65.7084C61.822 66.1489 61.6496 66.593 61.3006 66.8709C60.9517 67.1488 60.4803 67.2175 60.0666 67.0506C40.0859 58.9937 24.97 63.2947 14.4448 69.7893C13.9341 70.1045 13.2708 70.0078 12.8712 69.56C12.4716 69.1121 12.4509 68.4422 12.822 67.9705C28.8317 47.6212 21.7293 24.4176 13.0616 9.87151C12.7872 9.41103 12.8404 8.82625 13.1933 8.42282ZM17.0881 11.9851C24.4481 25.899 29.6926 46.2409 17.8907 65.0714C28.2077 60.0652 41.8804 57.6795 58.9254 63.9572C56.3855 51.1171 49.6334 39.8085 41.373 30.7233C33.7837 22.3763 24.9649 15.9551 17.0881 11.9851Z" fill="url(#paint3_radial_433_17826)"/>
<defs>
<radialGradient id="paint0_radial_433_17826" cx="0" cy="0" r="1" gradientUnits="userSpaceOnUse" gradientTransform="translate(47.6245 83.576) rotate(-90) scale(4.53868 48)">
<stop stop-color="white"/>
<stop offset="1" stop-color="white" stop-opacity="0.75"/>
</radialGradient>
<radialGradient id="paint1_radial_433_17826" cx="0" cy="0" r="1" gradientUnits="userSpaceOnUse" gradientTransform="translate(47.7418 77.0569) rotate(-90) scale(8.41735 41.8109)">
<stop stop-color="white"/>
<stop offset="1" stop-color="white" stop-opacity="0.75"/>
</radialGradient>
<radialGradient id="paint2_radial_433_17826" cx="0" cy="0" r="1" gradientUnits="userSpaceOnUse" gradientTransform="translate(59.4843 42.2601) rotate(-90) scale(24.509 21.0843)">
<stop stop-color="white"/>
<stop offset="1" stop-color="white" stop-opacity="0.75"/>
</radialGradient>
<radialGradient id="paint3_radial_433_17826" cx="0" cy="0" r="1" gradientUnits="userSpaceOnUse" gradientTransform="translate(36.9697 38.9869) rotate(-90) scale(30.9869 24.6052)">
<stop stop-color="white"/>
<stop offset="1" stop-color="white" stop-opacity="0.75"/>
</radialGradient>
</defs>
</svg>
