<svg width="96" height="96" viewBox="0 0 96 96" fill="none" xmlns="http://www.w3.org/2000/svg">
<mask id="mask0_433_18015" style="mask-type:luminance" maskUnits="userSpaceOnUse" x="0" y="0" width="96" height="96">
<path d="M96 0L0 0L0 96H96V0Z" fill="white"/>
</mask>
<g mask="url(#mask0_433_18015)">
<path d="M19.2001 26.16C17.7601 26.16 16.0801 25.68 15.1201 24.48C13.9201 23.52 13.4401 22.08 13.2001 20.4C12.9601 18.72 13.6801 17.28 14.6401 16.08C15.6001 14.88 17.0401 14.16 18.7201 14.16C28.3201 13.2 37.2001 8.64 43.9201 1.68C44.4001 1.2 45.1201 0.720002 45.8401 0.240002C46.5601 2.44737e-06 47.2801 -0.23999 48.0001 -0.23999C48.7201 -0.23999 49.4401 -0.239998 50.4001 0.240002C51.1201 0.480002 51.8401 0.960002 52.3201 1.44C52.8001 1.92 53.2801 2.64001 53.7601 3.36001C54.0001 4.08001 54.2401 4.80001 54.2401 5.52001C54.2401 6.24001 54.2401 6.96001 53.7601 7.92001C53.5201 8.64001 53.0401 9.36 52.5601 9.84C43.9201 18.96 32.4001 24.72 19.9201 25.92C19.6801 26.16 19.4401 26.16 19.2001 26.16Z" fill="url(#paint0_radial_433_18015)"/>
<path d="M76.8 69.84C78.24 69.84 79.92 70.32 80.88 71.52C81.84 72.72 82.56 73.92 82.8 75.6C82.8 77.04 82.32 78.72 81.36 79.92C80.4 81.12 78.96 81.84 77.28 81.84C67.68 82.8 58.8 87.36 52.08 94.32C51.6 94.8 50.88 95.28 50.16 95.76C49.44 96 48.72 96.24 48 96.24C47.28 96.24 46.56 96.24 45.6 95.76C44.88 95.52 44.16 95.04 43.68 94.56C43.2 94.08 42.72 93.36 42.24 92.64C42 91.92 41.76 91.2 41.76 90.48C41.76 89.76 41.76 89.04 42.24 88.08C42.48 87.36 42.96 86.64 43.44 86.16C52.08 77.04 63.6 71.28 76.08 70.08C76.56 69.84 76.8 69.84 76.8 69.84Z" fill="url(#paint1_radial_433_18015)"/>
<path d="M69.84 19.2C69.84 17.76 70.32 16.08 71.52 15.12C72.48 13.92 73.92 13.44 75.6 13.2C77.04 13.2 78.72 13.68 79.92 14.64C81.12 15.6 81.84 17.04 81.84 18.72C82.8 28.32 87.36 37.2 94.32 43.92C94.8 44.4 95.28 45.12 95.76 45.84C96 46.56 96.24 47.28 96.24 48C96.24 48.72 96.24 49.44 95.76 50.4C95.52 51.12 95.04 51.84 94.56 52.32C94.08 52.8 93.36 53.28 92.64 53.76C91.92 54 91.2 54.24 90.48 54.24C89.76 54.24 89.04 54.24 88.08 53.76C87.36 53.52 86.64 53.04 86.16 52.56C77.04 43.92 71.28 32.4 70.08 19.92C69.84 19.68 69.84 19.44 69.84 19.2Z" fill="url(#paint2_radial_433_18015)"/>
<path d="M26.16 76.8C26.16 78.24 25.68 79.92 24.48 80.88C23.52 82.08 22.08 82.56 20.4 82.8C18.96 82.8 17.28 82.32 16.08 81.36C14.88 80.4 14.16 78.96 14.16 77.28C13.2 67.68 8.64001 58.8 1.68001 52.08C1.20001 51.6 0.720012 50.88 0.240012 50.16C1.16026e-05 49.44 -0.23999 48.72 -0.23999 48C-0.23999 47.28 -0.239988 46.56 0.240012 45.6C0.480012 44.88 0.960012 44.16 1.44001 43.68C1.92001 43.2 2.64001 42.72 3.36001 42.24C4.08001 42 4.80001 41.76 5.52001 41.76C6.24001 41.76 6.96001 41.76 7.92001 42.24C8.64001 42.48 9.36001 42.96 9.84001 43.44C18.96 52.08 24.72 63.6 25.92 76.08C26.16 76.56 26.16 76.8 26.16 76.8Z" fill="url(#paint3_radial_433_18015)"/>
<path d="M43.2 12.24C42 11.28 41.52 9.60003 41.28 8.16003C41.28 6.72003 41.76 5.04002 42.72 4.08002C43.68 2.88002 45.12 2.16003 46.8 2.16003C48.48 2.16003 49.92 2.64003 51.12 3.60003C58.56 9.60003 68.16 12.96 77.76 12.72C78.48 12.72 79.2 12.72 80.16 13.2C80.88 13.44 81.6 13.92 82.08 14.4C82.56 14.88 83.04 15.6 83.52 16.32C83.76 17.04 84 17.76 84 18.48C84 19.2 84 19.92 83.52 20.88C83.28 21.6 82.8 22.32 82.32 22.8C81.84 23.28 81.12 23.76 80.4 24.24C79.68 24.48 78.96 24.72 78.24 24.72C65.76 24.96 53.52 20.88 43.92 12.96C43.44 12.48 43.2 12.24 43.2 12.24Z" fill="url(#paint4_radial_433_18015)"/>
<path d="M53.04 84C54.24 84.96 54.72 86.64 54.96 88.08C54.96 89.52 54.48 91.2 53.52 92.16C52.56 93.36 51.12 94.08 49.44 94.08C48 94.08 46.32 93.6 45.12 92.64C37.68 86.64 28.08 83.28 18.48 83.52C17.76 83.52 17.04 83.52 16.08 83.04C15.36 82.8 14.64 82.32 14.16 81.84C13.68 81.36 13.2 80.64 12.72 79.92C12.48 79.2 12.24 78.48 12.24 77.76C12.24 77.04 12.24 76.32 12.72 75.36C12.96 74.64 13.44 73.92 13.92 73.44C14.4 72.96 15.12 72.48 15.84 72C16.56 71.76 17.28 71.52 18 71.52C30.48 71.28 42.72 75.36 52.32 83.28C52.56 83.52 52.8 83.76 53.04 84Z" fill="url(#paint5_radial_433_18015)"/>
<path d="M84 43.2C84.96 42 86.64 41.52 88.08 41.28C89.52 41.28 91.2 41.76 92.16 42.72C93.36 43.68 94.08 45.12 94.08 46.8C94.08 48.24 93.6 49.92 92.64 51.12C86.64 58.56 83.28 68.16 83.52 77.76C83.52 78.48 83.52 79.2 83.04 80.16C82.8 80.88 82.32 81.6 81.84 82.08C81.36 82.56 80.64 83.04 79.92 83.52C79.2 83.76 78.48 84 77.76 84C77.04 84 76.32 84 75.36 83.52C74.64 83.28 73.92 82.8 73.44 82.32C72.96 81.84 72.48 81.12 72 80.4C71.76 79.68 71.52 78.96 71.52 78.24C71.28 65.76 75.36 53.52 83.28 43.92C83.76 43.44 83.76 43.2 84 43.2Z" fill="url(#paint6_radial_433_18015)"/>
<path d="M12.24 53.04C11.28 54.24 9.60003 54.72 8.16003 54.96C6.72003 54.96 5.04004 54.48 4.08004 53.52C2.88004 52.56 2.16003 51.12 2.16003 49.44C2.16003 48 2.64004 46.32 3.60004 45.12C9.60004 37.68 12.96 28.08 12.72 18.48C12.72 17.76 12.72 17.04 13.2 16.08C13.44 15.36 13.92 14.64 14.4 14.16C14.88 13.68 15.6 13.2 16.32 12.72C17.04 12.48 17.76 12.24 18.48 12.24C19.2 12.24 19.92 12.24 20.88 12.72C21.6 12.96 22.32 13.44 22.8 13.92C23.28 14.4 23.76 15.12 24.24 15.84C24.48 16.56 24.72 17.28 24.72 18C24.96 30.48 20.88 42.72 12.96 52.32C12.48 52.56 12.24 52.8 12.24 53.04Z" fill="url(#paint7_radial_433_18015)"/>
</g>
<defs>
<radialGradient id="paint0_radial_433_18015" cx="0" cy="0" r="1" gradientUnits="userSpaceOnUse" gradientTransform="translate(48.3996 5.76917) scale(37.3147 37.3087)">
<stop offset="0.15" stop-color="white"/>
<stop offset="1" stop-color="white" stop-opacity="0.1"/>
</radialGradient>
<radialGradient id="paint1_radial_433_18015" cx="0" cy="0" r="1" gradientUnits="userSpaceOnUse" gradientTransform="translate(47.7038 90.3183) rotate(180) scale(37.3147 37.3087)">
<stop offset="0.15" stop-color="white"/>
<stop offset="1" stop-color="white" stop-opacity="0.1"/>
</radialGradient>
<radialGradient id="paint2_radial_433_18015" cx="0" cy="0" r="1" gradientUnits="userSpaceOnUse" gradientTransform="translate(90.333 48.391) rotate(90) scale(37.3087 37.3147)">
<stop offset="0.15" stop-color="white"/>
<stop offset="1" stop-color="white" stop-opacity="0.1"/>
</radialGradient>
<radialGradient id="paint3_radial_433_18015" cx="0" cy="0" r="1" gradientUnits="userSpaceOnUse" gradientTransform="translate(5.77027 47.696) rotate(-90) scale(37.3087 37.3147)">
<stop offset="0.15" stop-color="white"/>
<stop offset="1" stop-color="white" stop-opacity="0.1"/>
</radialGradient>
<radialGradient id="paint4_radial_433_18015" cx="0" cy="0" r="1" gradientUnits="userSpaceOnUse" gradientTransform="translate(78.1742 18.4002) rotate(44.9953) scale(37.3118)">
<stop offset="0.15" stop-color="white"/>
<stop offset="1" stop-color="white" stop-opacity="0.1"/>
</radialGradient>
<radialGradient id="paint5_radial_433_18015" cx="0" cy="0" r="1" gradientUnits="userSpaceOnUse" gradientTransform="translate(17.9614 77.6947) rotate(-135.005) scale(37.3118 37.3118)">
<stop offset="0.15" stop-color="white"/>
<stop offset="1" stop-color="white" stop-opacity="0.1"/>
</radialGradient>
<radialGradient id="paint6_radial_433_18015" cx="0" cy="0" r="1" gradientUnits="userSpaceOnUse" gradientTransform="translate(77.6827 78.2315) rotate(135.005) scale(37.3118 37.3118)">
<stop offset="0.15" stop-color="white"/>
<stop offset="1" stop-color="white" stop-opacity="0.1"/>
</radialGradient>
<radialGradient id="paint7_radial_433_18015" cx="0" cy="0" r="1" gradientUnits="userSpaceOnUse" gradientTransform="translate(18.4129 17.8888) rotate(-44.9953) scale(37.3118)">
<stop offset="0.15" stop-color="white"/>
<stop offset="1" stop-color="white" stop-opacity="0.1"/>
</radialGradient>
</defs>
</svg>
