<svg width="96" height="96" viewBox="0 0 96 96" fill="none" xmlns="http://www.w3.org/2000/svg">
<path d="M66.6743 0H67.3907C69.9698 0 72.4056 0.544477 74.6122 1.60478C76.1023 2.43582 77.3632 3.46746 78.4235 4.6997C80.1716 6.84896 81.4325 9.3994 82.1489 12.351C82.808 14.9302 83.1232 17.7958 83.1519 20.8048C83.1805 22.8107 83.1519 24.7881 83.0659 26.7081C83.0659 26.7654 83.1805 26.7081 83.4385 26.5934C84.9286 25.8484 86.3614 25.0173 87.737 24.1003C89.0552 23.5272 90.3161 23.5272 91.3764 24.043C91.9495 24.2722 92.2361 24.9027 92.2361 26.049C92.2361 27.4818 91.9782 28.7427 91.491 29.9176C90.8032 31.637 89.6856 33.2131 88.1095 34.5887C86.6767 35.8495 84.9573 36.8525 83.0086 37.5976C82.7794 37.6836 82.6361 37.8269 82.6361 37.9988L81.9483 45.0484C81.3752 50.3212 80.5155 55.3648 79.2832 60.2364C77.9364 64.8215 76.2743 69.206 74.297 73.4185C72.4916 77.3158 70.1417 80.8693 67.1901 84.0215C64.7256 86.6006 62.0319 88.7498 59.0516 90.4406C55.4408 92.5039 51.5435 93.9367 47.3883 94.7391C43.2617 95.5988 38.9919 95.8854 34.6361 95.6848C30.2802 95.5128 26.2397 94.4525 22.4856 92.5325C20.4797 91.3863 18.7029 90.0107 17.2414 88.3773C14.9776 85.5976 13.5734 82.3594 12.9716 78.7486C12.685 77.1439 12.5131 75.5964 12.4844 74.1636C12.3411 72.7307 12.4271 71.1833 12.771 69.5785C13.5734 65.3946 14.5764 61.1248 15.7513 56.7403L20.1358 39.2597C20.7949 36.48 21.368 33.9296 21.7979 31.5224C22.5429 27.797 22.7722 24.2436 22.457 20.9194C22.3423 18.8275 21.7405 16.9648 20.6516 15.36C19.8205 14.443 18.8462 13.9272 17.7286 13.9272C16.3817 13.8699 15.2068 14.2137 14.1465 15.0161L8.75906 18.8848C7.72742 19.6298 6.63846 20.031 5.49219 20.117C4.66115 20.1743 4.05935 20.0024 3.65816 19.6012C3.28562 19.2287 3.08503 18.6269 3.02771 17.7958C2.82712 14.4143 3.71547 11.434 5.69279 8.85493C6.83906 7.42209 8.27189 6.13254 10.02 5.01493C12.3698 3.41015 14.9489 2.26388 17.7859 1.57612C20.1644 1.00299 22.7435 0.831046 25.5232 0.945672C28.3029 1.14627 30.7674 1.97731 32.974 3.46746C34.5214 4.61373 35.8397 6.04657 36.8426 7.70866C39.3358 11.606 40.4534 15.9904 40.2241 20.8048C40.1382 25.4472 39.5077 29.9749 38.3614 34.5027L34.0056 53.1295C33.1746 56.769 32.5155 60.2364 31.9997 63.5033C31.5985 66.6555 31.5411 69.8078 31.7704 73.046C31.9997 75.0519 32.9453 76.6854 34.5788 77.9749C35.4958 78.6627 36.5847 79.1212 37.7883 79.4078C38.8773 79.637 40.0808 79.7803 41.4564 79.809C45.7549 79.7516 49.6235 78.4907 53.1197 76.0263C54.8391 74.8227 56.4438 73.4472 57.934 71.8997C60.2265 69.4352 62.0892 66.7415 63.6653 63.7612C66.1298 58.8895 67.9638 53.7313 69.1101 48.4012C69.7405 45.7075 70.285 42.7272 70.8295 39.4316C66.6456 39.231 62.8056 38.1707 59.2235 36.2507C57.7334 35.3624 56.3579 34.2448 55.0683 32.8693C53.6355 31.2931 52.4892 29.6024 51.6868 27.7684C50.4259 24.8454 49.7382 21.7504 49.6809 18.3976C49.5376 15.8758 49.8241 13.4687 50.5406 11.1761C51.5435 8.28179 53.2629 5.81731 55.6988 3.72537C57.4468 2.29254 59.4814 1.28955 61.774 0.687762C63.3501 0.286568 64.9835 0.057313 66.6456 0.0286563L66.6743 0ZM68.2217 11.0328C67.4767 11.0328 66.9035 11.3194 66.531 11.9498C66.3877 12.1791 66.3017 12.4084 66.1871 12.6663L65.9579 13.4113L65.8432 14.2137V15.0734C65.8432 15.7039 65.8719 16.277 65.9292 16.7928C65.9865 17.3087 66.0725 17.8818 66.2158 18.369L66.3877 19.2287C66.4737 19.5152 66.531 19.8018 66.6743 20.0884C66.7316 20.3749 66.8462 20.6328 66.9608 20.8907L67.3047 21.6645L67.7346 22.4096C67.8779 22.6675 68.0498 22.8681 68.2217 23.0973L68.7949 23.7564L69.4253 24.3869C69.8265 24.7881 70.285 25.1319 70.6862 25.4472C71.0874 25.7624 71.5459 26.0203 72.0044 26.2782C72.1191 23.871 72.205 21.4639 72.2337 19.0567V17.6239C72.2337 17.1654 72.1477 16.7069 72.0904 16.277L71.8898 14.9875L71.6032 13.7552C71.5459 13.526 71.46 13.2967 71.3167 13.0675L70.8582 12.2937C70.457 11.6919 69.9125 11.2907 69.282 11.0901L68.5943 10.9755H68.2504L68.2217 11.0328Z" fill="url(#paint0_radial_433_18009)"/>
<defs>
<radialGradient id="paint0_radial_433_18009" cx="0" cy="0" r="1" gradientUnits="userSpaceOnUse" gradientTransform="translate(47.269 47.873) rotate(-90) scale(47.873 44.618)">
<stop stop-color="white"/>
<stop offset="1" stop-color="white" stop-opacity="0.75"/>
</radialGradient>
</defs>
</svg>
