<svg width="96" height="96" viewBox="0 0 96 96" fill="none" xmlns="http://www.w3.org/2000/svg">
<g clip-path="url(#clip0_433_17998)">
<path d="M58.8492 2.19397C59.0743 2.24252 59.3009 2.28714 59.5216 2.35776C59.3031 2.28273 59.0743 2.24694 58.8492 2.19397ZM60.6164 2.85345C60.6319 2.86228 60.6506 2.86618 60.6638 2.875C60.6484 2.86618 60.6319 2.86228 60.6164 2.85345ZM26.1336 5.34483C18.1292 5.34483 11.2836 11.059 9.84916 18.931L0.80606 68.6035C0.278612 71.5077 1.05909 74.4749 2.95261 76.7414C4.84613 79.0079 7.62689 80.3103 10.5819 80.3103H12.1207L11.8449 81.8405C11.3174 84.7448 12.0979 87.712 13.9914 89.9785C15.8849 92.2449 18.6614 93.5474 21.6164 93.5474H72.7155C78.4115 93.5474 83.4076 89.5078 84.5905 83.9353L95.3535 33.2414C96.1171 29.6463 95.2267 25.9441 92.9138 23.0862C91.2895 21.0801 89.1021 19.69 86.6768 19.0302C87.1027 15.7463 86.1938 12.4446 84.0862 9.84483C81.7712 6.9869 78.3341 5.34483 74.6552 5.34483H26.1336ZM37.1681 20.7931H83.4828C83.688 20.7953 83.8918 20.8143 84.0949 20.8276L73.6035 70.2371C72.6369 74.7943 68.5532 78.1035 63.8923 78.1035H14.7673L23.0561 32.569C24.2963 25.7452 30.2319 20.7931 37.1681 20.7931ZM65.8966 38.5172C64.9471 38.5004 63.9549 38.5943 62.9397 38.8017C59.8059 39.4439 57.4834 41.781 57.1811 44.5948C56.8721 47.4859 58.0632 49.2336 61.4354 50.7629C62.5366 51.2617 63.7013 51.6269 64.7673 52.1897C65.3918 52.5185 65.7923 53.0596 65.7371 53.4612C65.6709 53.9533 65.4451 54.4442 64.6638 54.8017C63.7678 55.21 62.5704 55.0584 61.6811 54.7759C60.2091 54.308 58.8629 53.4443 57.3578 52.694C56.5103 53.6628 55.4927 54.8249 54.4267 56.0431C57.9247 60.81 66.1356 61.4166 70.0043 57.1595C72.3194 54.6105 73.0247 50.5085 68.9354 48.306C67.4921 47.5292 65.9166 46.9987 64.4181 46.319C63.6612 45.9747 62.8419 45.6091 63.1509 44.5388C63.312 43.9805 63.9446 43.3323 64.9311 43.5C67.6301 43.9061 68.2388 44.2345 70.1897 44.7112C70.8915 43.8814 71.8884 42.702 72.8793 41.5302C71.2209 39.6085 68.7449 38.5678 65.8966 38.5172ZM26.0949 39.4741L29.8664 58.8966H35.8707L40.5216 46.9914L42.8233 58.8836L42.8147 58.8966H42.8233H48.0604L56.6552 39.4914C56.7258 39.4914 51.2673 39.4741 51.2673 39.4741L46.0517 51.4483L43.5992 39.4741H38.9311L33.8449 52.1078L31.4828 39.4741H26.0949Z" fill="url(#paint0_radial_433_17998)"/>
</g>
<defs>
<radialGradient id="paint0_radial_433_17998" cx="0" cy="0" r="1" gradientUnits="userSpaceOnUse" gradientTransform="translate(47.7613 47.8707) rotate(-90) scale(45.6767 47.4879)">
<stop stop-color="white"/>
<stop offset="1" stop-color="white" stop-opacity="0.75"/>
</radialGradient>
<clipPath id="clip0_433_17998">
<rect width="96" height="91.5862" fill="white" transform="translate(0 2)"/>
</clipPath>
</defs>
</svg>
